<?xml version="1.0" encoding="utf-8"?>
<!-- Generator: Adobe Illustrator 19.0.0, SVG Export Plug-In . SVG Version: 6.00 Build 0)  -->
<svg version="1.1" xmlns="http://www.w3.org/2000/svg" xmlns:xlink="http://www.w3.org/1999/xlink" x="0px" y="0px"
	 viewBox="0 0 920 920" style="enable-background:new 0 0 920 920;" xml:space="preserve">
<style type="text/css">
	.st0{opacity:0.3;fill:#FFFFFF;}
	.st1{fill:#FEF1BA;}
	.st2{fill:#FEEEA8;}
	.st3{fill:#FCD52B;}
	.st4{fill:#FCD630;}
	.st5{fill:#FFF9E0;}
	.st6{fill:#FBCD00;}
	.st7{opacity:0.9;fill:#FFFFFF;}
	.st8{opacity:0.9;fill:none;stroke:#FBCD00;stroke-width:4;stroke-linecap:round;stroke-miterlimit:10;}
	.st9{opacity:0.2;fill:#FBCD00;}
	.st10{fill:#FDEA96;}
	.st11{fill:#00AAFF;}
	.st12{fill:#FFFFFF;}
	.st13{fill:#1E3246;}
	.st14{display:none;}
	.st15{display:inline;}
	.st16{opacity:0.1;fill:#1E3246;}
	.st17{fill:#FCDF5C;}
	.st18{opacity:0.9;fill:none;stroke:#1E3246;stroke-width:5.161;stroke-linecap:round;stroke-miterlimit:10;}
	.st19{opacity:0.3;fill:#80D4FF;}
	.st20{opacity:0.3;fill:#FDE680;}
	.st21{opacity:0.3;fill:#00AAFF;stroke:#FFFFFF;stroke-width:1.2903;stroke-miterlimit:10;}
	.st22{fill:#FCDE59;}
	.st23{fill:#30BAFF;}
	.st24{opacity:0.9;fill:none;stroke:#FBCD00;stroke-width:5.161;stroke-linecap:round;stroke-miterlimit:10;}
</style>
<g id="Layer_1">
	<g id="XMLID_348_">
		<polygon id="XMLID_347_" class="st0" points="472.7,578.6 422.7,492 472.7,405.4 572.7,405.4 622.7,492 572.7,578.6 		"/>
		<circle id="XMLID_346_" class="st1" cx="82.6" cy="302.4" r="33.6"/>
		<circle id="XMLID_345_" class="st2" cx="321.5" cy="872.4" r="33.6"/>
		<circle id="XMLID_344_" class="st3" cx="82.6" cy="481.6" r="13.7"/>
		<circle id="XMLID_343_" class="st2" cx="174.7" cy="501.5" r="13.7"/>
		<circle id="XMLID_342_" class="st4" cx="401.2" cy="820.1" r="13.7"/>
		<circle id="XMLID_341_" class="st5" cx="171.6" cy="404.8" r="49.8"/>
		<circle id="XMLID_340_" class="st6" cx="522.3" cy="497.3" r="305.9"/>
		<circle id="XMLID_339_" class="st7" cx="522.3" cy="497.3" r="305.9"/>
		<path id="XMLID_338_" class="st8" d="M427.3,162.5c30.2-8.5,62-13.1,95-13.1c48,0,93.8,9.7,135.4,27.3
			c41.6,17.6,79.1,43.1,110.6,74.6s57,69,74.6,110.6c17.6,41.6,27.3,87.4,27.3,135.4s-9.7,93.8-27.3,135.4
			c-17.6,41.6-43.1,79.1-74.6,110.6s-69,57-110.6,74.6"/>
		<path id="XMLID_337_" class="st8" d="M386.8,176.7c6.3-2.7,12.7-5.1,19.1-7.4c0.5-0.2,0.9-0.3,1.4-0.5"/>
		<circle id="XMLID_336_" class="st9" cx="522.3" cy="497.3" r="278"/>
		<circle id="XMLID_335_" class="st9" cx="522.3" cy="497.3" r="228.5"/>
		<circle id="XMLID_334_" class="st9" cx="522.3" cy="497.3" r="188.6"/>
		<circle id="XMLID_333_" class="st9" cx="522.3" cy="497.3" r="148.8"/>
		<circle id="XMLID_332_" class="st10" cx="226" cy="147.2" r="117.3"/>
		<path id="XMLID_331_" class="st8" d="M352.4,200.6c-6.9,16.4-17,31.2-29.4,43.6c-12.4,12.4-27.2,22.5-43.6,29.4
			s-34.5,10.8-53.4,10.8"/>
		<path id="XMLID_330_" class="st8" d="M129,244.2c-12.4-12.4-22.5-27.2-29.4-43.6c-6.9-16.4-10.8-34.5-10.8-53.4s3.8-37,10.8-53.4
			c6.9-16.4,17-31.2,29.4-43.6s27.2-22.5,43.6-29.4S207,10,226,10s37,3.8,53.4,10.8s31.2,17,43.6,29.4s22.5,27.2,29.4,43.6
			c6.9,16.4,10.8,34.5,10.8,53.4"/>
		<path id="XMLID_329_" class="st8" d="M172.6,273.5c-8.5-3.6-16.5-8-24-13.1c0,0,0,0,0,0"/>
		<g id="XMLID_128_">
			<path id="XMLID_328_" class="st11" d="M642.9,439.3v-47.4c0-10.2-8.3-18.5-18.5-18.5H420.1c-10.2,0-18.5,8.3-18.5,18.5v47.4
				c0,5.9,2.8,11.1,7.1,14.5c-4.3,3.4-7.1,8.6-7.1,14.5v47.4c0,5.9,2.8,11.1,7.1,14.5c-4.3,3.4-7.1,8.6-7.1,14.5v47.4
				c0,10.2,8.3,18.5,18.5,18.5h204.3c10.2,0,18.5-8.3,18.5-18.5v-47.4c0-5.9-2.8-11.1-7.1-14.5c4.3-3.4,7.2-8.6,7.2-14.5v-47.4
				c0-5.9-2.8-11.1-7.1-14.5C640.1,450.4,642.9,445.2,642.9,439.3z"/>
			<g id="XMLID_146_">
				<path id="XMLID_326_" class="st12" d="M443.8,425.7c-5.5,0-10.1-4.5-10.1-10.1c0-5.5,4.5-10.1,10.1-10.1s10.1,4.5,10.1,10.1
					C453.9,421.2,449.4,425.7,443.8,425.7z"/>
				<circle id="XMLID_325_" class="st6" cx="602.7" cy="409.6" r="4"/>
				<circle id="XMLID_324_" class="st6" cx="586.6" cy="409.6" r="4"/>
				<circle id="XMLID_323_" class="st6" cx="610.8" cy="421.6" r="4"/>
				<circle id="XMLID_322_" class="st6" cx="594.7" cy="421.6" r="4"/>
				<circle id="XMLID_321_" class="st6" cx="570.5" cy="409.6" r="4"/>
				<circle id="XMLID_320_" class="st6" cx="578.6" cy="421.6" r="4"/>
				<circle id="XMLID_319_" class="st6" cx="554.4" cy="409.6" r="4"/>
				<circle id="XMLID_318_" class="st6" cx="562.5" cy="421.6" r="4"/>
				<circle id="XMLID_317_" class="st6" cx="538.4" cy="409.6" r="4"/>
				<circle id="XMLID_316_" class="st6" cx="546.4" cy="421.6" r="4"/>
				<path id="XMLID_311_" class="st13" d="M642.9,439.3v-47.4c0-10.2-8.3-18.5-18.5-18.5H420.1c-10.2,0-18.5,8.3-18.5,18.5v47.4
					c0,5.9,2.8,11.1,7.1,14.5c-4.3,3.4-7.1,8.6-7.1,14.5v47.4c0,5.9,2.8,11.1,7.1,14.5c-4.3,3.4-7.1,8.6-7.1,14.5v47.4
					c0,10.2,8.3,18.5,18.5,18.5h204.3c10.2,0,18.5-8.3,18.5-18.5v-47.4c0-5.9-2.8-11.1-7.1-14.5c4.3-3.4,7.2-8.6,7.2-14.5v-47.4
					c0-5.9-2.8-11.1-7.1-14.5C640.1,450.4,642.9,445.2,642.9,439.3z M634.9,544.8v47.4c0,5.8-4.7,10.5-10.5,10.5H420.1
					c-5.8,0-10.5-4.7-10.5-10.5v-47.4c0-5.8,4.7-10.5,10.5-10.5h204.3C630.2,534.3,634.9,539,634.9,544.8z M634.9,468.3v47.4
					c0,5.8-4.7,10.5-10.5,10.5H420.1c-5.8,0-10.5-4.7-10.5-10.5v-47.4c0-5.8,4.7-10.5,10.5-10.5h204.3
					C630.2,457.8,634.9,462.6,634.9,468.3z M420.1,449.8c-5.8,0-10.5-4.7-10.5-10.5v-47.4c0-5.8,4.7-10.5,10.5-10.5h204.3
					c5.8,0,10.5,4.7,10.5,10.5v47.4c0,5.8-4.7,10.5-10.5,10.5L420.1,449.8L420.1,449.8z"/>
				<path id="XMLID_248_" class="st12" d="M443.8,482c5.5,0,10.1,4.5,10.1,10.1c0,5.5-4.5,10.1-10.1,10.1s-10.1-4.5-10.1-10.1
					C433.8,486.5,438.3,482,443.8,482z"/>
				<circle id="XMLID_247_" class="st6" cx="602.7" cy="486" r="4"/>
				<circle id="XMLID_246_" class="st6" cx="586.6" cy="486" r="4"/>
				<circle id="XMLID_245_" class="st6" cx="610.8" cy="498.1" r="4"/>
				<circle id="XMLID_243_" class="st6" cx="594.7" cy="498.1" r="4"/>
				<circle id="XMLID_242_" class="st6" cx="570.5" cy="486" r="4"/>
				<circle id="XMLID_241_" class="st6" cx="578.6" cy="498.1" r="4"/>
				<circle id="XMLID_240_" class="st6" cx="554.4" cy="486" r="4"/>
				<circle id="XMLID_239_" class="st6" cx="562.5" cy="498.1" r="4"/>
				<circle id="XMLID_238_" class="st6" cx="538.4" cy="486" r="4"/>
				<circle id="XMLID_236_" class="st6" cx="546.4" cy="498.1" r="4"/>
				<path id="XMLID_234_" class="st12" d="M443.8,558.4c5.5,0,10.1,4.5,10.1,10.1s-4.5,10.1-10.1,10.1s-10.1-4.5-10.1-10.1
					S438.3,558.4,443.8,558.4z"/>
				<circle id="XMLID_233_" class="st6" cx="602.7" cy="562.4" r="4"/>
				<circle id="XMLID_231_" class="st6" cx="586.6" cy="562.4" r="4"/>
				<circle id="XMLID_230_" class="st6" cx="610.8" cy="574.5" r="4"/>
				<circle id="XMLID_229_" class="st6" cx="594.7" cy="574.5" r="4"/>
				<circle id="XMLID_228_" class="st6" cx="570.5" cy="562.4" r="4"/>
				<circle id="XMLID_227_" class="st6" cx="578.6" cy="574.5" r="4"/>
				<circle id="XMLID_226_" class="st6" cx="554.4" cy="562.4" r="4"/>
				<circle id="XMLID_224_" class="st6" cx="562.5" cy="574.5" r="4"/>
				<circle id="XMLID_223_" class="st6" cx="538.4" cy="562.4" r="4"/>
				<circle id="XMLID_152_" class="st6" cx="546.4" cy="574.5" r="4"/>
			</g>
		</g>
		<g id="XMLID_104_">
			<path id="XMLID_125_" class="st12" d="M341.4,161.3H220.7c-11.6,0-21.1,9.5-21.1,21.1v245.3c0,11.6,9.5,21.1,21.1,21.1h120.7
				c11.6,0,21.1-9.5,21.1-21.1V182.4C362.5,170.8,353.1,161.3,341.4,161.3z"/>
			<rect id="XMLID_123_" x="209.2" y="199.7" class="st11" width="143.8" height="182.1"/>
			<g id="XMLID_112_">
				<path id="XMLID_117_" class="st13" d="M341.4,161.3H220.7c-11.6,0-21.1,9.5-21.1,21.1v245.3c0,11.6,9.5,21.1,21.1,21.1h120.7
					c11.6,0,21.1-9.5,21.1-21.1V182.4C362.5,170.8,353.1,161.3,341.4,161.3z M209.2,199.7h143.8v182.1H209.2V199.7z M220.7,170.9
					h120.7c6.4,0,11.5,5.2,11.5,11.5v7.6H209.2v-7.6C209.2,176.1,214.3,170.9,220.7,170.9z M341.4,439.3H220.7
					c-6.4,0-11.5-5.2-11.5-11.5v-36.4h143.8v36.4C352.9,434.2,347.8,439.3,341.4,439.3z"/>
				<path id="XMLID_115_" class="st11" d="M281.1,425.9c-5.8,0-10.5-4.7-10.5-10.5c0-5.8,4.7-10.5,10.5-10.5s10.5,4.7,10.5,10.5
					C291.6,421.2,286.9,425.9,281.1,425.9z"/>
				<path id="XMLID_114_" class="st13" d="M261.9,185.3h19.2c2.7,0,4.8-2.1,4.8-4.8c0-2.7-2.1-4.8-4.8-4.8h-19.2
					c-2.7,0-4.8,2.1-4.8,4.8C257.1,183.2,259.2,185.3,261.9,185.3z"/>
				<path id="XMLID_113_" class="st13" d="M295.4,185.3h4.8c2.7,0,4.8-2.1,4.8-4.8c0-2.7-2.1-4.8-4.8-4.8h-4.8
					c-2.7,0-4.8,2.1-4.8,4.8C290.6,183.2,292.8,185.3,295.4,185.3z"/>
			</g>
			<g id="XMLID_105_">
				<path id="XMLID_109_" class="st12" d="M273.8,271.5v9.2h-10.9v-9.2H273.8z M273.5,285.6v33.3h-10.2v-33.3H273.5z"/>
				<path id="XMLID_106_" class="st12" d="M277.1,293.6v-8h5.4v-1.7c0-2.4,0.4-4.4,1.2-6.1c0.8-1.7,1.8-3.1,3.1-4.2
					c1.3-1.1,2.7-1.9,4.4-2.5c1.6-0.5,3.3-0.8,5-0.8c1.8,0,3.6,0.3,5.5,0.8c1.8,0.5,3.5,1.4,5,2.7l-2.2,3.2l-2.2,3.2
					c-0.7-0.5-1.5-0.9-2.3-1.2c-0.9-0.3-1.7-0.4-2.6-0.4c-1.4,0-2.6,0.5-3.4,1.4c-0.9,0.9-1.3,2.2-1.3,3.8v1.8h7.9v8h-7.9v25.3
					h-10.1v-25.3H277.1z"/>
			</g>
		</g>
		<g id="XMLID_14_">
			<path id="XMLID_103_" class="st12" d="M365.4,532h-290c-2.6,0-4.7,2.1-4.7,4.7v60v225c0,2.6,2.1,4.7,4.7,4.7h290
				c2.6,0,4.7-2.1,4.7-4.7v-225v-60C370.1,534.1,368,532,365.4,532z"/>
			<g id="XMLID_24_">
				<g id="XMLID_96_">
					<g id="XMLID_98_">
						<path id="XMLID_99_" class="st13" d="M365.4,532h-290c-2.6,0-4.7,2.1-4.7,4.7v60v225c0,2.6,2.1,4.7,4.7,4.7h290
							c2.6,0,4.7-2.1,4.7-4.7v-225v-60C370.1,534.1,368,532,365.4,532z M360.8,817H80.1V601.3h280.6L360.8,817L360.8,817z
							 M360.8,592H80.1v-50.6h280.6L360.8,592L360.8,592z"/>
					</g>
				</g>
				<g id="XMLID_40_">
					<g id="XMLID_41_">
						<path id="XMLID_42_" class="st13" d="M320.4,552h-55c-2.6,0-4.7,2.1-4.7,4.7c0,2.6,2.1,4.7,4.7,4.7h55c2.6,0,4.7-2.1,4.7-4.7
							C325.1,554.1,323,552,320.4,552z"/>
					</g>
				</g>
				<g id="XMLID_37_">
					<g id="XMLID_38_">
						<path id="XMLID_39_" class="st13" d="M345.4,552h-10c-2.6,0-4.7,2.1-4.7,4.7c0,2.6,2.1,4.7,4.7,4.7h10c2.6,0,4.7-2.1,4.7-4.7
							C350.1,554.1,348,552,345.4,552z"/>
					</g>
				</g>
				<g id="XMLID_33_">
					<g id="XMLID_34_">
						<path id="XMLID_35_" class="st13" d="M146.1,571.8c-4.3,0-7.8-3.5-7.8-7.8s3.5-7.8,7.8-7.8c4.3,0,7.8,3.5,7.8,7.8
							S150.4,571.8,146.1,571.8z"/>
					</g>
				</g>
				<g id="XMLID_29_">
					<g id="XMLID_30_">
						<path id="XMLID_31_" class="st13" d="M122.3,571.8c-4.3,0-7.8-3.5-7.8-7.8s3.5-7.8,7.8-7.8c4.3,0,7.8,3.5,7.8,7.8
							S126.5,571.8,122.3,571.8z"/>
					</g>
				</g>
				<g id="XMLID_25_">
					<g id="XMLID_26_">
						<path id="XMLID_27_" class="st13" d="M98.4,571.8c-4.3,0-7.8-3.5-7.8-7.8s3.5-7.8,7.8-7.8c4.3,0,7.8,3.5,7.8,7.8
							S102.7,571.8,98.4,571.8z"/>
					</g>
				</g>
			</g>
			<polygon id="XMLID_23_" class="st11" points="360.8,817 80.1,817 80.1,601.3 360.8,601.3 360.8,817 			"/>
			<g id="XMLID_17_">
				<path id="XMLID_20_" class="st12" d="M207.5,671.1v13.7h-16.3v-13.7H207.5z M207,692v49.6h-15.2V692H207z"/>
				<path id="XMLID_18_" class="st12" d="M212.4,704v-12h8v-2.5c0-3.5,0.6-6.6,1.7-9.1s2.7-4.6,4.6-6.3c1.9-1.7,4.1-2.9,6.5-3.7
					c2.4-0.8,4.9-1.2,7.5-1.2c2.7,0,5.4,0.4,8.1,1.2c2.8,0.8,5.3,2.1,7.5,4l-3.2,4.8L250,684c-1.1-0.8-2.2-1.4-3.5-1.8
					s-2.6-0.6-3.9-0.6c-2.1,0-3.8,0.7-5.1,2c-1.3,1.3-1.9,3.2-1.9,5.7v2.7h11.8v12h-11.8v37.7h-15.1V704H212.4z"/>
			</g>
		</g>
	</g>
</g>
<g id="Layer_2" class="st14">
	<g id="XMLID_413_" class="st15">
		<circle id="XMLID_412_" class="st11" cx="464" cy="518.6" r="178"/>
		<circle id="XMLID_411_" class="st16" cx="136.6" cy="722.4" r="102.6"/>
		<circle id="XMLID_410_" class="st16" cx="597" cy="238.5" r="97.1"/>
		<circle id="XMLID_409_" class="st17" cx="381" cy="467.1" r="43.9"/>
		<circle id="XMLID_408_" class="st17" cx="49.7" cy="296.1" r="29.3"/>
		<circle id="XMLID_407_" class="st11" cx="120.8" cy="118.3" r="62.4"/>
		<path id="XMLID_406_" class="st18" d="M71.3,191.6c-23.5-15.9-39-42.8-39-73.3c0-48.8,39.6-88.4,88.4-88.4
			c33.2,0,62.1,18.3,77.2,45.4"/>
		<circle id="XMLID_405_" class="st19" cx="666.2" cy="651.1" r="224.7"/>
		<circle id="XMLID_415_" class="st20" cx="498.6" cy="156.1" r="96"/>
		<circle id="XMLID_414_" class="st21" cx="424.8" cy="110.8" r="37.8"/>
		<circle id="XMLID_404_" class="st2" cx="159.4" cy="415" r="52.3"/>
		<circle id="XMLID_403_" class="st11" cx="171.3" cy="586.4" r="17.4"/>
		<circle id="XMLID_402_" class="st11" cx="228.7" cy="586.4" r="24.8"/>
		<circle id="XMLID_401_" class="st2" cx="276.9" cy="666.9" r="29.3"/>
		<circle id="XMLID_400_" class="st22" cx="49.7" cy="214.8" r="11.9"/>
		<circle id="XMLID_399_" class="st13" cx="159.4" cy="522.1" r="11.9"/>
		<circle id="XMLID_398_" class="st4" cx="357" cy="800.1" r="11.9"/>
		<circle id="XMLID_397_" class="st23" cx="204.1" cy="212.9" r="30.3"/>
		<path id="XMLID_396_" class="st24" d="M379.8,226.3c26.3-7.5,54.1-11.4,82.9-11.4c41.9,0,81.9,8.5,118.2,23.9
			c36.3,15.4,69,37.6,96.5,65.1c27.5,27.5,49.7,60.2,65.1,96.5s23.9,76.3,23.9,118.2s-8.5,81.9-23.9,118.2
			c-15.4,36.3-37.6,69-65.1,96.5c-27.5,27.5-60.2,49.7-96.5,65.1"/>
		<path id="XMLID_395_" class="st24" d="M344.5,238.7c5.5-2.3,11.1-4.5,16.7-6.5c0.4-0.1,0.8-0.3,1.2-0.4"/>
		<circle id="XMLID_388_" class="st24" cx="462.7" cy="518.5" r="242.5"/>
		<circle id="XMLID_387_" class="st24" cx="462.7" cy="518.5" r="177.8"/>
		<circle id="XMLID_386_" class="st24" cx="462.7" cy="518.5" r="103.4"/>
		<circle id="XMLID_385_" class="st24" cx="204.1" cy="212.9" r="75"/>
		<path id="XMLID_384_" class="st18" d="M314.4,259.5c-6.1,14.3-14.8,27.2-25.6,38s-23.7,19.6-38,25.6s-30.1,9.4-46.6,9.4"/>
		<path id="XMLID_383_" class="st18" d="M119.5,297.5c-10.8-10.8-19.6-23.7-25.6-38c-6.1-14.3-9.4-30.1-9.4-46.6s3.3-32.3,9.4-46.6
			c6.1-14.3,14.8-27.2,25.6-38c10.8-10.8,23.7-19.6,38-25.6c14.3-6.1,30.1-9.4,46.6-9.4s32.3,3.3,46.6,9.4
			c14.3,6.1,27.2,14.8,38,25.6c10.8,10.8,19.6,23.7,25.6,38c6.1,14.3,9.4,30.1,9.4,46.6"/>
		<path id="XMLID_367_" class="st18" d="M157.6,323.2c-7.4-3.1-14.4-7-21-11.5c0,0,0,0,0,0"/>
	</g>
</g>
</svg>
