<?xml version="1.0" encoding="utf-8"?>
<!-- Generator: Adobe Illustrator 19.0.0, SVG Export Plug-In . SVG Version: 6.00 Build 0)  -->
<svg version="1.1" id="Layer_1" xmlns="http://www.w3.org/2000/svg" xmlns:xlink="http://www.w3.org/1999/xlink" x="0px" y="0px"
	 viewBox="110 -110 920 920" style="enable-background:new 110 -110 920 920;" xml:space="preserve">
<style type="text/css">
	.st0{display:none;}
	.st1{display:inline;}
	.st2{fill:#00AAFF;}
	.st3{opacity:0.1;fill:#1E3246;enable-background:new    ;}
	.st4{fill:#FCDF5C;}

		.st5{opacity:0.9;fill:none;stroke:#1E3246;stroke-width:5.161;stroke-linecap:round;stroke-miterlimit:10;enable-background:new    ;}
	.st6{opacity:0.3;fill:#80D4FF;enable-background:new    ;}
	.st7{opacity:0.3;fill:#FDE680;enable-background:new    ;}
	.st8{opacity:0.3;fill:#00AAFF;stroke:#FFFFFF;stroke-width:1.2903;stroke-miterlimit:10;enable-background:new    ;}
	.st9{fill:#FEEEA8;}
	.st10{fill:#FCDE59;}
	.st11{fill:#1E3246;}
	.st12{fill:#FCD630;}
	.st13{fill:#30BAFF;}

		.st14{opacity:0.9;fill:none;stroke:#FBCD00;stroke-width:5.161;stroke-linecap:round;stroke-miterlimit:10;enable-background:new    ;}
	.st15{opacity:0.1;fill:#1E3246;}
	.st16{opacity:0.9;fill:none;stroke:#1E3246;stroke-width:5.161;stroke-linecap:round;stroke-miterlimit:10;}
	.st17{opacity:0.3;fill:#80D4FF;}
	.st18{opacity:0.3;fill:#FDE680;}
	.st19{opacity:0.3;fill:#00AAFF;stroke:#FFFFFF;stroke-width:1.2903;stroke-miterlimit:10;}
	.st20{opacity:0.9;fill:none;stroke:#FBCD00;stroke-width:5.161;stroke-linecap:round;stroke-miterlimit:10;}
</style>
<g id="Layer_2" class="st0">
	<g id="XMLID_413_" class="st1">
		<circle id="XMLID_412_" class="st2" cx="574" cy="408.6" r="178"/>
		<circle id="XMLID_411_" class="st3" cx="246.6" cy="612.4" r="102.6"/>
		<circle id="XMLID_410_" class="st3" cx="707" cy="128.5" r="97.1"/>
		<circle id="XMLID_409_" class="st4" cx="491" cy="357.1" r="43.9"/>
		<circle id="XMLID_408_" class="st4" cx="159.7" cy="186.1" r="29.3"/>
		<circle id="XMLID_407_" class="st2" cx="230.8" cy="8.3" r="62.4"/>
		<path id="XMLID_406_" class="st5" d="M181.3,81.6c-23.5-15.9-39-42.8-39-73.3c0-48.8,39.6-88.4,88.4-88.4
			c33.2,0,62.1,18.3,77.2,45.4"/>
		<circle id="XMLID_405_" class="st6" cx="776.2" cy="541.1" r="224.7"/>
		<circle id="XMLID_415_" class="st7" cx="608.6" cy="46.1" r="96"/>
		<circle id="XMLID_414_" class="st8" cx="534.8" cy="0.8" r="37.8"/>
		<circle id="XMLID_404_" class="st9" cx="269.4" cy="305" r="52.3"/>
		<circle id="XMLID_403_" class="st2" cx="281.3" cy="476.4" r="17.4"/>
		<circle id="XMLID_402_" class="st2" cx="338.7" cy="476.4" r="24.8"/>
		<circle id="XMLID_401_" class="st9" cx="386.9" cy="556.9" r="29.3"/>
		<circle id="XMLID_400_" class="st10" cx="159.7" cy="104.8" r="11.9"/>
		<circle id="XMLID_399_" class="st11" cx="269.4" cy="412.1" r="11.9"/>
		<circle id="XMLID_398_" class="st12" cx="467" cy="690.1" r="11.9"/>
		<circle id="XMLID_397_" class="st13" cx="314.1" cy="102.9" r="30.3"/>
		<path id="XMLID_396_" class="st14" d="M489.8,116.3c26.3-7.5,54.1-11.4,82.9-11.4c41.9,0,81.9,8.5,118.2,23.9s69,37.6,96.5,65.1
			s49.7,60.2,65.1,96.5s23.9,76.3,23.9,118.2s-8.5,81.9-23.9,118.2s-37.6,69-65.1,96.5s-60.2,49.7-96.5,65.1"/>
		<path id="XMLID_395_" class="st14" d="M454.5,128.7c5.5-2.3,11.1-4.5,16.7-6.5c0.4-0.1,0.8-0.3,1.2-0.4"/>
		<circle id="XMLID_388_" class="st14" cx="572.7" cy="408.5" r="242.5"/>
		<circle id="XMLID_387_" class="st14" cx="572.7" cy="408.5" r="177.8"/>
		<circle id="XMLID_386_" class="st14" cx="572.7" cy="408.5" r="103.4"/>
		<circle id="XMLID_385_" class="st14" cx="314.1" cy="102.9" r="75"/>
		<path id="XMLID_384_" class="st5" d="M424.4,149.5c-6.1,14.3-14.8,27.2-25.6,38s-23.7,19.6-38,25.6s-30.1,9.4-46.6,9.4"/>
		<path id="XMLID_383_" class="st5" d="M229.5,187.5c-10.8-10.8-19.6-23.7-25.6-38c-6.1-14.3-9.4-30.1-9.4-46.6s3.3-32.3,9.4-46.6
			c6.1-14.3,14.8-27.2,25.6-38c10.8-10.8,23.7-19.6,38-25.6c14.3-6.1,30.1-9.4,46.6-9.4s32.3,3.3,46.6,9.4s27.2,14.8,38,25.6
			s19.6,23.7,25.6,38c6.1,14.3,9.4,30.1,9.4,46.6"/>
		<path id="XMLID_367_" class="st5" d="M267.6,213.2c-7.4-3.1-14.4-7-21-11.5l0,0"/>
	</g>
</g>
<g id="XMLID_1_">
	<circle id="XMLID_28_" class="st2" cx="576" cy="414.6" r="178"/>
	<circle id="XMLID_27_" class="st15" cx="248.6" cy="618.4" r="102.6"/>
	<circle id="XMLID_26_" class="st15" cx="709" cy="134.5" r="97.1"/>
	<circle id="XMLID_25_" class="st4" cx="493" cy="363.1" r="43.9"/>
	<circle id="XMLID_24_" class="st4" cx="161.7" cy="192.1" r="29.3"/>
	<circle id="XMLID_23_" class="st2" cx="232.8" cy="14.3" r="62.4"/>
	<path id="XMLID_22_" class="st16" d="M183.3,87.6c-23.5-15.9-39-42.8-39-73.3c0-48.8,39.6-88.4,88.4-88.4
		c33.2,0,62.1,18.3,77.2,45.4"/>
	<circle id="XMLID_21_" class="st17" cx="778.2" cy="547.1" r="224.7"/>
	<circle id="XMLID_20_" class="st18" cx="610.6" cy="52.1" r="96"/>
	<circle id="XMLID_19_" class="st19" cx="536.8" cy="6.8" r="37.8"/>
	<circle id="XMLID_18_" class="st9" cx="271.4" cy="311" r="52.3"/>
	<circle id="XMLID_17_" class="st2" cx="283.3" cy="482.4" r="17.4"/>
	<circle id="XMLID_16_" class="st2" cx="340.7" cy="482.4" r="24.8"/>
	<circle id="XMLID_15_" class="st9" cx="388.9" cy="562.9" r="29.3"/>
	<circle id="XMLID_14_" class="st10" cx="161.7" cy="110.8" r="11.9"/>
	<circle id="XMLID_13_" class="st11" cx="271.4" cy="418.1" r="11.9"/>
	<circle id="XMLID_12_" class="st12" cx="469" cy="696.1" r="11.9"/>
	<circle id="XMLID_11_" class="st13" cx="316.1" cy="108.9" r="30.3"/>
	<path id="XMLID_10_" class="st20" d="M491.8,122.3c26.3-7.5,54.1-11.4,82.9-11.4c41.9,0,81.9,8.5,118.2,23.9
		c36.3,15.4,69,37.6,96.5,65.1s49.7,60.2,65.1,96.5s23.9,76.3,23.9,118.2s-8.5,81.9-23.9,118.2s-37.6,69-65.1,96.5
		c-27.5,27.5-60.2,49.7-96.5,65.1"/>
	<path id="XMLID_9_" class="st20" d="M456.5,134.7c5.5-2.3,11.1-4.5,16.7-6.5c0.4-0.1,0.8-0.3,1.2-0.4"/>
	<circle id="XMLID_8_" class="st20" cx="574.7" cy="414.5" r="242.5"/>
	<circle id="XMLID_7_" class="st20" cx="574.7" cy="414.5" r="177.8"/>
	<circle id="XMLID_6_" class="st20" cx="574.7" cy="414.5" r="103.4"/>
	<circle id="XMLID_5_" class="st20" cx="316.1" cy="108.9" r="75"/>
	<path id="XMLID_4_" class="st16" d="M426.4,155.5c-6.1,14.3-14.8,27.2-25.6,38c-10.8,10.8-23.7,19.6-38,25.6
		c-14.3,6.1-30.1,9.4-46.6,9.4"/>
	<path id="XMLID_3_" class="st16" d="M231.5,193.5c-10.8-10.8-19.6-23.7-25.6-38c-6.1-14.3-9.4-30.1-9.4-46.6s3.3-32.3,9.4-46.6
		c6.1-14.3,14.8-27.2,25.6-38s23.7-19.6,38-25.6s30.1-9.4,46.6-9.4s32.3,3.3,46.6,9.4s27.2,14.8,38,25.6s19.6,23.7,25.6,38
		c6.1,14.3,9.4,30.1,9.4,46.6"/>
	<path id="XMLID_2_" class="st16" d="M269.6,219.2c-7.4-3.1-14.4-7-21-11.5c0,0,0,0,0,0"/>
</g>
</svg>
