<svg xmlns:rdf="http://www.w3.org/1999/02/22-rdf-syntax-ns#" xmlns:dc="http://purl.org/dc/elements/1.1/" xmlns:cc="http://creativecommons.org/ns#" xmlns="http://www.w3.org/2000/svg" xmlns:xlink="http://www.w3.org/1999/xlink" version="1.1" id="Layer_1" x="0px" y="0px" viewBox="-255 299.2 188.1 103.8" style="enable-background:new -255 299.2 188.1 103.8;" xml:space="preserve">
<style type="text/css">
  .st0{fill:#052D72;}
  .st1{fill:url(#path3166_1_);}
  .st2{fill:url(#path3164_1_);}
</style>
<g id="Page-1">
  <g id="British_Gas" transform="translate(36.000000, 36.000000)">
    <path id="path3130" class="st0" d="M-259.5,322.6v19.2h8.9c3.7,0,5.8-1.3,5.8-5.7c0-2.3-1-3.9-3.4-4.3c1.9-0.6,2.9-1.5,2.9-4.2    c0-3.7-1.8-4.9-5.6-4.9H-259.5z M-256,325.6h4.1c2.4,0,3,0.7,3,2.4c0,1.9-0.5,2.6-2.9,2.6h-4.2V325.6z M-256,333.5h5    c2,0,2.6,0.8,2.6,2.7c0,2.2-1,2.6-2.6,2.6h-5V333.5z"/>
    <path id="path3136" class="st0" d="M-239.5,341.8h-3.5v-9.4c0-3.6,2-4.7,6.1-4.7c1.4,0,3,0.1,3,0.1c0,1.8-0.6,2.8-2.5,2.8l-1.1,0    c-1.2,0-2,0.2-2,1.8V341.8z"/>
    <g id="g3138" transform="translate(39.762720, 50.433429)">
      <polygon id="path3140" class="st0" points="-268.6,291.4 -272.1,291.4 -272.1,277.3 -268.6,277.3    "/>
      <path id="path3142" class="st0" d="M-268.6,276.1h-3.5v-1.1c0-1.4,0.9-2.4,2.6-2.4h0.9V276.1z"/>
    </g>
    <g id="g3144" transform="translate(66.006749, 50.433429)">
      <polygon id="path3146" class="st0" points="-276.6,291.4 -280.1,291.4 -280.1,277.3 -276.6,277.3    "/>
      <path id="path3148" class="st0" d="M-276.6,276.1h-3.5v-1.1c0-1.4,0.9-2.4,2.6-2.4h0.9V276.1z"/>
    </g>
    <path id="path3150" class="st0" d="M-216.5,338.9l0.1,2.7c0,0-1.3,0.3-2.8,0.3c-2.8,0-5.2-0.8-5.2-4.7v-6.6h-2.6v-2.8h2.6v-2.3    c0-1.4,0.9-2.4,2.8-2.4h0.7v4.7h4.9v0.6c0,1.6-0.8,2.2-2.3,2.2h-2.6v6.6c0,0.8,0.3,1.9,2.1,1.9    C-218.1,339.1-216.5,338.9-216.5,338.9z"/>
    <path id="path3152" class="st0" d="M-208.3,341.7l0.1-2.9c0,0,2.2,0.2,4.7,0.2c2.4,0,2.9-0.6,2.9-1.3c0-3-8.2,0.1-8.2-6    c0-3.1,2.1-4.1,6.1-4.1c1.7,0,4.7,0.3,4.7,0.3c0,2.4-1.3,2.6-2.1,2.6c-1,0-2.5-0.2-3.4-0.2c-1.3,0-1.9,0.5-1.9,1.3    c0,2.9,8.2,0.1,8.2,6.1c0,2.6-2.1,4.1-6,4.1C-206.2,341.9-208.3,341.7-208.3,341.7z"/>
    <path id="path3154" class="st0" d="M-143.3,341.7l0.1-2.9c0,0,2.2,0.2,4.7,0.2c2.4,0,2.9-0.6,2.9-1.3c0-3-8.2,0.1-8.2-6    c0-3.1,2.1-4.1,6.1-4.1c1.7,0,4.7,0.3,4.7,0.3c0,2.4-1.3,2.6-2.1,2.6c-1,0-2.5-0.2-3.4-0.2c-1.3,0-1.9,0.5-1.9,1.3    c0,2.9,8.2,0.1,8.2,6.1c0,2.6-2.1,4.1-6,4.1C-141.2,341.9-143.3,341.7-143.3,341.7z"/>
    <path id="path3156" class="st0" d="M-191.9,341.8h-3.4v-17.3c0-1.8,1.4-2.3,2.7-2.3h0.7v7.1c1-0.6,3.6-1.7,5.9-1.7    c3.5,0,3.9,2.6,3.9,4.8v9.4h-3.4v-9.3c0-0.9-0.6-1.7-1.7-1.7c-1.3,0-3.5,0.9-4.6,1.3V341.8z"/>
    <path id="path3158" class="st0" d="M-167.3,330.8h7.3v10.3c0,0-5.5,0.8-8,0.8c-6,0-7.6-3.3-7.6-8.9v-2.3c0-7.1,2.8-8.3,8.2-8.3    c2.8,0,6.8,0.7,6.8,0.7c0,1.8-1.1,2.7-2.5,2.7c-1.1,0-2.9-0.4-4.5-0.4c-2.8,0-4.3,0.7-4.3,5.9v0.9c0,2.4-0.4,6.5,4,6.5    c1.9,0,4.3-0.3,4.3-0.3v-4.9h-1.6c-1.3,0-2.1-0.7-2.1-2.1V330.8z"/>
    <path id="path3160" class="st0" d="M-150.3,327.8c-3.4,0-6.4,0.3-6.4,0.3c0,1.7,0.4,2.6,2.1,2.6c0.8,0,2.4-0.1,4.1-0.1    c1.3,0,1.6,0.7,1.6,1.4v0.6c-4.4,0.5-9.2,0.2-9.2,4.7c0,3,0.9,4.5,5,4.5c3.8,0,7.6-0.4,7.6-0.4v-9.2    C-145.6,329.5-146.2,327.8-150.3,327.8z M-149,335.2v4c0,0-2.2,0.1-3.7,0.1c-1.5,0-2.1-0.6-2.1-1.7    C-154.9,335.6-152.9,335.6-149,335.2z"/>

      <linearGradient id="path3166_1_" gradientUnits="userSpaceOnUse" x1="-541.3237" y1="658.9813" x2="-540.9957" y2="658.3082" gradientTransform="matrix(45.6726 0 0 -39.4739 24581.0625 26300.1953)">
      <stop offset="0" style="stop-color:#2A3793"/>
      <stop offset="9.999999e-02" style="stop-color:#203E98"/>
      <stop offset="0.1971" style="stop-color:#124A9D"/>
      <stop offset="0.301" style="stop-color:#0A4FA4"/>
      <stop offset="0.4" style="stop-color:#005AAA"/>
      <stop offset="0.5" style="stop-color:#0063B1"/>
      <stop offset="0.6" style="stop-color:#0270BB"/>
      <stop offset="0.6976" style="stop-color:#0187D0"/>
      <stop offset="0.8" style="stop-color:#0194D9"/>
      <stop offset="0.9" style="stop-color:#14A7EA"/>
      <stop offset="1" style="stop-color:#0DA4D8"/>
    </linearGradient>
    <path id="path3166" class="st1" d="M-153.4,304.4c1.2-5,5-7.5,16.2-10.9c5.8-1.9,10.8-3.5,15.4-5.1c0,16.6-6.2,24.8-17.8,27.3    c3.9-3.1,6.9-9.1,6.9-18.6C-148.9,302.6-150.1,302.4-153.4,304.4z"/>

      <linearGradient id="path3164_1_" gradientUnits="userSpaceOnUse" x1="-538.4207" y1="653.1295" x2="-537.7245" y2="652.6146" gradientTransform="matrix(26.881 0 0 -21.5958 14313.9062 14412.832)">
      <stop offset="0" style="stop-color:#C1D26A"/>
      <stop offset="9.999999e-02" style="stop-color:#CBDE46"/>
      <stop offset="0.1971" style="stop-color:#BAD246"/>
      <stop offset="0.301" style="stop-color:#A0C441"/>
      <stop offset="0.4" style="stop-color:#89B546"/>
      <stop offset="0.5" style="stop-color:#66A645"/>
      <stop offset="0.6" style="stop-color:#459F47"/>
      <stop offset="0.6976" style="stop-color:#219540"/>
      <stop offset="0.8" style="stop-color:#139246"/>
      <stop offset="0.9" style="stop-color:#088147"/>
      <stop offset="1" style="stop-color:#176D3E"/>
    </linearGradient>
    <path id="path3164" class="st2" d="M-149.5,319.3c-5.6,0-8.7-3.9-8.7-8c0-2.6,1.7-5.5,4.8-7c-1.2,7.2,4.9,13.1,13.8,11.4    C-141.6,317.2-145.9,319.3-149.5,319.3L-149.5,319.3z"/>
  </g>
</g>
</svg>
