<!-- Generated by IcoMoon.io -->
<svg version="1.1" xmlns="http://www.w3.org/2000/svg" width="1024" height="1024" viewBox="0 0 1024 1024">
<title></title>
<g id="icomoon-ignore">
</g>
<path fill="#000" d="M512 0.001c-282.879 0-511.999 229.248-511.999 511.999 0 226.26 146.687 418.132 350.080 485.76 25.6 4.82 34.988-11.007 34.988-24.618 0-12.16-0.427-44.373-0.639-87.042-142.421 30.891-172.459-68.694-172.459-68.694-23.295-59.094-56.961-74.881-56.961-74.881-46.379-31.745 3.583-31.103 3.583-31.103 51.414 3.583 78.42 52.736 78.42 52.736 45.652 78.292 119.85 55.68 149.119 42.58 4.608-33.115 17.792-55.68 32.421-68.479-113.707-12.8-233.21-56.833-233.21-253.014 0-55.889 19.84-101.547 52.692-137.386-5.759-12.928-23.040-64.981 4.481-135.509 0 0 42.88-13.739 140.8 52.48 40.959-11.387 84.483-17.025 128-17.28 43.519 0.256 87.042 5.887 128 17.28 97.281-66.219 140.161-52.48 140.161-52.48 27.52 70.528 10.24 122.581 5.12 135.509 32.64 35.839 52.48 81.494 52.48 137.386 0 196.692-119.685 239.999-233.601 252.587 17.92 15.36 34.561 46.762 34.561 94.721 0 68.523-0.639 123.564-0.639 140.202 0 13.439 8.961 29.441 35.2 24.321 204.843-67.157 351.402-259.156 351.402-485.077 0-282.751-229.248-511.999-511.999-511.999z"></path>
</svg>
