<svg xmlns:rdf="http://www.w3.org/1999/02/22-rdf-syntax-ns#" xmlns:dc="http://purl.org/dc/elements/1.1/" xmlns:cc="http://creativecommons.org/ns#" xmlns="http://www.w3.org/2000/svg" xmlns:xlink="http://www.w3.org/1999/xlink" version="1.1" id="Layer_1" x="0px" y="0px" viewBox="-255 299 188.1 103.8" style="enable-background:new -255 299 188.1 103.8;" xml:space="preserve">
<style type="text/css">
  .st0{fill:#112A3E;}
</style>
<g transform="matrix(1.25 0 0 -1.25 -392.28 383.87)">
  <path class="st0" d="M181.2,56.3l1.3-4.4l0,0c-0.1-0.1-0.3-0.2-0.3-0.3l0,0l-3.4,1.1v-5.1l3.4,1.8l0,0c0.1-0.1,0.2-0.3,0.3-0.3   l-2-6l0,0l0,0c-0.1-0.3-0.1-0.6-0.1-1c0-1.6,1.2-3,2.8-3.1h0.1c0.1,0,0.3,0,0.4,0c0.1,0,0.3,0,0.4,0h0.1c1.5,0.3,2.8,1.5,2.8,3.1   c0,0.3-0.1,0.6-0.1,1l0,0l0,0l-2,6c0.1,0.1,0.3,0.2,0.4,0.3l0,0l3.4-1.8v5.1l-3.4-1.1l0,0c-0.1,0.1-0.2,0.3-0.3,0.3l0,0l1.3,4.4   h-2.5C183.6,56.3,181.2,56.3,181.2,56.3z M157.7,9.7c-1,0-1.8-0.2-2.6-0.5c-0.8-0.3-1.4-0.8-1.9-1.4s-1-1.3-1.2-2.1   c-0.3-0.8-0.4-1.7-0.4-2.6s0.1-1.8,0.4-2.6c0.3-0.8,0.6-1.5,1.2-2.1c0.5-0.6,1.1-1.1,1.9-1.4c0.7-0.3,1.5-0.5,2.5-0.5   c0.4,0,0.8,0.1,1.2,0.1c0.4,0.1,0.7,0.2,1,0.3c0.3,0.1,0.6,0.3,0.8,0.5c0.3,0.2,0.4,0.4,0.6,0.7v-1.5h2.3v7.1h-5.9v-2h3.3V1.6   c0-0.3-0.1-0.6-0.1-0.9c-0.1-0.3-0.3-0.6-0.5-0.9c-0.3-0.3-0.5-0.5-0.9-0.7c-0.4-0.2-0.9-0.3-1.5-0.3s-1.2,0.1-1.5,0.4   c-0.4,0.3-0.8,0.6-1.1,1c-0.3,0.4-0.5,0.8-0.6,1.3s-0.2,1-0.2,1.6v0.1c0,0.5,0.1,1.1,0.2,1.6s0.3,1,0.6,1.3c0.3,0.4,0.6,0.7,1.1,1   c0.4,0.3,1,0.4,1.5,0.4c0.4,0,0.7-0.1,1-0.1c0.3-0.1,0.6-0.3,0.8-0.4c0.3-0.2,0.4-0.4,0.6-0.6s0.3-0.5,0.5-0.8l2.3,1.3   c-0.2,0.4-0.5,0.8-0.8,1.2s-0.8,0.7-1.2,1c-0.4,0.3-1,0.4-1.5,0.6C159,9.7,158.4,9.7,157.7,9.7z M171.1,9.7c-1,0-1.8-0.2-2.6-0.5   c-0.8-0.3-1.4-0.8-1.9-1.4s-1-1.3-1.2-2.1s-0.4-1.7-0.4-2.6s0.1-1.8,0.4-2.6c0.3-0.8,0.7-1.5,1.2-2.1c0.5-0.6,1.2-1.1,1.9-1.4   c0.8-0.3,1.6-0.5,2.6-0.5c1,0,1.8,0.2,2.6,0.5s1.4,0.8,1.9,1.4c0.5,0.6,1,1.3,1.2,2.1s0.4,1.7,0.4,2.6c0,0.9-0.1,1.8-0.4,2.6   c-0.3,0.8-0.7,1.5-1.2,2.1c-0.5,0.6-1.2,1.1-1.9,1.4C172.9,9.5,172.1,9.7,171.1,9.7z M194.8,9.5V1.1c0-0.7,0.1-1.3,0.4-1.9   c0.3-0.6,0.6-1.1,1.1-1.5c0.4-0.4,1-0.7,1.7-1c0.6-0.2,1.3-0.3,2.1-0.3s1.5,0.1,2.1,0.3c0.6,0.2,1.2,0.5,1.7,1   c0.4,0.4,0.8,0.9,1.1,1.5c0.3,0.6,0.4,1.2,0.4,1.9v8.4h-2.6v-8c0-0.4-0.1-0.9-0.2-1.2s-0.3-0.6-0.6-0.8c-0.3-0.3-0.5-0.4-0.8-0.5   c-0.3-0.1-0.7-0.2-1-0.2c-0.4,0-0.7,0.1-1,0.2c-0.3,0.1-0.6,0.3-0.8,0.5c-0.3,0.3-0.4,0.5-0.6,0.8c-0.1,0.3-0.2,0.8-0.2,1.2v8   L194.8,9.5L194.8,9.5z M178.2,9.5l3.7-12.9h3.5l3.7,12.9h-2.9l-2.4-9.7h-0.1l-2.5,9.7H178.2L178.2,9.5z M207.8,9.5V-3.4h2.6v3.9   l1.7,1.9l3.4-5.8h3l-4.8,7.8l4.5,5.1h-3.2l-4.6-5.6v5.6H207.8L207.8,9.5z M168.9,49.8c-1,0-2.1-0.6-2.5-1.7c-0.6-1.3,0.1-3,1.5-3.5   c1.4-0.6,3,0.1,3.5,1.5c0.6,1.3-0.1,3-1.5,3.5C169.6,49.8,169.2,49.8,168.9,49.8z M198.4,49.8c-0.3,0-0.7-0.1-1-0.2   c-1.4-0.6-2.1-2.2-1.5-3.5c0.6-1.3,2.1-2.1,3.5-1.5c1.3,0.6,2.1,2.1,1.5,3.5C200.5,49.1,199.5,49.8,198.4,49.8z M175.7,47.7   c-1,0-2.1-0.6-2.5-1.7c-0.6-1.3,0.1-3,1.5-3.5c1.4-0.6,3,0.1,3.5,1.5c0.6,1.3-0.1,3-1.5,3.5C176.4,47.6,176,47.7,175.7,47.7z    M191.6,47.7c-0.3,0-0.7-0.1-1-0.2c-1.4-0.6-2.1-2.2-1.5-3.5c0.6-1.3,2.2-2.1,3.5-1.5c1.3,0.6,2.1,2.1,1.5,3.5   C193.7,47,192.7,47.7,191.6,47.7z M162.7,46.2c-1,0-2.1-0.6-2.5-1.7c-0.6-1.3,0.1-3,1.5-3.5s3,0.1,3.5,1.5c0.6,1.3-0.1,3-1.5,3.5   C163.4,46.2,163.1,46.2,162.7,46.2z M204.6,46.2c-0.3,0-0.7-0.1-1-0.2c-1.4-0.6-2.1-2.2-1.5-3.5c0.6-1.3,2.1-2.1,3.5-1.5   c1.3,0.6,2.1,2.1,1.5,3.5C206.7,45.5,205.6,46.2,204.6,46.2z M171.1,7.3c0.6,0,1.1-0.1,1.5-0.3c0.4-0.2,0.8-0.5,1.1-0.9   c0.3-0.4,0.5-0.8,0.6-1.3s0.3-1.1,0.3-1.7V3c0-0.6-0.1-1.2-0.3-1.7c-0.1-0.5-0.4-1-0.6-1.3c-0.3-0.4-0.6-0.6-1.1-0.9   c-0.4-0.2-0.9-0.3-1.5-0.3c-0.6,0-1.1,0.1-1.5,0.3c-0.4,0.2-0.8,0.5-1.1,0.9c-0.3,0.4-0.5,0.8-0.6,1.3c-0.1,0.5-0.3,1.1-0.3,1.7   v0.1c0,0.6,0.1,1.2,0.3,1.7c0.1,0.5,0.4,1,0.6,1.3c0.3,0.4,0.6,0.6,1.1,0.9C170,7.2,170.5,7.3,171.1,7.3z M160.9,39.4   c-1,0-2.1-0.6-2.5-1.7c-0.6-1.3,0.1-3,1.5-3.5c1.4-0.6,3,0.1,3.5,1.5c0.6,1.3-0.1,3-1.5,3.5C161.6,39.3,161.3,39.4,160.9,39.4z    M206.4,39.4c-0.3,0-0.7-0.1-1-0.2c-1.4-0.6-2.1-2.2-1.5-3.5c0.6-1.3,2.2-2.1,3.5-1.5c1.3,0.6,2.1,2.1,1.5,3.5   C208.5,38.7,207.4,39.4,206.4,39.4z M170.7,38.7c-2.2-3-1.9-5.4,0.8-8.2c-1.8,1-4.6-0.1-3-3.4c0.8,2.1,2.7,1.6,3.1-0.2   c0.3-1.3-0.5-2.8-2.2-3.1c-1.3-0.3-3.5,0.7-5.2,4.4c1,0,1.8-0.5,2.9-1.3l-1.8,6c-0.4-1.7-1-2.8-1.6-3.3c-0.4,1.2-0.3,2.1,0,3.9   l-3.7-1.3c1.9-2.7,3.9-6.4,5.4-13c5.5,0.8,11.6,1.2,18.2,1.2c6.5,0,12.6-0.4,18.2-1.2c1.5,6.5,3.5,10.3,5.4,13l-3.7,1.3   c0.4-1.9,0.4-2.8,0-3.9c-0.6,0.6-1.2,1.7-1.6,3.3l-1.8-6c1.1,0.8,1.9,1.2,2.9,1.3c-1.7-3.7-3.9-4.6-5.2-4.4   c-1.7,0.3-2.4,1.8-2.2,3.1c0.4,1.8,2.2,2.2,3.1,0.2c1.7,3.3-1.2,4.4-3,3.4c2.8,2.8,3.1,5.2,0.8,8.2c-3.1-2.4-3.1-4.8-1.7-8   c-1.8,2.1-4.6,1-3.7-2.4c1.3,2.1,3,0.8,2.8-1.2c-0.3-1.7-2.4-3-5.2-2.8c-4,0.4-4.2,3.1-4.3,5.3c1,0.2,2.7-0.7,4.2-2.8l0.6,6.3   c-1.6-1.7-3.1-2-4.8-2.1c0.6,1.7,3.1,4.5,3.1,4.5H184l0,0h-4.2c0,0,2.5-2.8,3.1-4.5c-1.7,0.1-3.1,0.4-4.8,2.1l0.6-6.3   c1.5,2.1,3.3,3,4.2,2.8c-0.1-2.2-0.3-5-4.3-5.3c-2.8-0.3-5,1.1-5.2,2.8c-0.3,1.9,1.5,3.2,2.8,1.2c1,3.3-1.8,4.5-3.7,2.4   C173.9,33.9,173.8,36.3,170.7,38.7L170.7,38.7z M191.1-0.3c-0.2,0-0.4-0.1-0.6-0.1c-0.2-0.1-0.4-0.2-0.5-0.3   c-0.1-0.1-0.3-0.3-0.4-0.5c-0.1-0.2-0.1-0.4-0.1-0.6s0.1-0.4,0.1-0.6c0.1-0.2,0.2-0.4,0.4-0.5c0.1-0.1,0.3-0.3,0.5-0.3   c0.2-0.1,0.4-0.1,0.6-0.1c0.3,0,0.4,0.1,0.6,0.1c0.2,0.1,0.4,0.2,0.5,0.3s0.3,0.3,0.4,0.5c0.1,0.2,0.1,0.4,0.1,0.6   c0,0.2-0.1,0.4-0.1,0.6s-0.2,0.4-0.4,0.5c-0.1,0.1-0.3,0.3-0.5,0.3S191.3-0.3,191.1-0.3z"/>
</g>
</svg>
