<svg xmlns:rdf="http://www.w3.org/1999/02/22-rdf-syntax-ns#" xmlns:dc="http://purl.org/dc/elements/1.1/" xmlns:cc="http://creativecommons.org/ns#" xmlns="http://www.w3.org/2000/svg" xmlns:xlink="http://www.w3.org/1999/xlink" version="1.1" id="Layer_1" x="0px" y="0px" viewBox="-255 299 188.1 103.8" style="enable-background:new -255 299 188.1 103.8;" xml:space="preserve">
<style type="text/css">
  .st0{fill:#7F3F98;}
  .st1{enable-background:new    ;}
</style>
<rect x="-236.4" y="319.6" class="st0" width="2.2" height="64.1"/>
<path d="M-212.7,322.5v1.3c0.7,0,1.1,0.2,1.4,0.2C-211.5,323.3-212,322.7-212.7,322.5"/>
<path d="M-213.5,321.6L-213.5,321.6c0,0.4-0.1,0.7-0.2,0.9c0,0,0.2-0.1,0.5-0.1c0.2,0,0.5,0.1,0.5,0.1c-0.1-0.2-0.2-0.5-0.2-0.9l0,0  c1,0,1.2,0.4,1.2,0.8h0.2v-1.1v-1.1h-0.2c0,0.4-0.3,0.8-1.2,0.8c0-1,0.4-1.2,0.8-1.2v-0.2h-1.1h-1.1v0.2c0.4,0,0.8,0.3,0.8,1.2  c-1,0-1.2-0.4-1.2-0.8h-0.2v1.1v1.1h0.2C-214.7,322-214.5,321.6-213.5,321.6"/>
<path d="M-213.7,322.5c-0.7,0.2-1.2,0.8-1.4,1.5c0.3-0.1,0.7-0.2,1.4-0.2V322.5z"/>
<path d="M-212.6,354.4c0,0.4,0.4,0.8,0.8,0.8c0.4,0,0.8-0.4,0.8-0.8s-0.4-0.8-0.8-0.8C-212.2,353.6-212.6,353.9-212.6,354.4   M-212.1,354.4c0-0.2,0.2-0.4,0.4-0.4c0.2,0,0.4,0.2,0.4,0.4s-0.2,0.4-0.4,0.4C-212,354.8-212.1,354.6-212.1,354.4"/>
<path d="M-214,343.7c0-0.4-0.3-0.7-0.7-0.7h-0.1h-4c-0.3,0-0.6,0.3-0.6,0.6c0,0.3,0.2,0.4,0.4,0.4c0.3,0,0.4-0.2,0.4-0.5  c0.1,0.1,0.2,0.2,0.3,0.2c-0.1,0.3-0.1,0.6-0.2,1c-0.1-0.1-0.2-0.1-0.3-0.1c-0.2,0-0.3,0.1-0.3,0.3c0,0.2,0.1,0.3,0.3,0.3  c0.1,0,0.2-0.1,0.3-0.1c0,0.2,0,0.4,0,0.7c-0.1,0-0.1-0.1-0.2-0.1c-0.2,0-0.3,0.1-0.3,0.3c0,0.2,0.1,0.3,0.3,0.3  c0.1,0,0.2-0.1,0.3-0.2c0,0,0,0.1,0,0.1c0.1,0.2,0.1,0.4,0.2,0.5c0,0-0.1,0-0.2,0c-0.2,0-0.3,0.1-0.3,0.3c0,0.2,0.1,0.3,0.3,0.3  c0.2,0,0.3-0.1,0.3-0.3c0.1,0.2,0.2,0.4,0.4,0.6c0,0,0,0-0.1,0c-0.2,0-0.3,0.1-0.3,0.3c0,0.2,0.1,0.3,0.3,0.3c0.2,0,0.3-0.1,0.3-0.3  c0,0,0,0,0,0c0.5,0.5,1.1,0.9,1.8,1.2l-0.1,0.9c0,0,0.3,0.1,0.7,0.3c0.4,0.1,0.8,0.2,0.8,0.2L-214,343.7z M-217.7,344.1  C-217.7,344.1-217.7,344.1-217.7,344.1l2.3,4.6C-218.2,347.4-217.9,345.1-217.7,344.1 M-215.4,348.3l-2-4.1c0.1,0,0.3,0,0.4,0  l1.8,3.5L-215.4,348.3z M-215.3,347.4l-1.6-3.2c0.1,0,0.2,0,0.3-0.1l1.3,2.7L-215.3,347.4z M-215.1,346.5l-1.2-2.4  c0.1,0,0.2-0.1,0.3-0.1l1,1.9L-215.1,346.5z M-215,345.6l-0.8-1.7c0.1-0.1,0.2-0.1,0.3-0.2l0.7,1.3L-215,345.6z M-214.8,344  l-0.1,0.7l-0.5-1.1c0.1,0,0.1,0,0.2,0C-215,343.5-214.8,343.8-214.8,344"/>
<path d="M-216.7,325.6c0-0.3,0.2-0.5,0.5-0.5s0.5,0.2,0.5,0.5c0,0.3-0.2,0.5-0.5,0.5C-216.5,326.1-216.7,325.8-216.7,325.6"/>
<path d="M-223,328.9c0-0.3,0.2-0.5,0.5-0.5c0.3,0,0.5,0.2,0.5,0.5c0,0.3-0.2,0.5-0.5,0.5C-222.8,329.4-223,329.1-223,328.9"/>
<path d="M-223.2,327.7c0-0.3,0.2-0.5,0.5-0.5c0.3,0,0.5,0.2,0.5,0.5s-0.2,0.5-0.5,0.5C-223,328.2-223.2,327.9-223.2,327.7"/>
<path d="M-223.1,326.4c0-0.3,0.2-0.5,0.5-0.5c0.3,0,0.5,0.2,0.5,0.5s-0.2,0.5-0.5,0.5S-223.1,326.7-223.1,326.4"/>
<path d="M-222.5,325.4c0-0.3,0.2-0.5,0.5-0.5c0.3,0,0.5,0.2,0.5,0.5s-0.2,0.5-0.5,0.5C-222.3,325.9-222.5,325.6-222.5,325.4"/>
<path d="M-221.5,324.6c0-0.3,0.2-0.5,0.5-0.5c0.3,0,0.5,0.2,0.5,0.5c0,0.3-0.2,0.5-0.5,0.5C-221.3,325.1-221.5,324.9-221.5,324.6"/>
<path d="M-220.2,324.4c0-0.3,0.2-0.5,0.5-0.5c0.3,0,0.5,0.2,0.5,0.5s-0.2,0.5-0.5,0.5C-220,324.9-220.2,324.7-220.2,324.4"/>
<path d="M-219.1,324.7c0-0.3,0.2-0.5,0.5-0.5c0.3,0,0.5,0.2,0.5,0.5s-0.2,0.5-0.5,0.5C-218.8,325.2-219.1,325-219.1,324.7"/>
<path d="M-217.9,325.1c0-0.3,0.2-0.5,0.5-0.5c0.3,0,0.5,0.2,0.5,0.5c0,0.3-0.2,0.5-0.5,0.5S-217.9,325.4-217.9,325.1"/>
<path d="M-209.8,325.6c0-0.3-0.2-0.5-0.5-0.5c-0.3,0-0.5,0.2-0.5,0.5c0,0.3,0.2,0.5,0.5,0.5C-210,326.1-209.8,325.8-209.8,325.6"/>
<path d="M-203.5,328.9c0-0.3-0.2-0.5-0.5-0.5c-0.3,0-0.5,0.2-0.5,0.5c0,0.3,0.2,0.5,0.5,0.5C-203.7,329.4-203.5,329.1-203.5,328.9"/>
<path d="M-203.3,327.7c0-0.3-0.2-0.5-0.5-0.5c-0.3,0-0.5,0.2-0.5,0.5s0.2,0.5,0.5,0.5C-203.5,328.2-203.3,327.9-203.3,327.7"/>
<path d="M-203.4,326.4c0-0.3-0.2-0.5-0.5-0.5c-0.3,0-0.5,0.2-0.5,0.5s0.2,0.5,0.5,0.5C-203.6,326.9-203.4,326.7-203.4,326.4"/>
<path d="M-204,325.4c0-0.3-0.2-0.5-0.5-0.5c-0.3,0-0.5,0.2-0.5,0.5s0.2,0.5,0.5,0.5C-204.2,325.9-204,325.6-204,325.4"/>
<path d="M-205,324.6c0-0.3-0.2-0.5-0.5-0.5c-0.3,0-0.5,0.2-0.5,0.5c0,0.3,0.2,0.5,0.5,0.5C-205.2,325.1-205,324.9-205,324.6"/>
<path d="M-206.2,324.4c0-0.3-0.2-0.5-0.5-0.5c-0.3,0-0.5,0.2-0.5,0.5s0.2,0.5,0.5,0.5C-206.5,324.9-206.2,324.7-206.2,324.4"/>
<path d="M-207.5,324.7c0-0.3-0.2-0.5-0.5-0.5c-0.3,0-0.5,0.2-0.5,0.5s0.2,0.5,0.5,0.5C-207.7,325.2-207.5,325-207.5,324.7"/>
<path d="M-208.6,325.1c0-0.3-0.2-0.5-0.5-0.5c-0.3,0-0.5,0.2-0.5,0.5c0,0.3,0.2,0.5,0.5,0.5C-208.8,325.6-208.6,325.4-208.6,325.1"/>
<path d="M-209.1,332.5c0-0.3-0.3-0.5-0.5-0.5c-0.3,0-0.5,0.3-0.5,0.5s0.3,0.5,0.5,0.5C-209.4,333-209.1,332.8-209.1,332.5"/>
<path d="M-212.6,335.7v6.1h5.4v-6.1H-212.6z M-207.3,341.6h-5.1v-5.7h2h0.8h2.3L-207.3,341.6L-207.3,341.6z"/>
<path d="M-211.9,336.1L-211.9,336.1h-0.3v5v0.3h0.3h4h0.3v-0.3v-4.7v-0.3h-0.3h-1.7h-0.9H-211.9z M-207.9,336.2v0.2h0.2v4.7h-0.2  v0.2h-4v-0.2h-0.2v-4.7h0.2v-0.2H-207.9z"/>
<path d="M-208.1,337.6l-0.3,0.3l0,0c0,0,0,0,0,0l0,0l-0.5,0.4c-0.2,0.1-0.2,0.3-0.1,0.5l0.3,0.4c0,0,0,0.1,0,0.1c0,0,0,0.1-0.1,0.1  c0,0-0.1,0-0.1,0c0,0-0.1,0-0.1-0.1c0,0-0.3-0.4-0.4-0.6v-0.5l0.7-0.6v-0.5l-0.2-0.2l0.3-0.3h-1.2l-0.3,0.3v0.3c0,0,0.1,0,0.1,0  c0.1,0,0.3,0.1,0.3,0.3s-0.1,0.3-0.3,0.3c0,0-0.1,0-0.1,0v0.4h-0.4l-0.5-0.7c0.1-0.1,0.1-0.2,0.1-0.3c0-0.2-0.2-0.3-0.3-0.3  c-0.1,0-0.1,0-0.2,0.1v0.2v0.3v0c0,0,0,0,0,0l0.4,0.6l0.2,0.3h0.4h0.1l-0.3,0.3h-0.6c0-0.1-0.2-0.2-0.3-0.2s-0.3,0.1-0.3,0.2  c0,0,0,0.1,0,0.1c0,0.1,0,0.2,0.1,0.2h0.5h0.8l0.2,0.3h-0.5h-0.4l0,0l0.3,0.5l0.2,0.3h-0.4c0-0.1-0.2-0.2-0.3-0.2  c-0.1,0-0.3,0.1-0.3,0.2c0,0,0,0.1,0,0.1c0,0.1,0,0.2,0.1,0.2h0.5h0.8h0.4l-0.2-0.3l-0.2-0.3h0.5l0.2,0.3l0.2,0.3h0.7h0.1v0.3h-0.1  c0-0.1-0.2-0.2-0.3-0.2s-0.3,0.1-0.3,0.2c0,0,0,0.1,0,0.1c0,0.1,0,0.2,0.1,0.2h0.9v-0.7V340h-0.3h-0.3l-0.3-0.4  c0.1,0.1,0.1,0.1,0.2,0.1s0.2,0,0.3-0.1s0.1-0.2,0.2-0.3c0-0.1,0-0.2-0.1-0.3l-0.3-0.4c-0.1-0.1,0-0.2,0-0.2c0,0,0.1-0.1,0.1-0.1  c0.1,0.1,0.3,0.1,0.4,0c0.1-0.1,0.1-0.1,0.1-0.2l0,0l0,0L-208.1,337.6z"/>
<polygon points="-214,332.5 -213.2,331.8 -212.5,332.5 -213.2,333.2 "/>
<path d="M-217.4,332.5c0-0.3,0.3-0.5,0.5-0.5c0.3,0,0.5,0.3,0.5,0.5s-0.3,0.5-0.5,0.5C-217.1,333-217.4,332.8-217.4,332.5"/>
<path d="M-207.6,346.2L-207.6,346.2L-207.6,346.2c0-0.1,0-0.1,0-0.2c0-0.2-0.2-0.4-0.4-0.4h-1.4c0-0.2-0.2-0.3-0.3-0.3  c-0.1,0-0.2,0-0.2,0.1l-0.4,0.4h0.4l0,0h0.5h1.4c0.1,0,0.2,0.1,0.2,0.2s-0.1,0.2-0.2,0.2l0,0h-0.9l0,0h-1.8v-0.4l0.5-0.5h-1.9  l0.5,0.5v0.7l-0.8-0.6c0.1-0.1,0.1-0.2,0.1-0.3c0-0.2-0.2-0.3-0.3-0.3c-0.1,0-0.2,0-0.2,0.1v0.5l0,0v0.1l1.2,0.9l-0.5,0.2  c0-0.1-0.2-0.2-0.3-0.2c-0.2,0-0.3,0.2-0.3,0.3c0,0.1,0,0.2,0.1,0.2h0.4h0.3l2.9-0.9v0.4l-0.4,0.2c0-0.2-0.2-0.3-0.3-0.3  c-0.2,0-0.3,0.2-0.3,0.3c0,0.1,0,0.2,0.1,0.2h0.3h0.4l0.4-0.2l0.3-0.1l-0.1-0.3v-0.1h1.1c0,0,0,0.1,0,0.1c0,0.1-0.1,0.2-0.1,0.2  c-0.1-0.1-0.2-0.1-0.3-0.1c-0.2,0-0.3,0.2-0.3,0.3c0,0.1,0,0.2,0.1,0.2h0.5h0.2c0.1-0.2,0.2-0.4,0.2-0.5c0.1-0.3,0.2-0.5,0.2-0.6  C-207.2,346.2-207.6,346.2-207.6,346.2 M-211,346.2l-0.3-0.3h0.6L-211,346.2z"/>
<path d="M-207.5,343.9c0-0.1,0-0.1,0-0.2c0-0.2-0.2-0.4-0.4-0.4h-1.4c0-0.2-0.2-0.3-0.3-0.3c-0.1,0-0.2,0-0.2,0.1l-0.4,0.4h0.4l0,0  h0.5h1.5c0.1,0,0.2,0.1,0.2,0.2c0,0.1-0.1,0.2-0.2,0.2h-1h-1.8v-0.4l0.5-0.5h-1.9l0.5,0.5v0.7l-0.8-0.6c0.1-0.1,0.1-0.2,0.1-0.2  c0-0.2-0.2-0.3-0.3-0.3c-0.1,0-0.2,0-0.2,0.1v0.5v0.1l1.1,0.9l-0.5,0.2c0-0.1-0.2-0.2-0.3-0.2c-0.2,0-0.3,0.2-0.3,0.3  c0,0.1,0,0.2,0.1,0.2h0.5h0.2l2.9-0.9v0.5l-0.4,0.1c0-0.1-0.2-0.2-0.3-0.2c-0.2,0-0.3,0.2-0.3,0.3c0,0.1,0,0.2,0.1,0.2h0.5h0.2  l0.7-0.2l0.3-0.1l-0.3-0.3l-0.2-0.2h1.3v0.3c-0.1-0.1-0.2-0.1-0.3-0.1c-0.2,0-0.3,0.2-0.3,0.3c0,0.1,0,0.2,0.1,0.2h0.5h0.3v-0.8V344  v-0.2L-207.5,343.9L-207.5,343.9z M-211,343.9l-0.3-0.3h0.6L-211,343.9z"/>
<path d="M-208.7,347.9h-0.6c0-0.2-0.2-0.3-0.3-0.3c-0.1,0-0.2,0-0.2,0.1l-0.4,0.4h0.4l0,0h0.5h0.6c0.1,0,0.2,0.1,0.2,0.2  c0,0.1-0.1,0.2-0.2,0.2h-0.9h-0.9v-0.3l0.5-0.5h-1.9l0.5,0.5v0.8l-0.8-0.7c0.1-0.1,0.1-0.2,0.1-0.3c0-0.2-0.2-0.3-0.3-0.3  c-0.1,0-0.2,0-0.2,0.1v0.3v0.2l1.2,1.1l0.1-0.1l-0.8,0.9c-0.1-0.1-0.2-0.1-0.2-0.1c-0.2,0-0.3,0.2-0.3,0.3c0,0.1,0,0.1,0.1,0.2  c0.1,0,0.3,0,0.5-0.1l0.8-1c0.1,0,0.2-0.1,0.3-0.1l0.3,0.3c-0.1,0-0.1,0.1-0.2,0.1c-0.1-0.1-0.2-0.1-0.3-0.1  c-0.2,0.1-0.3,0.3-0.2,0.4c0,0.1,0.1,0.1,0.1,0.1c0,0,0.1,0,0.3-0.1c0.1-0.1,0.3-0.1,0.3-0.1l0,0c0.2-0.1,0.3-0.1,0.4-0.2v-0.4v-0.5  c0.2-0.1,0.4-0.3,0.6-0.4l0.3,0.3c-0.1,0.1-0.1,0.1-0.2,0.2c-0.1-0.1-0.2-0.1-0.3,0c-0.1,0-0.1,0.1-0.2,0.2c0,0,0,0.1,0,0.1  s0,0.1,0,0.1c0,0.1,0.1,0.1,0.2,0.1c0.2-0.1,0.3-0.2,0.4-0.3c0.1-0.1,0.2-0.2,0.3-0.3c0,0,0.1-0.1,0.1-0.1v-0.3v-0.1h0.2  c0.2,0,0.4-0.2,0.4-0.4C-208.3,348.1-208.5,347.9-208.7,347.9 M-211.3,349.1L-211.3,349.1L-211.3,349.1z M-211,348.5l-0.3-0.3h0.6  L-211,348.5z"/>
<path d="M-214.2,340.8c0-0.1,0-0.1,0-0.2c0-0.2-0.2-0.4-0.4-0.4h-1.4c0-0.2-0.2-0.3-0.3-0.3c-0.1,0-0.2,0-0.2,0.1l-0.4,0.4h0.4l0,0  c0,0,0.5,0,0.5,0h1.5c0.1,0,0.2,0.1,0.2,0.2s-0.1,0.2-0.2,0.2h-1l0,0h-1.8v-0.4l0.5-0.5h-1.9l0.5,0.5v0.7l-0.8-0.6  c0.1-0.1,0.1-0.2,0.1-0.2c0-0.2-0.2-0.3-0.3-0.3c-0.1,0-0.2,0-0.2,0.1v0.5v0.1l1.1,0.9l-0.5,0.2c0-0.1-0.2-0.2-0.3-0.2  c-0.2,0-0.3,0.2-0.3,0.3c0,0.1,0,0.2,0.1,0.2c0,0,0.4,0,0.5,0h0.2l2.9-0.9v0.5l-0.4,0.1c0-0.1-0.2-0.2-0.3-0.2  c-0.2,0-0.3,0.2-0.3,0.3c0,0.1,0,0.2,0.1,0.2c0,0,0.4,0,0.5,0h0.2l0.7-0.2l0.3-0.1l-0.3-0.3l-0.2-0.2h1.3v0.3  c-0.1-0.1-0.2-0.1-0.3-0.1c-0.2,0-0.3,0.2-0.3,0.3c0,0.1,0,0.2,0.1,0.2h0.5h0.3v-0.8v-0.4H-214.2z M-217.8,340.8l-0.3-0.3h0.6  L-217.8,340.8z"/>
<path d="M-214.2,338.6c0-0.1,0-0.1,0-0.2c0-0.2-0.2-0.4-0.4-0.4h-1.4c0-0.2-0.2-0.3-0.3-0.3c-0.1,0-0.2,0-0.2,0.1l-0.4,0.4h0.4l0,0  h0.5h1.5c0.1,0,0.2,0.1,0.2,0.2s-0.1,0.2-0.2,0.2h-1h-1.8v-0.4l0.5-0.5h-1.9l0.5,0.5v0.7l-0.8-0.6c0.1-0.1,0.1-0.2,0.1-0.2  c0-0.2-0.2-0.3-0.3-0.3c-0.1,0-0.2,0-0.2,0.1v0.5v0.1l1.1,0.9l-0.5,0.2c0-0.1-0.2-0.2-0.3-0.2c-0.2,0-0.3,0.2-0.3,0.3  c0,0.1,0,0.2,0.1,0.2h0.5h0.2l2.9-0.9v0.5l-0.4,0.1c0-0.1-0.2-0.2-0.3-0.2c-0.2,0-0.3,0.2-0.3,0.3c0,0.1,0,0.2,0.1,0.2h0.5h0.2  l0.7-0.2l0.3-0.1l-0.3-0.3l-0.2-0.2h1.3v0.3c-0.1-0.1-0.2-0.1-0.3-0.1c-0.2,0-0.3,0.2-0.3,0.3c0,0.1,0,0.2,0.1,0.2h0.5h0.3v-0.8  v-0.4L-214.2,338.6C-214.2,338.5-214.2,338.6-214.2,338.6z M-217.8,338.6l-0.3-0.3h0.6L-217.8,338.6z"/>
<path d="M-214.2,336.3c0-0.1,0-0.1,0-0.2c0-0.2-0.2-0.4-0.4-0.4h-1.4c0-0.2-0.2-0.3-0.3-0.3c-0.1,0-0.2,0-0.2,0.1l-0.4,0.4h0.4l0,0  c0,0,0.4,0,0.5,0h1.5c0.1,0,0.2,0.1,0.2,0.2s-0.1,0.2-0.2,0.2l0,0h-1l0,0h-1.8v-0.4l0.5-0.5h-1.9l0.5,0.5v0.7l-0.8-0.6  c0.1-0.1,0.1-0.2,0.1-0.2c0-0.2-0.2-0.3-0.3-0.3c-0.1,0-0.2,0-0.2,0.1v0.5v0.1l1.1,0.9l-0.5,0.2c0-0.1-0.2-0.2-0.3-0.2  c-0.2,0-0.3,0.2-0.3,0.3c0,0.1,0,0.2,0.1,0.2c0,0,0.5,0,0.5,0h0.2l2.9-0.9v0.5l-0.4,0.1c0-0.1-0.2-0.2-0.3-0.2  c-0.2,0-0.3,0.2-0.3,0.3c0,0.1,0,0.2,0.1,0.2c0,0,0.5,0,0.5,0h0.2l0.7-0.2l0.3-0.1l-0.3-0.3l-0.2-0.2h1.3v0.3  c-0.1-0.1-0.2-0.1-0.3-0.1c-0.2,0-0.3,0.2-0.3,0.3c0,0.1,0,0.2,0.1,0.2h0.5h0.3v-0.8v-0.4L-214.2,336.3L-214.2,336.3z M-217.8,336.4  l-0.3-0.3h0.6L-217.8,336.4z"/>
<path d="M-204.4,342.1L-204.4,342.1c0.2-0.1,0.3-0.3,0.3-0.5c0-0.1-0.1-0.2-0.2-0.2c-0.1-0.1-0.2-0.1-0.3,0c-0.1,0-0.2,0.1-0.2,0.2  c-0.1,0.1-0.1,0.2,0,0.3C-204.8,342-204.6,342.1-204.4,342.1"/>
<path d="M-205.5,342.9l0.1,0.3l1.3-0.2c0,0,1.3,0.6,1.3,0.6l-0.1-0.4c0,0-0.8-0.4-0.9-0.4c0.1-0.1,0.7-0.7,0.7-0.7l-0.1-0.4l0,0  c0,0-1,0.9-1,0.9C-204.3,342.7-205.5,342.9-205.5,342.9"/>
<path d="M-204.5,344.1c0,0.1,0,0.2,0.1,0.3c0.1,0.1,0.2,0.1,0.3,0.1c0.1,0,0.2,0,0.3-0.1c0.1-0.1,0.1-0.2,0.1-0.3  c0-0.1,0-0.2-0.1-0.3c-0.1-0.1-0.2-0.1-0.3-0.1C-204.4,343.7-204.5,343.9-204.5,344.1"/>
<path d="M-205.4,344.8l0,0.3c0,0,1,0.1,1,0.2c0,0,0,0.3,0,0.3c0,0.1,0,0.1,0,0.2c0,0.2,0,0.3,0.1,0.4s0.3,0.2,0.5,0.3  c0.4,0.1,0.8-0.2,0.8-0.6l0.1-0.7L-205.4,344.8L-205.4,344.8z M-203.4,345.4c0,0,0,0.3,0,0.3c0,0.3-0.3,0.3-0.4,0.3  c-0.2,0-0.3-0.2-0.3-0.3c0,0,0,0,0-0.1c0,0,0-0.3,0-0.3C-204,345.3-203.4,345.4-203.4,345.4"/>
<path d="M-205.6,346.2l-0.4,1.2l0.3,0.1c0,0,0.3-0.8,0.3-0.9c0,0,0.6,0.2,0.7,0.2c0,0.1-0.3,0.8-0.3,0.8l0.3,0.1  c0,0,0.3-0.8,0.3-0.8c0,0,0.6,0.2,0.6,0.2c0,0.1-0.3,0.8-0.3,0.8l0.3,0.1l0.4-1.2L-205.6,346.2L-205.6,346.2z"/>
<path d="M-206.1,347.6l-0.2,0.3c0,0,1.4,0.9,1.5,1c-0.2,0-2.2,0.2-2.2,0.2l-0.2,0.3l2.1,1.3l0.2-0.3c0,0-1.4-0.9-1.5-1  c0.2,0,2.3-0.2,2.3-0.2l0.2-0.3L-206.1,347.6L-206.1,347.6z"/>
<path d="M-206.9,350.5c-0.3,0-0.5,0.1-0.6-0.1c-0.1-0.1-0.1-0.3,0-0.4s0.4-0.2,0.6-0.2h0.1l-0.4-0.4l0,0c-0.3,0-0.4,0.1-0.6,0.3  c-0.1,0.1-0.2,0.3-0.2,0.4c0,0.2,0.1,0.3,0.2,0.5c0.3,0.3,0.7,0.3,1,0.2c0.2-0.1,0.4-0.1,0.6,0c0,0.1,0.1,0.1,0.1,0.2  c0,0.1,0,0.2-0.1,0.3c-0.1,0.1-0.3,0.2-0.5,0.2h-0.1l0.3,0.3l0,0c0.2,0,0.3-0.1,0.5-0.2c0.2-0.2,0.2-0.3,0.2-0.5s-0.1-0.3-0.2-0.5  C-206.3,350.4-206.6,350.5-206.9,350.5"/>
<path d="M-208.4,350.4l-1,0.7l0.2,0.3c0,0,0.7-0.5,0.8-0.5c0,0,0.3,0.5,0.4,0.6c0,0-0.7,0.5-0.7,0.5l0.2,0.3c0,0,0.7-0.5,0.7-0.5  c0,0,0.3,0.5,0.4,0.6c0,0-0.8,0.5-0.8,0.5l0.2,0.3l1-0.7L-208.4,350.4L-208.4,350.4z"/>
<path d="M-217.5,352.1c0,0-0.9-0.6-1-0.6c0,0,0.6-0.9,0.6-0.9l-0.3-0.2v0l-1.3,2l0.3,0.2c0,0,0.5-0.8,0.6-0.9c0,0,0.9,0.6,1,0.6  c0,0-0.6,0.9-0.6,0.9l0.3,0.2l1.3-2.1l-0.3-0.2C-216.9,351.2-217.5,352-217.5,352.1"/>
<path d="M-218.8,350.2c0-0.3-0.1-0.6-0.3-0.8c-0.5-0.6-1.3-0.5-1.7-0.1c-0.3,0.3-0.4,0.6-0.4,0.9c0,0.3,0.1,0.6,0.3,0.8  c0.4,0.5,1.2,0.5,1.7,0.1C-219,350.9-218.8,350.6-218.8,350.2 M-219.1,350.2c0,0.2-0.1,0.5-0.3,0.6c-0.4,0.3-0.9,0.3-1.2,0  c-0.2-0.2-0.2-0.4-0.2-0.6c0-0.2,0.1-0.4,0.3-0.6c0.2-0.2,0.4-0.3,0.7-0.3c0.2,0,0.4,0.1,0.5,0.3  C-219.2,349.8-219.1,350-219.1,350.2"/>
<path d="M-220.1,348.2c0,0-1.5,0.7-1.6,0.8c0.1-0.1,1-2,1-2l-0.1-0.3h0l-2.2,1l0.2,0.3c0,0,1.5-0.7,1.6-0.8c-0.1,0.1-1,2-1,2  l0.1,0.3l2.2-1L-220.1,348.2z"/>
<polygon points="-220.9,346 -220.9,346 -223.3,346.6 -223.2,346.9 -220.8,346.3 "/>
<path d="M-222,345.2c-0.1-0.1-0.2-0.1-0.3-0.1c-0.1,0-0.2,0.1-0.3,0.2s-0.1,0.2-0.1,0.3c0,0.1,0.1,0.2,0.2,0.3  c0.1,0.1,0.2,0.1,0.3,0.1c0.2,0,0.3-0.2,0.3-0.4C-221.9,345.3-221.9,345.2-222,345.2"/>
<path d="M-222.2,344.2c0.2-0.2,0.3-0.4,0.5-0.4c0.1,0,0.1,0,0.2,0.1s0.1,0.2,0.1,0.3c0,0.2-0.1,0.4-0.3,0.5l-0.1,0.1h0.5l0,0  c0.2-0.2,0.2-0.4,0.2-0.6c0-0.2-0.1-0.3-0.2-0.4c-0.1-0.1-0.3-0.2-0.5-0.2c-0.4,0-0.6,0.3-0.8,0.6c-0.1,0.2-0.2,0.4-0.4,0.4  c-0.1,0-0.1,0-0.2-0.1c-0.1-0.1-0.1-0.2-0.1-0.3c0-0.2,0.1-0.3,0.3-0.5l0.1,0h-0.5l0,0c-0.1,0.2-0.2,0.3-0.2,0.5  c0,0.2,0.1,0.4,0.2,0.5c0.1,0.1,0.3,0.2,0.5,0.2C-222.5,344.8-222.4,344.5-222.2,344.2"/>
<path d="M-222.3,343.2c0.3,0.1,0.7,0,1-0.1c0.3-0.2,0.4-0.4,0.5-0.7c0.1-0.3,0-0.6-0.1-0.9c-0.2-0.3-0.5-0.5-0.8-0.6  c-0.7-0.2-1.4,0.2-1.5,0.8c0,0.1,0,0.2,0,0.3c0,0.2,0.1,0.4,0.2,0.6C-222.9,342.9-222.7,343.1-222.3,343.2 M-222.9,341.8  c0.1-0.2,0.2-0.4,0.3-0.5c0.2-0.1,0.4-0.2,0.7-0.1c0.3,0.1,0.5,0.2,0.6,0.4c0.1,0.2,0.1,0.4,0.1,0.6c-0.1,0.4-0.6,0.7-1.1,0.6  C-222.7,342.7-223,342.3-222.9,341.8"/>
<path d="M-202,344.2c0-3-1.2-5.8-3.3-8c-0.3-0.3-0.5-0.5-0.8-0.7v-0.4c0.4,0,0.8-0.4,0.8-0.8c0-0.5-0.4-0.8-0.8-0.8c0,0,0,0-0.1,0  l0.8-0.4l-0.3-0.7l1.2-2.9l-0.5-0.2l-1.3,2.9l-0.7,0.3l0.4,0.9h-3.6h-6.4h-3.6l0.4-0.9l-0.7-0.3l-1.3-2.9l-0.5,0.2l1.2,2.9l-0.3,0.7  l0.8,0.4c0,0,0,0,0,0c-0.5,0-0.8,0.4-0.8,0.8c0,0.4,0.3,0.8,0.8,0.8v0.4c-0.3,0.2-0.5,0.5-0.8,0.7c-2.1,2.1-3.3,5-3.3,8  c0,2.3,0.7,4.6,2,6.5c1.3,1.9,3.1,3.3,5.2,4.1c0,0,0.1,0,0.3,0.1c0,0.3,0.2,0.6,0.5,0.7c0.3,0.1,0.7,0,0.8-0.2h0v3.2  c0,1.2,1,2.1,2.3,2.1s2.3-1,2.3-2.1v-2.1l5.5-2.6c0.2-0.1,0.3-0.2,0.5-0.3c0.4-0.4,0.5-1,0.2-1.9c0.5-0.6,0.9-1.2,1.3-1.8  C-202.5,348.1-202,346.2-202,344.2 M-207.8,333.9l1.6,0.3l-1.6,0.3V333.9z M-213.1,351.1v-8.5h6.5v1.6c0,1.6-0.3,2.6-0.7,3.4  c-0.3,0.6-0.8,1.1-1.3,1.6c0,0-0.1,0.1-0.1,0.1C-209.9,350.4-211.5,351-213.1,351.1 M-211.1,351.4c-0.1,0.3-0.2,0.6-0.3,0.9  c-0.6-0.2-1.2-0.4-1.8-0.7l0,0C-212.5,351.7-211.8,351.6-211.1,351.4 M-213.1,342.3v-7.2h5.5h1v5.7v1.5H-213.1z M-210.8,333.9  l1.6,0.3l-1.6,0.3V333.9z M-213.8,333.9l1.6,0.3l-1.6,0.3V333.9z M-216.9,333.9l1.6,0.3l-1.6,0.3V333.9z M-219.8,333.9l1.6,0.3  l-1.6,0.3V333.9z M-219.8,340.8v-5.7h1h5.5v7.2h-6.5V340.8z M-219.8,342.6h6.5v8.5c-1.3,0-2.6-0.4-3.7-1.2l0,0c0,0-0.1-0.1-0.1-0.1  l0,0c0,0-0.1,0-0.1-0.1s-0.1-0.1-0.1-0.1c0,0,0,0,0,0c-0.7-0.5-1.3-1.2-1.7-2c-0.4-0.8-0.7-1.9-0.7-3.4V342.6z M-216.8,354.3  c-0.1,0-0.2-0.1-0.3-0.1c-2-0.8-3.7-2.1-5-3.9c-1.3-1.8-1.9-3.9-1.9-6.2c0-2.9,1.1-5.5,3.1-7.6c0.1-0.1,0.3-0.3,0.4-0.3v2.9  c-0.4-0.3-0.9-0.6-1-0.7c0,0,0.4-0.6,0.4-0.6l-0.3-0.2v0l-1,1.5l0.3,0.2c0,0,0.4-0.6,0.4-0.6c0,0,0.7,0.4,1.2,0.8v1l-2.1-0.9v0  l-0.2,0.3l2.2,1v1.3c-0.2,0.6-0.3,1.2-0.3,1.9c0,1.4,0.4,2.6,1,3.7c0.4,0.8,0.9,1.3,1.4,1.8c0.2,0.2,0.4,0.4,0.7,0.6c0,0,0,0,0.1,0  c0,0,0.1,0,0.1,0.1s0.1,0,0.1,0.1l0,0c0.2,0.1,0.4,0.3,0.6,0.3l0,0c0.3,0.1,0.7,0.3,1.1,0.5l-0.5,1.2l-0.2-0.1  c-0.1-0.1-0.3,0-0.3,0.1s0,0.3,0.1,0.3l0.2,0.1L-216.8,354.3z M-211.5,358.6c0,0.2-0.1,0.4-0.2,0.6c-0.1,0.2-0.3,0.3-0.4,0.3  c-0.2,0-0.4-0.1-0.5-0.3c0,0,0-0.1-0.1-0.3c0.1,0,0.1,0,0.2,0c0.3,0,0.5-0.2,0.5-0.5c0-0.3-0.2-0.5-0.5-0.5c-0.2,0-0.3,0.1-0.4,0.2  c-0.2-0.6-0.3-1.3-0.3-1.3h-0.1h-0.1c0,0-0.2,0.7-0.3,1.3c-0.1-0.1-0.2-0.2-0.3-0.2c-0.3,0-0.5,0.2-0.5,0.5c0,0.3,0.2,0.5,0.5,0.5  c0.1,0,0.1,0,0.2,0c0,0.1-0.1,0.3-0.1,0.3c-0.1,0.2-0.3,0.3-0.5,0.3c-0.2,0-0.3-0.1-0.4-0.3c-0.1-0.2-0.1-0.4-0.1-0.6v-3  c1,0.3,2.3,0.7,3.4,0.9L-211.5,358.6L-211.5,358.6z M-211.3,355.9c-1.8-0.4-3.8-1-5-1.4c0.1-0.3,0.3-0.8,0.5-1.3l0.3,0.1  c0,0,0,0,0,0.1c0,0.4,0.4,0.8,0.8,0.8s0.8-0.4,0.8-0.8s-0.4-0.8-0.8-0.8c-0.3,0-0.4,0.1-0.6,0.3l-0.3-0.2c0.2-0.5,0.3-0.9,0.5-1.2  c1.2,0.5,2.7,1.1,4.2,1.6c1.6,0.5,2.8,0.8,3.8,0.8C-208.8,354.8-211.2,355.9-211.3,355.9 M-205.4,353.1c-0.2,0.2-0.5,0.3-1.3,0.3  c0.5-0.4,1-0.8,1.4-1.3C-205.1,352.6-205.1,352.9-205.4,353.1 M-207.6,353.3c-0.8-0.1-1.8-0.3-3.1-0.8c-0.1,0-0.1,0-0.2-0.1  c0.1-0.8,0.4-1.3,0.8-1.5c0.7-0.3,1.3-0.8,1.9-1.3c0.5-0.4,1-1,1.4-1.7c0.6-1.1,1-2.4,1-3.7c0-0.6-0.1-1.3-0.3-1.9v-1.2l0.3,0.9  l0.3-0.1c0,0-0.3-0.8-0.3-0.9c0.1,0,1.9-0.8,1.9-0.8l-0.1-0.3h0l-2.1,0.8v-0.2l1.4-2l-0.1-0.2h0l-1.3,0.3v-2.4  c0.1,0.1,0.3,0.2,0.4,0.3c2,2,3.1,4.7,3.1,7.6c0,1.9-0.5,3.7-1.4,5.3C-204.8,351.1-206.1,352.4-207.6,353.3 M-205.9,339.8  c0,0-0.1,0.1-0.1,0.2v-0.4C-206,339.7-205.9,339.8-205.9,339.8 M-206,339c0.1,0,0.7-0.2,0.8-0.2c-0.1,0.1-0.4,0.6-0.5,0.7  C-205.7,339.5-206,339.1-206,339"/>
<path d="M-204.8,326.1c-0.4-0.7-1.2-0.9-1.7-0.9c-0.8,0-1.5,0.3-2.3,0.6c-0.8,0.3-1.7,0.7-2.6,0.6c0.1-0.3,0.2-0.6,0.4-0.9l-0.5-0.3  c0.1-0.2,0.2-0.4,0.2-0.7c-0.1,0-0.8-0.3-1.9-0.3s-1.8,0.3-1.9,0.3c0,0.3,0.1,0.5,0.2,0.7l-0.5,0.3c0.2,0.3,0.3,0.6,0.4,0.9  c-0.9,0.1-1.8-0.3-2.6-0.6c-0.8-0.3-1.5-0.6-2.3-0.6c-0.5,0-1.3,0.3-1.7,0.9c-0.3,0.5-0.6,1.5,0.1,3.1l0,0v0l1.1-0.5l0.1,0.2  c-0.3,0.2-0.7,0.6-0.3,1.5c0.9-0.4,1-0.9,0.8-1.3l0.2-0.1l0.5,1.1l0.5,1.1l-0.2,0.1c-0.2-0.3-0.6-0.7-1.5-0.3  c0.4,0.9,1.1,1.3,1.7,1.3c1,0,1.7-0.6,1.6-1.2c-0.1-0.4-0.5-0.6-0.6-0.6c-0.2,0-0.3,0.3-0.3,0.4c0,0,0,0.1,0,0.1l0,0  c-0.3,0-0.5-0.2-0.5-0.5c-0.1-0.3,0.2-0.6,0.5-0.7c0.2,0,0.4,0,0.5,0.2l0.1-0.1c-0.2-0.1-0.3-0.3-0.3-0.5c-0.1-0.5,0.5-1,0.5-1l0,0  l0,0c0,0,0.7,0.3,0.8,0.8c0,0.2,0,0.4-0.2,0.6l0.1,0.1c0.1-0.2,0.2-0.3,0.4-0.3c0.3-0.1,0.6,0.2,0.7,0.5c0.1,0.3-0.1,0.5-0.3,0.6  l0,0c0,0,0-0.1,0-0.1c0-0.2-0.2-0.3-0.4-0.3c-0.2,0-0.5,0.3-0.4,0.8c0.2,0.8,0.8,1.3,1.5,1.3s1.6-0.6,1.6-1.6  c-1.1,0-1.4,0.5-1.4,0.9h-0.2v-1.3v-1.3h0.2c0,0.4,0.3,0.9,1.4,0.9c0-1.1-0.5-1.4-0.9-1.4v-0.2h1.1h0.3h1.1v0.2  c-0.4,0-0.9,0.3-0.9,1.4c1.1,0,1.4-0.5,1.4-0.9h0.2v1.3v1.3h-0.2c0-0.4-0.3-0.9-1.4-0.9c0,0.9,0.8,1.6,1.6,1.6  c0.8,0,1.4-0.5,1.5-1.3c0.1-0.4-0.2-0.8-0.4-0.8c-0.2,0-0.4,0.1-0.4,0.3c0,0,0,0.1,0,0.1l0,0c-0.2-0.1-0.4-0.4-0.3-0.6  c0.1-0.3,0.4-0.5,0.7-0.5c0.2,0,0.3,0.2,0.4,0.3l0.1-0.1c-0.1-0.2-0.2-0.3-0.2-0.6c0.1-0.5,0.8-0.8,0.8-0.8s0.6,0.5,0.5,1  c0,0.2-0.2,0.4-0.3,0.5l0.1,0.1c0.1-0.1,0.3-0.2,0.5-0.2c0.3,0.1,0.5,0.4,0.5,0.7c-0.1,0.3-0.3,0.5-0.5,0.5l0,0c0,0,0-0.1,0-0.1  c0-0.2-0.1-0.3-0.3-0.4c-0.2,0-0.6,0.1-0.6,0.6c-0.1,0.6,0.6,1.2,1.6,1.2c0.6,0,1.3-0.4,1.7-1.3c-0.9-0.4-1.4-0.1-1.5,0.3l-0.2-0.1  l0.5-1.1l0.5-1.1l0.2,0.1c-0.2,0.3-0.1,0.9,0.8,1.3c0.4-0.9,0.1-1.4-0.3-1.5l0.1-0.2l1.1,0.5v0l0,0  C-204.2,327.7-204.5,326.7-204.8,326.1 M-214.9,327.5c-0.5,0-1,0.3-1.2,0.7c-0.3-0.5-0.9-0.8-1.5-0.7c-0.4,0.1-0.8,0.4-1,0.8  c-0.3-0.4-0.7-0.7-1.2-0.7c-0.6,0-1.2,0.4-1.4,1c-0.3-0.9-0.3-1.7,0-2.2c0.3-0.5,0.9-0.7,1.2-0.7c0.7,0,1.4,0.3,2.1,0.6  c0.9,0.4,1.9,0.8,3,0.6C-214.9,327.2-214.8,327.3-214.9,327.5C-214.8,327.5-214.9,327.5-214.9,327.5 M-213.2,324.6  c0.3,0,0.5,0.2,0.6,0.5c-0.2-0.1-0.3-0.2-0.6-0.2s-0.4,0.1-0.6,0.2C-213.8,324.8-213.5,324.6-213.2,324.6 M-213.2,325.1  c0.3,0,0.5,0.2,0.6,0.5c-0.2-0.1-0.3-0.2-0.6-0.2s-0.4,0.1-0.6,0.2C-213.8,325.4-213.5,325.1-213.2,325.1 M-213.2,328.3  c-0.3,0-0.6-0.3-0.6-0.6s0.3-0.6,0.6-0.6c0.3,0,0.6,0.3,0.6,0.6S-212.9,328.3-213.2,328.3 M-212.7,327.1c-0.2-0.1-0.3-0.2-0.5-0.2  c-0.2,0-0.4,0.1-0.5,0.2c0-0.1,0-0.1,0-0.2c0-0.3,0.3-0.6,0.6-0.6c0.3,0,0.6,0.3,0.6,0.6C-212.7,327-212.7,327-212.7,327.1   M-212.7,326.3c-0.2-0.1-0.3-0.2-0.6-0.2s-0.4,0.1-0.6,0.2v0c0-0.3,0.3-0.6,0.6-0.6C-212.9,325.7-212.7,326-212.7,326.3  C-212.7,326.3-212.7,326.3-212.7,326.3 M-205.3,328.7c-0.2-0.6-0.7-1-1.4-1c-0.5,0-0.9,0.3-1.2,0.7c-0.2-0.4-0.5-0.7-1-0.8  c-0.6-0.1-1.2,0.2-1.5,0.7c-0.3-0.4-0.7-0.7-1.2-0.7c0,0-0.1,0-0.1,0c0-0.2,0.1-0.3,0.1-0.5c1.1,0.2,2-0.3,3-0.6  c0.7-0.3,1.4-0.6,2.1-0.6c0.3,0,0.8,0.2,1.2,0.7C-205,327-205,327.7-205.3,328.7"/>
<polygon points="-209.9,335.5 -209.9,335.5 -210.1,335.5 -210,335.8 -209.9,335.8 -209.9,335.8 -209.9,335.9 -209.9,335.8   -209.8,335.8 -209.8,335.8 -209.7,335.5 "/>
<polyline points="-212.5,335.8 -212.5,335.8 -212.5,335.9 -212.7,335.9 -212.7,335.7 -212.9,335.4 -212.9,335.4 -212.6,335.5   -212.4,335.5 -212.4,335.8 -212.5,335.7 "/>
<path d="M-212.3,335.7C-212.4,335.7-212.4,335.7-212.3,335.7c-0.1-0.1,0-0.1,0-0.1S-212.3,335.6-212.3,335.7L-212.3,335.7  c0.1-0.1,0.1-0.1,0.1-0.2c0-0.1-0.1-0.2-0.2-0.2s-0.2,0.1-0.2,0.2S-212.5,335.7-212.3,335.7L-212.3,335.7L-212.3,335.7"/>
<path d="M-212.6,335.9C-212.6,335.9-212.6,335.9-212.6,335.9c-0.1-0.1-0.1,0-0.1,0S-212.7,336-212.6,335.9L-212.6,335.9  c-0.1,0.1-0.1,0.1-0.2,0.1c-0.1,0-0.2-0.1-0.2-0.2s0.1-0.2,0.2-0.2S-212.6,335.8-212.6,335.9L-212.6,335.9L-212.6,335.9"/>
<polyline points="-212.5,341.8 -212.5,341.7 -212.5,341.6 -212.7,341.7 -212.7,341.8 -212.9,342.1 -212.9,342.1 -212.6,341.9   -212.4,341.9 -212.4,341.7 -212.5,341.8 "/>
<path d="M-212.3,341.8C-212.4,341.8-212.4,341.8-212.3,341.8c-0.1,0.1,0,0.1,0,0.1S-212.3,341.9-212.3,341.8L-212.3,341.8  c0.1,0.1,0.1,0.1,0.1,0.2c0,0.1-0.1,0.2-0.2,0.2s-0.2-0.1-0.2-0.2S-212.5,341.8-212.3,341.8L-212.3,341.8L-212.3,341.8"/>
<path d="M-212.6,341.6C-212.6,341.6-212.6,341.6-212.6,341.6c-0.1,0.1-0.1,0-0.1,0S-212.7,341.5-212.6,341.6L-212.6,341.6  c-0.1-0.1-0.1-0.1-0.2-0.1c-0.1,0-0.2,0.1-0.2,0.2s0.1,0.2,0.2,0.2S-212.6,341.7-212.6,341.6L-212.6,341.6L-212.6,341.6"/>
<polyline points="-207.3,341.8 -207.2,341.7 -207.2,341.6 -207,341.7 -207,341.8 -206.9,342.1 -206.9,342.1 -207.2,341.9   -207.3,341.9 -207.3,341.7 -207.3,341.8 "/>
<path d="M-207.4,341.8C-207.4,341.8-207.4,341.8-207.4,341.8c0.1,0.1,0,0.1,0,0.1S-207.5,341.9-207.4,341.8L-207.4,341.8  c-0.1,0.1-0.1,0.1-0.1,0.2c0,0.1,0.1,0.2,0.2,0.2s0.2-0.1,0.2-0.2S-207.3,341.8-207.4,341.8L-207.4,341.8L-207.4,341.8"/>
<path d="M-207.2,341.6C-207.2,341.6-207.2,341.6-207.2,341.6c0.1,0.1,0.1,0,0.1,0S-207.1,341.5-207.2,341.6L-207.2,341.6  c0.1-0.1,0.1-0.1,0.2-0.1c0.1,0,0.2,0.1,0.2,0.2s-0.1,0.2-0.2,0.2S-207.2,341.7-207.2,341.6L-207.2,341.6L-207.2,341.6"/>
<polyline points="-207.3,335.8 -207.2,335.8 -207.2,335.9 -207,335.9 -207,335.7 -206.9,335.4 -206.9,335.4 -207.2,335.5   -207.3,335.5 -207.3,335.8 -207.3,335.7 "/>
<path d="M-207.4,335.7C-207.4,335.7-207.4,335.7-207.4,335.7c0.1-0.1,0-0.1,0-0.1S-207.5,335.6-207.4,335.7L-207.4,335.7  c-0.1-0.1-0.1-0.1-0.1-0.2c0-0.1,0.1-0.2,0.2-0.2s0.2,0.1,0.2,0.2S-207.3,335.7-207.4,335.7L-207.4,335.7L-207.4,335.7"/>
<path d="M-207.2,335.9C-207.2,335.9-207.2,335.9-207.2,335.9c0.1-0.1,0.1,0,0.1,0S-207.1,336-207.2,335.9L-207.2,335.9  c0.1,0.1,0.1,0.1,0.2,0.1c0.1,0,0.2-0.1,0.2-0.2s-0.1-0.2-0.2-0.2S-207.2,335.8-207.2,335.9L-207.2,335.9L-207.2,335.9z"/>
<rect x="-210.1" y="336.1" width="0.5" height="0.2"/>
<polygon points="-209.9,336.5 -209.9,336.5 -210,336.4 -209.8,336.4 "/>
<polyline points="-209.6,336.2 -209.6,336.2 -209.6,336.2 -209.6,336.2 "/>
<path d="M-209.5,336.3L-209.5,336.3C-209.6,336.4-209.6,336.3-209.5,336.3C-209.6,336.3-209.6,336.2-209.5,336.3L-209.5,336.3  c-0.2-0.1-0.2,0-0.2,0s0.1,0.1,0.1,0.1S-209.5,336.4-209.5,336.3C-209.5,336.4-209.5,336.4-209.5,336.3L-209.5,336.3z"/>
<path d="M-210.2,336.2L-210.2,336.2L-210.2,336.2L-210.2,336.2z"/>
<path d="M-210.2,336.3L-210.2,336.3C-210.2,336.4-210.1,336.3-210.2,336.3C-210.1,336.3-210.2,336.2-210.2,336.3L-210.2,336.3  c0.2-0.1,0.2,0,0.2,0s-0.1,0.1-0.1,0.1S-210.3,336.4-210.2,336.3C-210.2,336.4-210.2,336.4-210.2,336.3L-210.2,336.3z"/>
<polygon points="-209.9,342 -209.9,342 -209.7,342 -209.8,341.7 -209.9,341.7 -209.9,341.7 -209.9,341.6 -209.9,341.7 -209.9,341.7   -210,341.7 -210.1,342 "/>
<rect x="-210.1" y="341.1" width="0.5" height="0.2"/>
<polygon points="-209.9,340.9 -209.9,340.9 -209.8,341.2 -210,341.2 "/>
<path d="M-210.2,341.3L-210.2,341.3L-210.2,341.3z"/>
<path d="M-210.2,341.2L-210.2,341.2C-210.2,341.2-210.1,341.2-210.2,341.2C-210.1,341.3-210.2,341.3-210.2,341.2L-210.2,341.2  c0.2,0.1,0.2,0,0.2,0c0-0.1-0.1-0.1-0.1-0.1S-210.3,341.1-210.2,341.2C-210.2,341.2-210.2,341.2-210.2,341.2L-210.2,341.2z"/>
<path d="M-209.6,341.3L-209.6,341.3L-209.6,341.3z"/>
<path d="M-209.5,341.2L-209.5,341.2C-209.6,341.2-209.6,341.2-209.5,341.2C-209.6,341.3-209.6,341.3-209.5,341.2L-209.5,341.2  c-0.2,0.1-0.2,0-0.2,0c0-0.1,0.1-0.1,0.1-0.1S-209.5,341.1-209.5,341.2C-209.5,341.2-209.5,341.2-209.5,341.2L-209.5,341.2z"/>
<polygon points="-207,338.7 -207,338.7 -207,338.5 -207.3,338.6 -207.3,338.7 -207.3,338.8 -207.3,338.7 -207.3,338.8 -207.3,338.8   -207.3,338.8 -207,339 "/>
<rect x="-207.8" y="338.5" width="0.2" height="0.5"/>
<polygon points="-208,338.8 -208,338.7 -207.8,338.6 -207.8,338.9 "/>
<polyline points="-207.7,339.1 -207.7,339 -207.7,339.1 -207.7,339.1 "/>
<path d="M-207.8,339.1L-207.8,339.1C-207.8,339-207.8,339-207.8,339.1C-207.7,339-207.7,339-207.8,339.1L-207.8,339.1  c0.1-0.2,0-0.2,0-0.2c-0.1,0-0.1,0.1-0.1,0.1C-207.9,339.1-207.9,339.1-207.8,339.1C-207.8,339.1-207.8,339.1-207.8,339.1  L-207.8,339.1z"/>
<path d="M-207.7,338.5L-207.7,338.5L-207.7,338.5L-207.7,338.5"/>
<path d="M-207.8,338.4L-207.8,338.4C-207.8,338.5-207.8,338.5-207.8,338.4C-207.7,338.5-207.7,338.5-207.8,338.4L-207.8,338.4  c0.1,0.2,0,0.2,0,0.2c-0.1,0-0.1-0.1-0.1-0.1S-207.9,338.4-207.8,338.4C-207.8,338.4-207.8,338.4-207.8,338.4L-207.8,338.4z"/>
<polygon points="-212.7,338.7 -212.7,338.7 -212.7,338.5 -212.5,338.6 -212.5,338.7 -212.5,338.8 -212.4,338.7 -212.5,338.8   -212.5,338.8 -212.5,338.8 -212.7,339 "/>
<rect x="-212.1" y="338.5" width="0.2" height="0.5"/>
<polygon points="-211.7,338.8 -211.7,338.7 -211.9,338.6 -211.9,338.9 "/>
<polyline points="-212.1,339.1 -212.1,339 -212.1,339.1 -212.1,339.1 "/>
<path d="M-212,339.1L-212,339.1C-211.9,339-212,339-212,339.1C-212,339-212.1,339-212,339.1L-212,339.1c-0.1-0.2,0-0.2,0-0.2  c0.1,0,0.1,0.1,0.1,0.1C-211.8,339.1-211.9,339.1-212,339.1C-211.9,339.1-212,339.1-212,339.1L-212,339.1z"/>
<path d="M-212.1,338.5L-212.1,338.5L-212.1,338.5L-212.1,338.5"/>
<path d="M-212,338.4L-212,338.4C-211.9,338.5-212,338.5-212,338.4C-212,338.5-212.1,338.5-212,338.4L-212,338.4  c-0.1,0.2,0,0.2,0,0.2c0.1,0,0.1-0.1,0.1-0.1S-211.9,338.4-212,338.4C-211.9,338.4-212,338.4-212,338.4L-212,338.4z"/>
<g class="st1">
  <path d="M-221.1,365.4v7.9h9.7v-7.9h2.4v18.3h-2.4v-8.4h-9.7v8.4h-2.4v-18.3H-221.1z"/>
  <path d="M-206,374.3c0.3-0.8,0.7-1.6,1.2-2.2s1.2-1.1,2-1.5c0.8-0.3,1.7-0.5,2.8-0.5c1.1,0,2,0.2,2.8,0.5c0.8,0.3,1.5,0.8,2,1.5   s1,1.4,1.2,2.2c0.3,0.8,0.4,1.8,0.4,2.7s-0.1,1.9-0.4,2.7c-0.3,0.8-0.7,1.6-1.2,2.2c-0.5,0.6-1.2,1.1-2,1.5   c-0.8,0.3-1.7,0.5-2.8,0.5c-1,0-2-0.2-2.8-0.5c-0.8-0.3-1.5-0.8-2-1.5c-0.5-0.6-1-1.4-1.2-2.2c-0.3-0.8-0.4-1.8-0.4-2.7   S-206.2,375.2-206,374.3z M-203.7,379.2c0.2,0.6,0.5,1.2,0.9,1.6c0.4,0.4,0.8,0.8,1.3,1s1,0.3,1.6,0.3s1.1-0.1,1.6-0.3   s0.9-0.5,1.3-1c0.4-0.4,0.7-0.9,0.9-1.6c0.2-0.6,0.3-1.4,0.3-2.1c0-0.8-0.1-1.5-0.3-2.1c-0.2-0.6-0.5-1.2-0.9-1.6   c-0.4-0.4-0.8-0.8-1.3-1s-1-0.3-1.6-0.3s-1.1,0.1-1.6,0.3s-0.9,0.5-1.3,1c-0.4,0.4-0.7,0.9-0.9,1.6c-0.2,0.6-0.3,1.4-0.3,2.1   S-203.9,378.6-203.7,379.2z"/>
  <path d="M-189.2,370.4v1.9h0.1c1-1.5,2.4-2.3,4.3-2.3c0.8,0,1.6,0.2,2.2,0.5c0.7,0.3,1.1,0.9,1.4,1.8c0.4-0.7,1-1.3,1.8-1.7   c0.7-0.4,1.5-0.6,2.4-0.6c0.7,0,1.3,0.1,1.8,0.2c0.5,0.2,1,0.4,1.4,0.7c0.4,0.3,0.7,0.7,0.9,1.2c0.2,0.5,0.3,1.1,0.3,1.8v9.7h-2.2   V375c0-0.4,0-0.8-0.1-1.2c-0.1-0.3-0.2-0.7-0.4-0.9c-0.2-0.3-0.4-0.5-0.8-0.6c-0.3-0.2-0.8-0.2-1.3-0.2c-1.1,0-1.9,0.3-2.5,0.9   c-0.6,0.6-0.9,1.4-0.9,2.5v8.3h-2.2V375c0-0.4,0-0.8-0.1-1.2c-0.1-0.3-0.2-0.7-0.4-0.9c-0.2-0.3-0.4-0.5-0.8-0.6   c-0.3-0.2-0.7-0.2-1.2-0.2c-0.6,0-1.2,0.1-1.6,0.4c-0.4,0.3-0.8,0.6-1.1,0.9c-0.3,0.3-0.5,0.7-0.6,1.1c-0.1,0.4-0.2,0.7-0.2,1v8.3   h-2.2v-13.3H-189.2z"/>
  <path d="M-160.2,382.9c-1,0.8-2.2,1.1-3.7,1.1c-1.1,0-2-0.2-2.8-0.5c-0.8-0.3-1.4-0.8-2-1.4c-0.5-0.6-0.9-1.4-1.2-2.2   c-0.3-0.8-0.4-1.8-0.4-2.8c0-1,0.2-1.9,0.5-2.8c0.3-0.8,0.8-1.6,1.3-2.2c0.6-0.6,1.2-1.1,2-1.4c0.8-0.3,1.6-0.5,2.5-0.5   c1.2,0,2.2,0.3,3,0.7c0.8,0.5,1.4,1.1,1.9,1.9c0.5,0.8,0.8,1.6,1,2.5c0.2,0.9,0.3,1.7,0.2,2.5h-10c0,0.6,0.1,1.1,0.2,1.7   c0.2,0.5,0.4,1,0.8,1.4c0.3,0.4,0.8,0.7,1.3,1s1.2,0.3,1.9,0.3c0.9,0,1.7-0.2,2.3-0.6c0.6-0.4,1-1.1,1.2-1.9h2.2   C-158.6,381-159.2,382.1-160.2,382.9z M-160.7,374.3c-0.2-0.5-0.5-0.8-0.8-1.2c-0.3-0.3-0.7-0.6-1.2-0.8c-0.4-0.2-0.9-0.3-1.5-0.3   s-1.1,0.1-1.5,0.3c-0.4,0.2-0.8,0.5-1.2,0.8c-0.3,0.3-0.6,0.8-0.8,1.2c-0.2,0.4-0.3,0.9-0.3,1.4h7.6   C-160.4,375.3-160.6,374.8-160.7,374.3z"/>
  <path d="M-149.4,370.9c0.4-1.2,0.9-2.2,1.7-3.1c0.7-0.9,1.7-1.6,2.8-2.1c1.1-0.5,2.4-0.8,3.8-0.8c1.4,0,2.7,0.3,3.8,0.8   c1.1,0.5,2,1.3,2.8,2.1c0.7,0.9,1.3,1.9,1.7,3.1s0.6,2.4,0.6,3.6s-0.2,2.4-0.6,3.6c-0.4,1.2-0.9,2.2-1.7,3.1   c-0.7,0.9-1.7,1.6-2.8,2.1c-1.1,0.5-2.4,0.8-3.8,0.8c-1.4,0-2.7-0.3-3.8-0.8c-1.1-0.5-2-1.2-2.8-2.1c-0.7-0.9-1.3-1.9-1.7-3.1   c-0.4-1.2-0.6-2.4-0.6-3.6S-149.8,372.1-149.4,370.9z M-147.2,377.3c0.3,0.9,0.6,1.7,1.1,2.4c0.5,0.7,1.2,1.3,2,1.7   s1.8,0.7,2.9,0.7c1.1,0,2.1-0.2,2.9-0.7s1.5-1,2-1.7c0.5-0.7,0.9-1.5,1.1-2.4c0.3-0.9,0.3-1.8,0.3-2.7c0-0.9-0.1-1.8-0.3-2.7   c-0.3-0.9-0.6-1.7-1.1-2.4c-0.5-0.7-1.2-1.3-2-1.7c-0.8-0.4-1.8-0.7-2.9-0.7c-1.1,0-2.1,0.2-2.9,0.7c-0.8,0.4-1.5,1-2,1.7   c-0.5,0.7-0.9,1.5-1.1,2.4c-0.3,0.9-0.3,1.8-0.3,2.7C-147.5,375.4-147.4,376.4-147.2,377.3z"/>
  <path d="M-131.4,372.3v-1.9h2.2v-2c0-1.1,0.3-1.9,0.9-2.4c0.6-0.6,1.5-0.8,2.7-0.8c0.2,0,0.4,0,0.7,0.1c0.3,0,0.5,0.1,0.7,0.2v1.9   c-0.2-0.1-0.4-0.1-0.6-0.1c-0.2,0-0.4,0-0.6,0c-0.5,0-0.9,0.1-1.2,0.3s-0.4,0.6-0.4,1.2v1.9h2.6v1.9h-2.6v11.4h-2.2v-11.4   L-131.4,372.3L-131.4,372.3z"/>
  <path d="M-124.6,372.3v-1.9h2.2v-2c0-1.1,0.3-1.9,0.9-2.4c0.6-0.6,1.5-0.8,2.7-0.8c0.2,0,0.4,0,0.7,0.1c0.3,0,0.5,0.1,0.7,0.2v1.9   c-0.2-0.1-0.4-0.1-0.6-0.1c-0.2,0-0.4,0-0.6,0c-0.5,0-0.9,0.1-1.2,0.3c-0.3,0.2-0.4,0.6-0.4,1.2v1.9h2.6v1.9h-2.5v11.4h-2.2v-11.4   L-124.6,372.3L-124.6,372.3z"/>
  <path d="M-115.8,368v-2.7h2.2v2.7H-115.8z M-113.6,370.4v13.3h-2.2v-13.3H-113.6z"/>
  <path d="M-102.6,372.7c-0.5-0.5-1.3-0.7-2.2-0.7c-0.8,0-1.4,0.2-2,0.4c-0.5,0.3-0.9,0.7-1.3,1.2c-0.3,0.5-0.5,1-0.7,1.7   c-0.1,0.6-0.2,1.3-0.2,1.9c0,0.6,0.1,1.2,0.2,1.8c0.2,0.6,0.4,1.1,0.7,1.5c0.3,0.4,0.7,0.8,1.2,1.1c0.5,0.3,1.1,0.4,1.8,0.4   c1.1,0,1.9-0.3,2.5-0.8c0.6-0.6,1-1.4,1.1-2.4h2.2c-0.3,1.6-0.8,2.9-1.8,3.8c-1,0.9-2.3,1.4-4,1.4c-1,0-1.9-0.2-2.7-0.5   c-0.8-0.3-1.4-0.8-1.9-1.4c-0.5-0.6-0.9-1.3-1.2-2.1c-0.3-0.8-0.4-1.7-0.4-2.7s0.1-1.9,0.4-2.8c0.3-0.9,0.7-1.6,1.2-2.3   c0.5-0.6,1.2-1.2,2-1.5c0.8-0.4,1.7-0.6,2.8-0.6c0.8,0,1.4,0.1,2.1,0.3s1.3,0.5,1.8,0.8c0.5,0.4,0.9,0.8,1.3,1.4   c0.3,0.6,0.5,1.3,0.6,2h-2.3C-101.7,373.8-102.1,373.2-102.6,372.7z"/>
  <path d="M-87.7,382.9c-1,0.8-2.2,1.1-3.7,1.1c-1.1,0-2-0.2-2.8-0.5c-0.8-0.3-1.4-0.8-2-1.4c-0.5-0.6-0.9-1.4-1.2-2.2   c-0.3-0.8-0.4-1.8-0.4-2.8c0-1,0.2-1.9,0.5-2.8c0.3-0.8,0.8-1.6,1.3-2.2c0.6-0.6,1.2-1.1,2-1.4c0.8-0.3,1.6-0.5,2.5-0.5   c1.2,0,2.2,0.3,3,0.7c0.8,0.5,1.4,1.1,1.9,1.9c0.5,0.8,0.8,1.6,1,2.5c0.2,0.9,0.3,1.7,0.2,2.5h-10c0,0.6,0.1,1.1,0.2,1.7   c0.2,0.5,0.4,1,0.8,1.4c0.3,0.4,0.8,0.7,1.3,1c0.5,0.3,1.2,0.3,1.9,0.3c0.9,0,1.7-0.2,2.3-0.6c0.6-0.4,1-1.1,1.2-1.9h2.2   C-86.1,381-86.7,382.1-87.7,382.9z M-88.2,374.3c-0.2-0.5-0.5-0.8-0.8-1.2c-0.3-0.3-0.7-0.6-1.2-0.8c-0.4-0.2-0.9-0.3-1.5-0.3   c-0.6,0-1.1,0.1-1.5,0.3c-0.4,0.2-0.8,0.5-1.2,0.8s-0.6,0.8-0.8,1.2c-0.2,0.4-0.3,0.9-0.3,1.4h7.6C-87.9,375.3-88,374.8-88.2,374.3   z"/>
</g>
</svg>
