<!-- Generated by IcoMoon.io -->
<svg version="1.1" xmlns="http://www.w3.org/2000/svg" width="448" height="448" viewBox="0 0 448 448">
<title></title>
<g id="icomoon-ignore">
</g>
<path fill="#000" d="M373.337 140.585c-11.084 4.959-22.751 8.168-35.29 9.917 12.835-7.583 22.457-19.833 27.125-34.125-11.959 6.999-25.085 12.25-39.082 14.875-11.084-11.959-27.125-19.249-44.624-19.249-33.832 0-61.249 27.417-61.249 61.249 0 4.666 0.291 9.626 1.459 13.999-51.043-2.625-96.251-26.832-126.582-64.168-5.251 9.043-8.458 19.833-8.458 30.916 0 21.292 9.917 39.957 26.543 51.043-10.208-0.291-19.833-3.207-29.165-7.583v0.585c0 29.75 22.457 54.54 50.458 60.083-5.251 1.459-9.332 2.333-14.875 2.333-3.792 0-7.583-0.585-11.376-1.167 7.874 24.209 30.334 42 57.168 42.584-21 16.332-47.251 26.249-76.124 26.249-4.959 0-9.917-0.291-14.582-0.874 27.125 17.208 59.207 27.417 93.917 27.417 112.581 0 174.415-93.332 174.415-174.415 0-2.625 0-5.251-0.291-7.874 11.959-8.458 22.457-19.249 30.625-31.792zM448 84v279.998c0 46.375-37.624 84.001-84.001 84.001h-279.998c-46.375 0-84.001-37.624-84.001-84.001v-279.998c0-46.375 37.624-84.001 84.001-84.001h279.998c46.375 0 84.001 37.624 84.001 84.001z"></path>
</svg>
