<svg xmlns="http://www.w3.org/2000/svg" viewBox="0 0 51.21 34.31"><title>cloud</title><path d="M50.85,19.16a12.2,12.2,0,0,0-14.78-8.89l-.63.17A14.85,14.85,0,0,0,16.84.68,14.33,14.33,0,0,0,14,1.91,3.07,3.07,0,0,1,15.4,3.43l.22-.06a12.81,12.81,0,0,1,3.16-1.08,13,13,0,0,1,2.48-.24A12.73,12.73,0,0,1,33.75,12a1,1,0,0,0,1.22.76l.17,0A10.17,10.17,0,1,1,39,32.27H9a6.9,6.9,0,0,1-3.31-13A4.15,4.15,0,0,1,5.32,19l-.76-.75a3,3,0,0,1-.39-.49A8.95,8.95,0,0,0,9,34.31H39c.31,0,.6,0,.9,0a15.49,15.49,0,0,0,2-.33A12.2,12.2,0,0,0,50.85,19.16Z"/><path d="M11.5,20.25a1.72,1.72,0,0,1-1.72-1.72v-.25a7,7,0,0,1-.89-.37l-.18.18a1.74,1.74,0,0,1-2.44,0l-.75-.76A1.75,1.75,0,0,1,5,16.12a1.71,1.71,0,0,1,.51-1.22l.18-.18a7.6,7.6,0,0,1-.37-.89H5.07a1.73,1.73,0,0,1-1.72-1.72V11A1.73,1.73,0,0,1,5.07,9.32h.26a7,7,0,0,1,.37-.89l-.18-.18A1.72,1.72,0,0,1,5,7a1.75,1.75,0,0,1,.51-1.2l.75-.76a1.71,1.71,0,0,1,2.44,0l.18.18a7,7,0,0,1,.89-.37V4.62A1.72,1.72,0,0,1,11.5,2.9h1.07a1.72,1.72,0,0,1,1.72,1.72v.25a7.6,7.6,0,0,1,.89.37l.18-.18a1.67,1.67,0,0,1,1.21-.51,1.69,1.69,0,0,1,1.22.51l.76.76a1.73,1.73,0,0,1,0,2.43l-.18.18a7.6,7.6,0,0,1,.37.89H19A1.72,1.72,0,0,1,20.71,11v1.07A1.72,1.72,0,0,1,19,13.83h-.25a7.6,7.6,0,0,1-.37.89l.18.18a1.73,1.73,0,0,1,0,2.43l-.76.76a1.72,1.72,0,0,1-1.22.5,1.7,1.7,0,0,1-1.21-.5l-.18-.18a7.6,7.6,0,0,1-.89.37v.25a1.72,1.72,0,0,1-1.72,1.72ZM8.78,16.46a.62.62,0,0,1,.32.09,6.26,6.26,0,0,0,1.49.62.64.64,0,0,1,.49.62v.74a.42.42,0,0,0,.42.42h1.07a.42.42,0,0,0,.42-.42v-.74a.66.66,0,0,1,.49-.63A5.85,5.85,0,0,0,15,16.55a.6.6,0,0,1,.33-.09.63.63,0,0,1,.46.19l.52.52a.41.41,0,0,0,.3.12.4.4,0,0,0,.29-.12l.76-.76a.41.41,0,0,0,.12-.3.4.4,0,0,0-.12-.29l-.52-.52a.67.67,0,0,1-.1-.8A5.64,5.64,0,0,0,17.62,13a.66.66,0,0,1,.63-.49H19a.42.42,0,0,0,.42-.42V11a.42.42,0,0,0-.42-.42h-.74a.66.66,0,0,1-.63-.49A5.85,5.85,0,0,0,17,8.64a.65.65,0,0,1,.1-.79l.52-.52a.44.44,0,0,0,0-.6L16.87,6a.42.42,0,0,0-.3-.13.41.41,0,0,0-.29.13l-.52.52a.68.68,0,0,1-.46.19A.6.6,0,0,1,15,6.6,5.88,5.88,0,0,0,13.48,6,.64.64,0,0,1,13,5.35V4.62a.42.42,0,0,0-.42-.43H11.5a.42.42,0,0,0-.42.43v.73a.64.64,0,0,1-.49.63A6.26,6.26,0,0,0,9.1,6.6a.63.63,0,0,1-.33.09.66.66,0,0,1-.46-.19L7.79,6a.41.41,0,0,0-.6,0l-.75.75a.41.41,0,0,0,0,.6L7,7.85a.65.65,0,0,1,.1.79,5.88,5.88,0,0,0-.62,1.49.64.64,0,0,1-.63.49H5.07a.42.42,0,0,0-.42.42v1.07a.42.42,0,0,0,.42.42h.74a.64.64,0,0,1,.63.49,5.88,5.88,0,0,0,.62,1.49.65.65,0,0,1-.1.79l-.52.52a.41.41,0,0,0-.13.29.42.42,0,0,0,.13.3l.75.76a.44.44,0,0,0,.6,0l.52-.52A.67.67,0,0,1,8.78,16.46Z"/><path d="M12.57,20.1H11.5a1.57,1.57,0,0,1-1.57-1.57v-.36a7.75,7.75,0,0,1-1.07-.44L8.6,18a1.56,1.56,0,0,1-2.22,0l-.76-.75a1.59,1.59,0,0,1,0-2.23l.26-.25a6.18,6.18,0,0,1-.44-1.07H5.07A1.58,1.58,0,0,1,3.5,12.11V11A1.57,1.57,0,0,1,5.07,9.47h.37A5.87,5.87,0,0,1,5.88,8.4l-.26-.26a1.58,1.58,0,0,1,0-2.22l.76-.76a1.58,1.58,0,0,1,2.22,0l.26.26A6.68,6.68,0,0,1,9.93,5V4.62A1.57,1.57,0,0,1,11.5,3.05h1.07a1.57,1.57,0,0,1,1.57,1.57V5a7.08,7.08,0,0,1,1.07.44l.25-.26a1.59,1.59,0,0,1,2.23,0l.75.76a1.57,1.57,0,0,1,0,2.22l-.25.26a7.75,7.75,0,0,1,.44,1.07H19A1.57,1.57,0,0,1,20.56,11v1.07A1.57,1.57,0,0,1,19,13.68h-.36a8.3,8.3,0,0,1-.44,1.07l.25.26a1.57,1.57,0,0,1,0,2.22l-.75.75a1.58,1.58,0,0,1-2.23,0l-.25-.25a8.3,8.3,0,0,1-1.07.44v.36A1.57,1.57,0,0,1,12.57,20.1ZM9,16.68a6,6,0,0,0,1.52.63.51.51,0,0,1,.38.48v.74a.56.56,0,0,0,.57.57h1.07a.57.57,0,0,0,.57-.57v-.74a.5.5,0,0,1,.37-.48A6,6,0,0,0,15,16.68a.5.5,0,0,1,.61.07l.52.53a.58.58,0,0,0,.81,0l.76-.76a.59.59,0,0,0,0-.81l-.53-.52a.5.5,0,0,1-.07-.61,6,6,0,0,0,.63-1.53.5.5,0,0,1,.48-.37H19a.57.57,0,0,0,.57-.57V11a.56.56,0,0,0-.57-.57h-.74a.51.51,0,0,1-.48-.38,6,6,0,0,0-.63-1.52A.5.5,0,0,1,17.21,8l.53-.52a.58.58,0,0,0,0-.81L17,5.87a.58.58,0,0,0-.81,0l-.52.52a.49.49,0,0,1-.61.08,6,6,0,0,0-1.53-.63.5.5,0,0,1-.37-.49V4.62A.58.58,0,0,0,12.57,4H11.5a.57.57,0,0,0-.57.58v.73a.51.51,0,0,1-.38.49A6,6,0,0,0,9,6.47a.49.49,0,0,1-.61-.08L7.9,5.87a.58.58,0,0,0-.81,0l-.76.76a.57.57,0,0,0,0,.81L6.85,8a.5.5,0,0,1,.08.61,5.62,5.62,0,0,0-.63,1.52.51.51,0,0,1-.49.38H5.07A.57.57,0,0,0,4.5,11v1.07a.58.58,0,0,0,.57.57h.74a.5.5,0,0,1,.49.37,5.68,5.68,0,0,0,.63,1.53.5.5,0,0,1-.08.61l-.52.52a.58.58,0,0,0,0,.81l.76.76a.57.57,0,0,0,.8,0l.53-.53A.49.49,0,0,1,9,16.68Z"/><path d="M12,15.28a3.71,3.71,0,1,1,3.71-3.71A3.72,3.72,0,0,1,12,15.28Zm0-6.21a2.5,2.5,0,1,0,2.5,2.5A2.51,2.51,0,0,0,12,9.07Z"/></svg>