<svg xmlns="http://www.w3.org/2000/svg" viewBox="0 0 56.31 45.68"><title>cloud_1</title><path d="M54.71,45.48h-.05a1,1,0,0,1-.95-1l.6-12.09a4.24,4.24,0,0,0-2.71-4.11l-4.31-1.66a1,1,0,0,1-.34-.23L44.81,24.2a1,1,0,0,1-.86-1V21.46a1,1,0,0,1,.27-.68A7.17,7.17,0,0,0,46,17.2a1,1,0,0,1,1-.81,1.63,1.63,0,0,0,.31,0,1.34,1.34,0,0,0,1-1.34v-.58a1.41,1.41,0,0,0-.4-1,1,1,0,0,1-.28-.89c.64-3.49.14-6.3-1.44-8.13S42.22,1.84,39,2A9.65,9.65,0,0,0,33.5,4a1,1,0,0,1-.52.22,3.1,3.1,0,0,0-1.23.42,3.27,3.27,0,0,0-1.44,3.06,18.46,18.46,0,0,0,.52,4.35,1,1,0,0,1-.54,1.14,1.35,1.35,0,0,0-.72,1.22V15a1.33,1.33,0,0,0,1,1.34,1.12,1.12,0,0,0,.31,0,1,1,0,0,1,1,.81,7.09,7.09,0,0,0,1.82,3.58,1,1,0,0,1,.27.68v1.75a1,1,0,0,1-.86,1L31,26.34a1,1,0,0,1-.33.22l-4.16,1.67a1,1,0,1,1-.74-1.85l4-1.6,2.05-2.05.22-.18v-.7a9.25,9.25,0,0,1-1.88-3.54A3.34,3.34,0,0,1,27.57,15v-.57a3.39,3.39,0,0,1,1.16-2.56,20.68,20.68,0,0,1-.42-4.15A5.22,5.22,0,0,1,30.72,3a4.94,4.94,0,0,1,1.73-.64A11.53,11.53,0,0,1,38.88,0c3.86-.22,6.95.86,8.9,3.11s2.6,5.44,2,9.34a3.44,3.44,0,0,1,.63,2V15a3.34,3.34,0,0,1-2.56,3.29A9.25,9.25,0,0,1,46,21.85v.7l.22.18,2,2.05,4.11,1.59a6.23,6.23,0,0,1,4,6.06l-.6,12.1A1,1,0,0,1,54.71,45.48Z"/><path d="M1.47,45.68a1,1,0,0,1-1-.94l-.46-8a6.29,6.29,0,0,1,3.73-6l3.69-1.61,2-2A1.29,1.29,0,0,1,9.62,27v-.06A9.23,9.23,0,0,1,6.26,22h0A3.36,3.36,0,0,1,3.7,18.68v-.56a3.4,3.4,0,0,1,.91-2.33,10.05,10.05,0,0,1,4.3-10.2A6.17,6.17,0,0,1,15.11.2a6.17,6.17,0,0,1,6.2,5.39A10.16,10.16,0,0,1,25.78,14a9.45,9.45,0,0,1-.17,1.83,3.35,3.35,0,0,1,.91,2.31v.57A3.36,3.36,0,0,1,24,22H24a9.23,9.23,0,0,1-3.36,4.92V27l.22.19,2,2,3.69,1.61a6.28,6.28,0,0,1,3.73,6l-.34,8a1,1,0,1,1-2-.09l.34-8a4.25,4.25,0,0,0-2.53-4l-3.87-1.69a.9.9,0,0,1-.3-.21L19.46,28.6a1,1,0,0,1-.86-1V26.37a1,1,0,0,1,.45-.84,7.1,7.1,0,0,0,3.12-4.67,1,1,0,0,1,1-.81l.35,0a1.37,1.37,0,0,0,1-1.34v-.57A1.33,1.33,0,0,0,23.94,17a1,1,0,0,1-.4-1.07A8.07,8.07,0,0,0,23.78,14a8.19,8.19,0,0,0-4-7,1,1,0,0,1-.47-.84,4.13,4.13,0,0,0-4.23-4,4.13,4.13,0,0,0-4.23,4,1,1,0,0,1-.47.84,8.19,8.19,0,0,0-4,7,7.93,7.93,0,0,0,.24,1.94A1,1,0,0,1,6.28,17a1.35,1.35,0,0,0-.58,1.14v.56a1.37,1.37,0,0,0,1,1.34,1,1,0,0,0,.34,0,1,1,0,0,1,1,.81,7.13,7.13,0,0,0,3.12,4.67,1,1,0,0,1,.45.84v1.24a1,1,0,0,1-.85,1L8.71,30.66a1,1,0,0,1-.31.21L4.54,32.56a4.26,4.26,0,0,0-2.54,4l.47,8a1,1,0,0,1-.94,1.06Z"/></svg>