<svg xmlns="http://www.w3.org/2000/svg" viewBox="0 0 40.35 40.26"><title>design</title><path d="M39.39,1.87,38.48,1a3.25,3.25,0,0,0-4.6,0l-32,32a.75.75,0,0,0-.17.3L0,39.45a.65.65,0,0,0,.8.79L7.06,38.6a.66.66,0,0,0,.29-.17l32-32a3.25,3.25,0,0,0,0-4.6Zm-6,1.38L37.1,6.92l-.46.46L33,3.71h0l.46-.46ZM7.81,36.13,4.14,32.46,32,4.62h0L35.71,8.3,7.81,36.13Zm-5.75.68L3.45,38.2l-1.89.5Zm2.84,1L2.44,35.36l.44-1.65.34-.34,3.67,3.68h0l-.33.33ZM38.48,5.55,38,6,34.34,2.33h0l.46-.46a2,2,0,0,1,2.76,0l.92.92a2,2,0,0,1,0,2.76Z"/><path d="M33,7.38a.66.66,0,0,0-.92,0h0l-22.1,22a.65.65,0,0,0,.9.93h0L33,8.3A.64.64,0,0,0,33,7.38Z"/><path d="M8.27,31.08l-.46.46a.65.65,0,1,0,.92.92h0L9.19,32a.66.66,0,0,0,0-.92A.64.64,0,0,0,8.27,31.08Z"/></svg>