<svg xmlns="http://www.w3.org/2000/svg" viewBox="0 0 65.45 48"><title>develop</title><path d="M64.36,39.27H62.18V5.45A5.45,5.45,0,0,0,56.73,0h-48A5.46,5.46,0,0,0,3.27,5.45V39.27H1.09A1.09,1.09,0,0,0,0,40.36v4.37A3.28,3.28,0,0,0,3.27,48H62.18a3.27,3.27,0,0,0,3.27-3.27V40.36A1.09,1.09,0,0,0,64.36,39.27ZM5.45,5.45A3.28,3.28,0,0,1,8.73,2.18h48A3.28,3.28,0,0,1,60,5.45V39.27H5.45ZM63.27,44.73a1.09,1.09,0,0,1-1.09,1.09H3.27a1.09,1.09,0,0,1-1.09-1.09V41.45H63.27Z"/><path d="M28.36,42.55h8.73v2.18H28.36Z"/><path d="M25.41,16,27,14.5,24.45,12,27,9.5,25.41,8l-3.27,3.27a1.08,1.08,0,0,0,0,1.54Z"/><path d="M40,16l3.28-3.27a1.1,1.1,0,0,0,0-1.54L40,8,38.5,9.5,41,12l-2.5,2.5Z"/><path d="M29.53,17.05,33.9,6.14l2,.81L31.56,17.86Z"/><path d="M24,19.64h6.55v2.18H24Z"/><path d="M21.82,24h4.36v2.18H21.82Z"/><path d="M28.36,24h4.37v2.18H28.36Z"/><path d="M17.45,28.36h13.1v2.19H17.45Z"/><path d="M19.64,19.64h2.18v2.18H19.64Z"/><path d="M20.73,32.73H33.82v2.18H20.73Z"/><path d="M36,32.73h2.18v2.18H36Z"/><path d="M34.91,24h4.36v2.18H34.91Z"/><path d="M32.73,28.36h4.36v2.19H32.73Z"/><path d="M39.27,28.36h4.37v2.19H39.27Z"/><path d="M32.73,19.64h8.72v2.18H32.73Z"/><path d="M40.36,32.73h6.55v2.18H40.36Z"/></svg>