<svg xmlns="http://www.w3.org/2000/svg" viewBox="0 0 44.5 53.88"><title>idea</title><path d="M33.27,30.44A13.82,13.82,0,0,0,12.46,12.35a13.79,13.79,0,0,0-1.22,18.11A22.88,22.88,0,0,1,16,44.23v5.35a4.31,4.31,0,0,0,4.31,4.3h4a4.31,4.31,0,0,0,4.3-4.3V44.23A22.7,22.7,0,0,1,33.27,30.44ZM12.65,29.39A12,12,0,0,1,10.19,22,12.12,12.12,0,0,1,22.07,10a12.06,12.06,0,0,1,9.79,19.33A24.48,24.48,0,0,0,26.77,43.9h-9A24.72,24.72,0,0,0,12.65,29.39ZM17.73,49v-.72l9.06,1v.28a3,3,0,0,1,0,.43Zm0-2.5v-.81h9.06v1.84Zm2.53,5.63A2.53,2.53,0,0,1,18,50.8l7.63.87a2.46,2.46,0,0,1-1.41.44Z"/><path d="M13.48,23.43a9.59,9.59,0,0,1-.1-1.42.87.87,0,0,0-.87-.89.88.88,0,0,0-.9.87,12,12,0,0,0,.12,1.7.87.87,0,0,0,.87.75h.14a.88.88,0,0,0,.74-1Z"/><path d="M18.7,36.89a1,1,0,0,0,.28,0,.9.9,0,0,0,.56-1.12,28.3,28.3,0,0,0-4.35-8.28,8.93,8.93,0,0,1-.83-1.3.88.88,0,0,0-1.57.81,10.34,10.34,0,0,0,1,1.57,26.4,26.4,0,0,1,4.08,7.75.89.89,0,0,0,.84.61Z"/><path d="M31.56,25.13a.87.87,0,0,0-1.16.46,9,9,0,0,1-1.08,1.85.88.88,0,0,0,.17,1.24.89.89,0,0,0,.53.18.88.88,0,0,0,.71-.35A10.76,10.76,0,0,0,32,26.29a.89.89,0,0,0-.47-1.16Z"/><path d="M22.25,13.23a8.87,8.87,0,0,1,8.86,8.86,7.87,7.87,0,0,1,0,.84.9.9,0,0,0,.81,1H32a.88.88,0,0,0,.88-.8c0-.33,0-.66,0-1A10.64,10.64,0,0,0,22.25,11.46a.89.89,0,1,0,0,1.77Z"/><path d="M22.25,6.74a.88.88,0,0,0,.88-.89v-5a.89.89,0,1,0-1.77,0v5A.89.89,0,0,0,22.25,6.74Z"/><path d="M13.28,8.49a.89.89,0,0,0,1.54-.89L12.33,3.3a.89.89,0,1,0-1.53.89Z"/><path d="M41.19,32.16l-4.3-2.48A.89.89,0,1,0,36,31.22L40.3,33.7a.92.92,0,0,0,.45.12.9.9,0,0,0,.77-.45.89.89,0,0,0-.33-1.21Z"/><path d="M3.3,12.33l4.3,2.49a.91.91,0,0,0,1.21-.33.89.89,0,0,0-.32-1.21L4.19,10.8a.89.89,0,1,0-.89,1.53Z"/><path d="M43.61,21.36h-5a.89.89,0,1,0,0,1.77h5a.89.89,0,1,0,0-1.77Z"/><path d="M6.74,22.25a.89.89,0,0,0-.89-.89h-5a.89.89,0,1,0,0,1.77h5A.88.88,0,0,0,6.74,22.25Z"/><path d="M36.45,14.93a.87.87,0,0,0,.44-.11l4.3-2.49a.88.88,0,0,0,.33-1.21.89.89,0,0,0-1.22-.32L36,13.28a.88.88,0,0,0,.44,1.65Z"/><path d="M7.6,29.68,3.3,32.16A.89.89,0,0,0,3,33.37a.87.87,0,0,0,.77.45.88.88,0,0,0,.44-.12l4.3-2.48a.89.89,0,0,0-.89-1.54Z"/><path d="M30,8.81a.92.92,0,0,0,.45.12.91.91,0,0,0,.77-.44l2.48-4.3a.89.89,0,0,0-1.54-.89L29.68,7.6A.89.89,0,0,0,30,8.81Z"/></svg>