<?xml version="1.0" encoding="utf-8"?>
<!-- Generator: Adobe Illustrator 19.0.0, SVG Export Plug-In . SVG Version: 6.00 Build 0)  -->
<svg version="1.1" xmlns="http://www.w3.org/2000/svg" xmlns:xlink="http://www.w3.org/1999/xlink" x="0px" y="0px"
	 viewBox="0 0 200 200" style="enable-background:new 0 0 200 200;" xml:space="preserve">
<style type="text/css">
	.st0{fill:#00AAFF;}
	.st1{opacity:0.2;fill:#1E3246;}
	.st2{opacity:0.9;fill:#1E3246;}
	.st3{opacity:0.3;fill:#FFFFFF;}
	.st4{fill:#FCDF5C;}
	.st5{fill:#FBCD00;}
	.st6{fill:#FEEEA8;}
	.st7{fill:#FCDE59;}
	.st8{fill:#FCD630;}
	.st9{opacity:0.9;fill:#FFFFFF;}
	.st10{opacity:0.9;fill:none;stroke:#FBCD00;stroke-width:4;stroke-linecap:round;stroke-miterlimit:10;}
	.st11{opacity:0.2;fill:#FBCD00;}
	.st12{fill:#FDEA96;}
	.st13{fill:#FFFFFF;}
	.st14{fill:#1E3246;}
	.st15{fill:#D2DCF0;}
	.st16{fill:#FF6469;}
	.st17{fill:#FFE169;}
	.st18{fill:#87E1AA;}
	.st19{fill:#E4EAF6;}
	.st20{fill:#FFDC69;}
	.st21{fill:#D2555F;}
	.st22{fill:#DEE3ED;}
	.st23{fill:#B4E173;}
	.st24{fill:#FF969B;}
	.st25{fill:#A0DCF0;}
	.st26{fill:#C3B4FA;}
	.st27{fill:#91E6BE;}
	.st28{opacity:0.9;fill:none;stroke:#1E3246;stroke-width:4;stroke-linecap:round;stroke-miterlimit:10;}
	.st29{opacity:0.3;fill:#FDE680;}
	.st30{fill:#30BAFF;}
	.st31{fill:#FEF1BA;}
	.st32{fill:#FCD52B;}
	.st33{fill:#FFF9E0;}
	.st34{opacity:0.1;fill:#1E3246;}
	.st35{opacity:0.3;fill:#80D4FF;}
	.st36{opacity:0.3;fill:#00AAFF;stroke:#FFFFFF;stroke-miterlimit:10;}
	.st37{fill:none;stroke:#000000;stroke-width:14;stroke-miterlimit:10;}
</style>
<g id="Layer_1">

		<image style="overflow:visible;" width="1822" height="4994" id="XMLID_1_" xlink:href="../Supplied/v3.png"  transform="matrix(1 0 0 1 1126.858 789.7863)">
	</image>
</g>
<g id="Layer_2">
	<circle id="XMLID_379_" class="st0" cx="626.9" cy="3787.4" r="92.2"/>
	<circle id="XMLID_380_" class="st1" cx="457.3" cy="3893" r="53.2"/>
	<circle id="XMLID_382_" class="st2" cx="695.8" cy="3642.3" r="50.3"/>
	<polygon id="XMLID_160_" class="st3" points="470.4,3127.8 447.8,3088.7 470.4,3049.5 515.6,3049.5 538.2,3088.7 515.6,3127.8 	"/>
	<circle id="XMLID_95_" class="st4" cx="294" cy="3003" r="15.2"/>
	<circle id="XMLID_351_" class="st5" cx="545.6" cy="4080.4" r="5.8"/>
	<circle id="XMLID_352_" class="st5" cx="684.6" cy="4080.4" r="5.8"/>
	<circle id="XMLID_354_" class="st5" cx="545.6" cy="4321.4" r="5.8"/>
	<circle id="XMLID_353_" class="st5" cx="684.6" cy="4321.4" r="5.8"/>
	<circle id="XMLID_355_" class="st5" cx="754.6" cy="4201.4" r="5.8"/>
	<circle id="XMLID_356_" class="st5" cx="475.6" cy="4201.4" r="5.8"/>
	<circle id="XMLID_8_" class="st6" cx="402" cy="3260.6" r="15.2"/>
	<circle id="XMLID_9_" class="st7" cx="294" cy="3084" r="6.2"/>
	<circle id="XMLID_10_" class="st6" cx="335.7" cy="3093" r="6.2"/>
	<circle id="XMLID_16_" class="st8" cx="438" cy="3237" r="6.2"/>
	<circle id="XMLID_149_" class="st8" cx="334.3" cy="3049.2" r="22.5"/>
	<circle id="XMLID_158_" class="st5" cx="492.8" cy="3091.1" r="138.3"/>
	<circle id="XMLID_147_" class="st9" cx="492.8" cy="3091.1" r="138.3"/>
	<path id="XMLID_11_" class="st10" d="M449.9,2939.7c13.6-3.9,28-5.9,42.9-5.9c21.7,0,42.4,4.4,61.2,12.4c18.8,8,35.8,19.5,50,33.7
		c14.2,14.2,25.7,31.2,33.7,50s12.4,39.5,12.4,61.2s-4.4,42.4-12.4,61.2c-8,18.8-19.5,35.8-33.7,50c-14.2,14.2-31.2,25.7-50,33.7"/>
	<path id="XMLID_7_" class="st10" d="M431.6,2946.1c2.8-1.2,5.7-2.3,8.7-3.4c0.2-0.1,0.4-0.2,0.6-0.2"/>
	<circle id="XMLID_159_" class="st11" cx="492.8" cy="3091.1" r="125.6"/>
	<circle id="XMLID_4_" class="st11" cx="492.8" cy="3091.1" r="103.3"/>
	<circle id="XMLID_5_" class="st11" cx="492.8" cy="3091.1" r="85.3"/>
	<circle id="XMLID_6_" class="st11" cx="492.8" cy="3091.1" r="67.3"/>
	<circle id="XMLID_148_" class="st12" cx="358.9" cy="2932.8" r="53"/>
	<path id="XMLID_15_" class="st10" d="M416,2956.9c-3.1,7.4-7.7,14.1-13.3,19.7s-12.3,10.1-19.7,13.3s-15.6,4.9-24.1,4.9"/>
	<path id="XMLID_13_" class="st10" d="M315,2976.6c-5.6-5.6-10.1-12.3-13.3-19.7c-3.1-7.4-4.9-15.6-4.9-24.1
		c0-8.6,1.7-16.7,4.9-24.1c3.1-7.4,7.7-14.1,13.3-19.7s12.3-10.1,19.7-13.3c7.4-3.1,15.6-4.9,24.1-4.9c8.6,0,16.7,1.7,24.1,4.9
		c7.4,3.1,14.1,7.7,19.7,13.3s10.1,12.3,13.3,19.7c3.1,7.4,4.9,15.6,4.9,24.1"/>
	<path id="XMLID_12_" class="st10" d="M334.7,2989.9c-3.8-1.6-7.5-3.6-10.9-5.9c0,0,0,0,0,0"/>
	<g id="XMLID_155_">
		<path id="XMLID_138_" class="st0" d="M547.3,3064.8v-21.4c0-4.6-3.8-8.4-8.4-8.4h-92.3c-4.6,0-8.4,3.8-8.4,8.4v21.4
			c0,2.7,1.3,5,3.2,6.6c-2,1.5-3.2,3.9-3.2,6.6v21.4c0,2.7,1.3,5,3.2,6.6c-2,1.5-3.2,3.9-3.2,6.6v21.4c0,4.6,3.8,8.4,8.4,8.4H539
			c4.6,0,8.4-3.8,8.4-8.4v-21.4c0-2.7-1.3-5-3.2-6.6c2-1.5,3.2-3.9,3.2-6.6V3078c0-2.7-1.3-5-3.2-6.6
			C546.1,3069.9,547.3,3067.5,547.3,3064.8z"/>
		<g id="XMLID_97_">
			<path id="XMLID_139_" class="st13" d="M457.3,3058.7c-2.5,0-4.5-2-4.5-4.5s2-4.5,4.5-4.5s4.5,2,4.5,4.5
				S459.8,3058.7,457.3,3058.7z"/>
			<circle id="XMLID_93_" class="st5" cx="529.1" cy="3051.4" r="1.8"/>
			<circle id="XMLID_92_" class="st5" cx="521.9" cy="3051.4" r="1.8"/>
			<circle id="XMLID_91_" class="st5" cx="532.8" cy="3056.9" r="1.8"/>
			<circle id="XMLID_90_" class="st5" cx="525.5" cy="3056.9" r="1.8"/>
			<circle id="XMLID_89_" class="st5" cx="514.6" cy="3051.4" r="1.8"/>
			<circle id="XMLID_88_" class="st5" cx="518.2" cy="3056.9" r="1.8"/>
			<circle id="XMLID_87_" class="st5" cx="507.3" cy="3051.4" r="1.8"/>
			<circle id="XMLID_86_" class="st5" cx="511" cy="3056.9" r="1.8"/>
			<circle id="XMLID_85_" class="st5" cx="500.1" cy="3051.4" r="1.8"/>
			<circle id="XMLID_84_" class="st5" cx="503.7" cy="3056.9" r="1.8"/>
			<path id="XMLID_124_" class="st14" d="M547.3,3064.8v-21.4c0-4.6-3.8-8.4-8.4-8.4h-92.3c-4.6,0-8.4,3.8-8.4,8.4v21.4
				c0,2.7,1.3,5,3.2,6.6c-2,1.5-3.2,3.9-3.2,6.6v21.4c0,2.7,1.3,5,3.2,6.6c-2,1.5-3.2,3.9-3.2,6.6v21.4c0,4.6,3.8,8.4,8.4,8.4H539
				c4.6,0,8.4-3.8,8.4-8.4v-21.4c0-2.7-1.3-5-3.2-6.6c2-1.5,3.2-3.9,3.2-6.6V3078c0-2.7-1.3-5-3.2-6.6
				C546.1,3069.9,547.3,3067.5,547.3,3064.8z M543.7,3112.5v21.4c0,2.6-2.1,4.7-4.7,4.7h-92.3c-2.6,0-4.7-2.1-4.7-4.7v-21.4
				c0-2.6,2.1-4.7,4.7-4.7H539C541.6,3107.8,543.7,3109.9,543.7,3112.5z M543.7,3078v21.4c0,2.6-2.1,4.7-4.7,4.7h-92.3
				c-2.6,0-4.7-2.1-4.7-4.7V3078c0-2.6,2.1-4.7,4.7-4.7H539C541.6,3073.2,543.7,3075.3,543.7,3078z M446.6,3069.6
				c-2.6,0-4.7-2.1-4.7-4.7v-21.4c0-2.6,2.1-4.7,4.7-4.7H539c2.6,0,4.7,2.1,4.7,4.7v21.4c0,2.6-2.1,4.7-4.7,4.7L446.6,3069.6
				L446.6,3069.6z"/>
			<path id="XMLID_121_" class="st13" d="M457.3,3084.1c2.5,0,4.5,2,4.5,4.5s-2,4.5-4.5,4.5s-4.5-2-4.5-4.5
				S454.8,3084.1,457.3,3084.1z"/>
			<circle id="XMLID_77_" class="st5" cx="529.1" cy="3086" r="1.8"/>
			<circle id="XMLID_76_" class="st5" cx="521.9" cy="3086" r="1.8"/>
			<circle id="XMLID_75_" class="st5" cx="532.8" cy="3091.4" r="1.8"/>
			<circle id="XMLID_74_" class="st5" cx="525.5" cy="3091.4" r="1.8"/>
			<circle id="XMLID_73_" class="st5" cx="514.6" cy="3086" r="1.8"/>
			<circle id="XMLID_72_" class="st5" cx="518.2" cy="3091.4" r="1.8"/>
			<circle id="XMLID_71_" class="st5" cx="507.3" cy="3086" r="1.8"/>
			<circle id="XMLID_70_" class="st5" cx="511" cy="3091.4" r="1.8"/>
			<circle id="XMLID_69_" class="st5" cx="500.1" cy="3086" r="1.8"/>
			<circle id="XMLID_68_" class="st5" cx="503.7" cy="3091.4" r="1.8"/>
			<path id="XMLID_108_" class="st13" d="M457.3,3118.7c2.5,0,4.5,2,4.5,4.5s-2,4.5-4.5,4.5s-4.5-2-4.5-4.5
				S454.8,3118.7,457.3,3118.7z"/>
			<circle id="XMLID_65_" class="st5" cx="529.1" cy="3120.5" r="1.8"/>
			<circle id="XMLID_64_" class="st5" cx="521.9" cy="3120.5" r="1.8"/>
			<circle id="XMLID_63_" class="st5" cx="532.8" cy="3126" r="1.8"/>
			<circle id="XMLID_62_" class="st5" cx="525.5" cy="3126" r="1.8"/>
			<circle id="XMLID_61_" class="st5" cx="514.6" cy="3120.5" r="1.8"/>
			<circle id="XMLID_60_" class="st5" cx="518.2" cy="3126" r="1.8"/>
			<circle id="XMLID_59_" class="st5" cx="507.3" cy="3120.5" r="1.8"/>
			<circle id="XMLID_58_" class="st5" cx="511" cy="3126" r="1.8"/>
			<circle id="XMLID_57_" class="st5" cx="500.1" cy="3120.5" r="1.8"/>
			<circle id="XMLID_56_" class="st5" cx="503.7" cy="3126" r="1.8"/>
		</g>
	</g>
	<polygon id="XMLID_309_" class="st5" points="-99.7,3209.4 -169.4,3088.7 -99.7,2968 39.7,2968 109.3,3088.7 39.7,3209.4 	"/>
	<polygon id="XMLID_350_" class="st10" points="545.7,4321.8 476.1,4201.1 545.7,4080.4 685.1,4080.4 754.8,4201.1 685.1,4321.8
		"/>
	<g id="XMLID_363_">
		<circle id="XMLID_362_" class="st5" cx="545.6" cy="4080.4" r="5.8"/>
		<circle id="XMLID_361_" class="st5" cx="684.6" cy="4080.4" r="5.8"/>
		<circle id="XMLID_360_" class="st5" cx="545.6" cy="4321.4" r="5.8"/>
		<circle id="XMLID_359_" class="st5" cx="684.6" cy="4321.4" r="5.8"/>
		<circle id="XMLID_358_" class="st5" cx="754.6" cy="4201.4" r="5.8"/>
		<circle id="XMLID_357_" class="st5" cx="475.6" cy="4201.4" r="5.8"/>
		<polygon id="XMLID_349_" class="st10" points="545.7,4321.8 476.1,4201.1 545.7,4080.4 685.1,4080.4 754.8,4201.1 685.1,4321.8
			"/>
	</g>
	<g id="XMLID_364_">
		<circle id="XMLID_366_" class="st5" cx="587.9" cy="4201" r="4"/>
		<circle id="XMLID_372_" class="st5" cx="643.9" cy="4201" r="4"/>
		<circle id="XMLID_368_" class="st5" cx="601.9" cy="4177" r="4"/>
		<circle id="XMLID_369_" class="st5" cx="629.9" cy="4177" r="4"/>
		<circle id="XMLID_371_" class="st5" cx="601.9" cy="4225" r="4"/>
		<circle id="XMLID_370_" class="st5" cx="629.9" cy="4225" r="4"/>
		<polygon id="XMLID_365_" class="st10" points="601.1,4225.4 587,4200.9 601.1,4176.5 629.3,4176.5 643.5,4200.9 629.3,4225.4
			"/>
	</g>
	<polygon id="XMLID_308_" class="st3" points="-88.5,3190 -147,3088.7 -88.5,2987.4 28.5,2987.4 86.9,3088.7 28.5,3190 	"/>
	<polygon id="XMLID_307_" class="st3" points="-72.1,3161.5 -114.1,3088.7 -72.1,3015.9 12,3015.9 54.1,3088.7 12,3161.5 	"/>
	<polygon id="XMLID_306_" class="st3" points="-52.6,3127.8 -75.2,3088.7 -52.6,3049.5 -7.4,3049.5 15.2,3088.7 -7.4,3127.8 	"/>
	<g id="XMLID_249_">
		<path id="XMLID_305_" class="st13" d="M17.4,3067.9v-18.7c0-4-3.3-7.3-7.3-7.3h-80.6c-4,0-7.3,3.3-7.3,7.3v18.7
			c0,2.3,1.1,4.4,2.8,5.7c-1.7,1.3-2.8,3.4-2.8,5.7v18.7c0,2.3,1.1,4.4,2.8,5.7c-1.7,1.3-2.8,3.4-2.8,5.7v18.7c0,4,3.3,7.3,7.3,7.3
			h80.6c4,0,7.3-3.3,7.3-7.3v-18.7c0-2.3-1.1-4.4-2.8-5.7c1.7-1.3,2.8-3.4,2.8-5.7v-18.7c0-2.3-1.1-4.4-2.8-5.7
			C16.3,3072.3,17.4,3070.2,17.4,3067.9z"/>
		<g id="XMLID_250_">
			<path id="XMLID_303_" class="st0" d="M-61.2,3062.5c-2.2,0-4-1.8-4-4c0-2.2,1.8-4,4-4s4,1.8,4,4
				C-57.2,3060.7-59,3062.5-61.2,3062.5z"/>
			<circle id="XMLID_302_" class="st5" cx="1.5" cy="3056.1" r="1.6"/>
			<circle id="XMLID_301_" class="st5" cx="-4.8" cy="3056.1" r="1.6"/>
			<circle id="XMLID_300_" class="st5" cx="4.7" cy="3060.9" r="1.6"/>
			<circle id="XMLID_299_" class="st5" cx="-1.6" cy="3060.9" r="1.6"/>
			<circle id="XMLID_298_" class="st5" cx="-11.2" cy="3056.1" r="1.6"/>
			<circle id="XMLID_297_" class="st5" cx="-8" cy="3060.9" r="1.6"/>
			<circle id="XMLID_296_" class="st5" cx="-17.5" cy="3056.1" r="1.6"/>
			<circle id="XMLID_295_" class="st5" cx="-14.3" cy="3060.9" r="1.6"/>
			<circle id="XMLID_294_" class="st5" cx="-23.9" cy="3056.1" r="1.6"/>
			<circle id="XMLID_293_" class="st5" cx="-20.7" cy="3060.9" r="1.6"/>
			<path id="XMLID_288_" class="st14" d="M17.4,3067.9v-18.7c0-4-3.3-7.3-7.3-7.3h-80.6c-4,0-7.3,3.3-7.3,7.3v18.7
				c0,2.3,1.1,4.4,2.8,5.7c-1.7,1.3-2.8,3.4-2.8,5.7v18.7c0,2.3,1.1,4.4,2.8,5.7c-1.7,1.3-2.8,3.4-2.8,5.7v18.7c0,4,3.3,7.3,7.3,7.3
				h80.6c4,0,7.3-3.3,7.3-7.3v-18.7c0-2.3-1.1-4.4-2.8-5.7c1.7-1.3,2.8-3.4,2.8-5.7v-18.7c0-2.3-1.1-4.4-2.8-5.7
				C16.3,3072.3,17.4,3070.2,17.4,3067.9z M14.2,3109.5v18.7c0,2.3-1.9,4.1-4.1,4.1h-80.6c-2.3,0-4.1-1.9-4.1-4.1v-18.7
				c0-2.3,1.9-4.1,4.1-4.1h80.6C12.4,3105.3,14.2,3107.2,14.2,3109.5z M14.2,3079.3v18.7c0,2.3-1.9,4.1-4.1,4.1h-80.6
				c-2.3,0-4.1-1.9-4.1-4.1v-18.7c0-2.3,1.9-4.1,4.1-4.1h80.6C12.4,3075.2,14.2,3077,14.2,3079.3z M-70.5,3072
				c-2.3,0-4.1-1.9-4.1-4.1v-18.7c0-2.3,1.9-4.1,4.1-4.1h80.6c2.3,0,4.1,1.9,4.1,4.1v18.7c0,2.3-1.9,4.1-4.1,4.1L-70.5,3072
				L-70.5,3072z"/>
			<path id="XMLID_286_" class="st0" d="M-61.2,3084.7c2.2,0,4,1.8,4,4c0,2.2-1.8,4-4,4s-4-1.8-4-4
				C-65.1,3086.5-63.4,3084.7-61.2,3084.7z"/>
			<circle id="XMLID_285_" class="st5" cx="1.5" cy="3086.3" r="1.6"/>
			<circle id="XMLID_284_" class="st5" cx="-4.8" cy="3086.3" r="1.6"/>
			<circle id="XMLID_283_" class="st5" cx="4.7" cy="3091.1" r="1.6"/>
			<circle id="XMLID_282_" class="st5" cx="-1.6" cy="3091.1" r="1.6"/>
			<circle id="XMLID_281_" class="st5" cx="-11.2" cy="3086.3" r="1.6"/>
			<circle id="XMLID_280_" class="st5" cx="-8" cy="3091.1" r="1.6"/>
			<circle id="XMLID_279_" class="st5" cx="-17.5" cy="3086.3" r="1.6"/>
			<circle id="XMLID_278_" class="st5" cx="-14.3" cy="3091.1" r="1.6"/>
			<circle id="XMLID_277_" class="st5" cx="-23.9" cy="3086.3" r="1.6"/>
			<circle id="XMLID_276_" class="st5" cx="-20.7" cy="3091.1" r="1.6"/>
			<path id="XMLID_274_" class="st0" d="M-61.2,3114.9c2.2,0,4,1.8,4,4s-1.8,4-4,4s-4-1.8-4-4S-63.4,3114.9-61.2,3114.9z"/>
			<circle id="XMLID_272_" class="st5" cx="1.5" cy="3116.5" r="1.6"/>
			<circle id="XMLID_271_" class="st5" cx="-4.8" cy="3116.5" r="1.6"/>
			<circle id="XMLID_268_" class="st5" cx="4.7" cy="3121.2" r="1.6"/>
			<circle id="XMLID_267_" class="st5" cx="-1.6" cy="3121.2" r="1.6"/>
			<circle id="XMLID_266_" class="st5" cx="-11.2" cy="3116.5" r="1.6"/>
			<circle id="XMLID_265_" class="st5" cx="-8" cy="3121.2" r="1.6"/>
			<circle id="XMLID_264_" class="st5" cx="-17.5" cy="3116.5" r="1.6"/>
			<circle id="XMLID_263_" class="st5" cx="-14.3" cy="3121.2" r="1.6"/>
			<circle id="XMLID_260_" class="st5" cx="-23.9" cy="3116.5" r="1.6"/>
			<circle id="XMLID_255_" class="st5" cx="-20.7" cy="3121.2" r="1.6"/>
		</g>
	</g>
	<path id="XMLID_269_" class="st15" d="M710.1,2591.6H526.9c-5.8,0-10.6,4.7-10.6,10.6V2736c0,5.8,4.7,10.6,10.6,10.6h183.2
		c5.8,0,10.6-4.7,10.6-10.6v-133.9C720.7,2596.3,716,2591.6,710.1,2591.6z M692.5,2598.6h3.5c1.9,0,3.5,1.6,3.5,3.5
		s-1.6,3.5-3.5,3.5h-3.5c-1.9,0-3.5-1.6-3.5-3.5C689,2600.2,690.6,2598.6,692.5,2598.6z M593.8,2598.6h84.6c1.9,0,3.5,1.6,3.5,3.5
		s-1.6,3.5-3.5,3.5h-84.6c-1.9,0-3.5-1.6-3.5-3.5S591.9,2598.6,593.8,2598.6z M576.2,2598.6h3.5c1.9,0,3.5,1.6,3.5,3.5
		s-1.6,3.5-3.5,3.5h-3.5c-1.9,0-3.5-1.6-3.5-3.5S574.3,2598.6,576.2,2598.6z M562.1,2598.6h3.5c1.9,0,3.5,1.6,3.5,3.5
		s-1.6,3.5-3.5,3.5h-3.5c-1.9,0-3.5-1.6-3.5-3.5S560.2,2598.6,562.1,2598.6z M548,2598.6c1.9,0,3.5,1.6,3.5,3.5s-1.6,3.5-3.5,3.5
		s-3.5-1.6-3.5-3.5C544.5,2600.2,546.1,2598.6,548,2598.6z M537.5,2598.6c1.9,0,3.5,1.6,3.5,3.5s-1.6,3.5-3.5,3.5
		c-1.9,0-3.5-1.6-3.5-3.5S535.5,2598.6,537.5,2598.6z M526.9,2598.6c1.9,0,3.5,1.6,3.5,3.5s-1.6,3.5-3.5,3.5c-1.9,0-3.5-1.6-3.5-3.5
		S524.9,2598.6,526.9,2598.6z M713.6,2633.8V2736c0,1.9-1.6,3.5-3.5,3.5H526.9c-1.9,0-3.5-1.6-3.5-3.5v-102.2v-17.6
		c0-1.9,1.6-3.5,3.5-3.5h183.2c1.9,0,3.5,1.6,3.5,3.5V2633.8z M710.1,2605.7h-3.5c-1.9,0-3.5-1.6-3.5-3.5c0-1.9,1.6-3.5,3.5-3.5h3.5
		c1.9,0,3.5,1.6,3.5,3.5C713.6,2604.1,712.1,2605.7,710.1,2605.7z"/>
	<path id="XMLID_261_" class="st13" d="M523.4,2736c0,1.9,1.6,3.5,3.5,3.5h183.2c1.9,0,3.5-1.6,3.5-3.5v-102.2H523.4V2736z
		 M674.9,2651.5v-3.5c0-1.9,1.6-3.5,3.5-3.5h21.1c1.9,0,3.5,1.6,3.5,3.5v3.5v28.2c0,1.9-1.6,3.5-3.5,3.5h-21.1
		c-1.9,0-3.5-1.6-3.5-3.5V2651.5z M636.1,2651.5v-3.5c0-1.9,1.6-3.5,3.5-3.5h21.1c1.9,0,3.5,1.6,3.5,3.5v3.5v28.2
		c0,1.9-1.6,3.5-3.5,3.5h-21.1c-1.9,0-3.5-1.6-3.5-3.5V2651.5z M636.1,2697.3c0-1.9,1.6-3.5,3.5-3.5h3.5h56.4c1.9,0,3.5,1.6,3.5,3.5
		v28.2c0,1.9-1.6,3.5-3.5,3.5h-56.4h-3.5c-1.9,0-3.5-1.6-3.5-3.5L636.1,2697.3L636.1,2697.3z M597.4,2651.5v-3.5
		c0-1.9,1.6-3.5,3.5-3.5H622c1.9,0,3.5,1.6,3.5,3.5v3.5v28.2c0,1.9-1.6,3.5-3.5,3.5h-21.1c-1.9,0-3.5-1.6-3.5-3.5V2651.5z
		 M533.9,2651.5v-3.5c0-1.9,1.6-3.5,3.5-3.5h45.8c1.9,0,3.5,1.6,3.5,3.5v3.5v28.2c0,1.9-1.6,3.5-3.5,3.5h-45.8
		c-1.9,0-3.5-1.6-3.5-3.5V2651.5z M533.9,2697.3c0-1.9,1.6-3.5,3.5-3.5h3.5h81c1.9,0,3.5,1.6,3.5,3.5v28.2c0,1.9-1.6,3.5-3.5,3.5
		h-81h-3.5c-1.9,0-3.5-1.6-3.5-3.5L533.9,2697.3L533.9,2697.3z"/>
	<circle id="XMLID_204_" class="st16" cx="526.9" cy="2602.1" r="3.5"/>
	<circle id="XMLID_203_" class="st17" cx="537.5" cy="2602.1" r="3.5"/>
	<circle id="XMLID_202_" class="st18" cx="548" cy="2602.1" r="3.5"/>
	<g id="XMLID_252_">
		<path id="XMLID_201_" class="st19" d="M562.1,2605.7h3.5c1.9,0,3.5-1.6,3.5-3.5c0-1.9-1.6-3.5-3.5-3.5h-3.5
			c-1.9,0-3.5,1.6-3.5,3.5C558.6,2604.1,560.2,2605.7,562.1,2605.7z"/>
		<path id="XMLID_200_" class="st19" d="M576.2,2605.7h3.5c1.9,0,3.5-1.6,3.5-3.5c0-1.9-1.6-3.5-3.5-3.5h-3.5
			c-1.9,0-3.5,1.6-3.5,3.5C572.7,2604.1,574.3,2605.7,576.2,2605.7z"/>
		<path id="XMLID_199_" class="st19" d="M692.5,2605.7h3.5c1.9,0,3.5-1.6,3.5-3.5c0-1.9-1.6-3.5-3.5-3.5h-3.5
			c-1.9,0-3.5,1.6-3.5,3.5C689,2604.1,690.6,2605.7,692.5,2605.7z"/>
		<path id="XMLID_198_" class="st19" d="M710.1,2598.6h-3.5c-1.9,0-3.5,1.6-3.5,3.5s1.6,3.5,3.5,3.5h3.5c1.9,0,3.5-1.6,3.5-3.5
			S712.1,2598.6,710.1,2598.6z"/>
		<path id="XMLID_197_" class="st19" d="M593.8,2605.7h84.6c1.9,0,3.5-1.6,3.5-3.5c0-1.9-1.6-3.5-3.5-3.5h-84.6
			c-1.9,0-3.5,1.6-3.5,3.5C590.3,2604.1,591.9,2605.7,593.8,2605.7z"/>
	</g>
	<path id="XMLID_244_" class="st16" d="M710.1,2612.7H526.9c-1.9,0-3.5,1.6-3.5,3.5v17.6h190.3v-17.6
		C713.6,2614.3,712.1,2612.7,710.1,2612.7z M562.1,2626.8h-28.2c-1.9,0-3.5-1.6-3.5-3.5s1.6-3.5,3.5-3.5h28.2c1.9,0,3.5,1.6,3.5,3.5
		S564.1,2626.8,562.1,2626.8z M590.3,2626.8h-14.1c-1.9,0-3.5-1.6-3.5-3.5s1.6-3.5,3.5-3.5h14.1c1.9,0,3.5,1.6,3.5,3.5
		S592.3,2626.8,590.3,2626.8z M618.5,2626.8h-14.1c-1.9,0-3.5-1.6-3.5-3.5s1.6-3.5,3.5-3.5h14.1c1.9,0,3.5,1.6,3.5,3.5
		S620.5,2626.8,618.5,2626.8z M646.7,2626.8h-14.1c-1.9,0-3.5-1.6-3.5-3.5s1.6-3.5,3.5-3.5h14.1c1.9,0,3.5,1.6,3.5,3.5
		S648.6,2626.8,646.7,2626.8z M674.9,2626.8h-14.1c-1.9,0-3.5-1.6-3.5-3.5s1.6-3.5,3.5-3.5h14.1c1.9,0,3.5,1.6,3.5,3.5
		S676.8,2626.8,674.9,2626.8z M703.1,2626.8H689c-1.9,0-3.5-1.6-3.5-3.5s1.6-3.5,3.5-3.5h14.1c1.9,0,3.5,1.6,3.5,3.5
		S705,2626.8,703.1,2626.8z"/>
	<path id="XMLID_189_" class="st20" d="M562.1,2619.7h-28.2c-1.9,0-3.5,1.6-3.5,3.5c0,1.9,1.6,3.5,3.5,3.5h28.2
		c1.9,0,3.5-1.6,3.5-3.5C565.6,2621.3,564.1,2619.7,562.1,2619.7z"/>
	<g id="XMLID_237_">
		<path id="XMLID_188_" class="st21" d="M590.3,2619.7h-14.1c-1.9,0-3.5,1.6-3.5,3.5c0,1.9,1.6,3.5,3.5,3.5h14.1
			c1.9,0,3.5-1.6,3.5-3.5C593.8,2621.3,592.3,2619.7,590.3,2619.7z"/>
		<path id="XMLID_187_" class="st21" d="M618.5,2619.7h-14.1c-1.9,0-3.5,1.6-3.5,3.5c0,1.9,1.6,3.5,3.5,3.5h14.1
			c1.9,0,3.5-1.6,3.5-3.5C622,2621.3,620.5,2619.7,618.5,2619.7z"/>
		<path id="XMLID_183_" class="st21" d="M646.7,2619.7h-14.1c-1.9,0-3.5,1.6-3.5,3.5c0,1.9,1.6,3.5,3.5,3.5h14.1
			c1.9,0,3.5-1.6,3.5-3.5C650.2,2621.3,648.6,2619.7,646.7,2619.7z"/>
		<path id="XMLID_180_" class="st21" d="M674.9,2619.7h-14.1c-1.9,0-3.5,1.6-3.5,3.5c0,1.9,1.6,3.5,3.5,3.5h14.1
			c1.9,0,3.5-1.6,3.5-3.5C678.4,2621.3,676.8,2619.7,674.9,2619.7z"/>
		<path id="XMLID_177_" class="st21" d="M703.1,2619.7H689c-1.9,0-3.5,1.6-3.5,3.5c0,1.9,1.6,3.5,3.5,3.5h14.1
			c1.9,0,3.5-1.6,3.5-3.5C706.6,2621.3,705,2619.7,703.1,2619.7z"/>
	</g>
	<g id="XMLID_232_">
		<path id="XMLID_176_" class="st22" d="M537.5,2683.2h45.8c1.9,0,3.5-1.6,3.5-3.5v-28.2c0,1.9-1.6,3.5-3.5,3.5h-45.8
			c-1.9,0-3.5-1.6-3.5-3.5v28.2C533.9,2681.6,535.5,2683.2,537.5,2683.2z"/>
		<path id="XMLID_172_" class="st22" d="M600.9,2683.2H622c1.9,0,3.5-1.6,3.5-3.5v-28.2c0,1.9-1.6,3.5-3.5,3.5h-21.1
			c-1.9,0-3.5-1.6-3.5-3.5v28.2C597.4,2681.6,598.9,2683.2,600.9,2683.2z"/>
		<path id="XMLID_171_" class="st22" d="M639.6,2683.2h21.1c1.9,0,3.5-1.6,3.5-3.5v-28.2c0,1.9-1.6,3.5-3.5,3.5h-21.1
			c-1.9,0-3.5-1.6-3.5-3.5v28.2C636.1,2681.6,637.7,2683.2,639.6,2683.2z"/>
		<path id="XMLID_167_" class="st22" d="M678.4,2683.2h21.1c1.9,0,3.5-1.6,3.5-3.5v-28.2c0,1.9-1.6,3.5-3.5,3.5h-21.1
			c-1.9,0-3.5-1.6-3.5-3.5v28.2C674.9,2681.6,676.5,2683.2,678.4,2683.2z"/>
	</g>
	<path id="XMLID_166_" class="st20" d="M537.5,2655h45.8c1.9,0,3.5-1.6,3.5-3.5v-3.5c0-1.9-1.6-3.5-3.5-3.5h-45.8
		c-1.9,0-3.5,1.6-3.5,3.5v3.5C533.9,2653.4,535.5,2655,537.5,2655z"/>
	<path id="XMLID_162_" class="st23" d="M600.9,2655H622c1.9,0,3.5-1.6,3.5-3.5v-3.5c0-1.9-1.6-3.5-3.5-3.5h-21.1
		c-1.9,0-3.5,1.6-3.5,3.5v3.5C597.4,2653.4,598.9,2655,600.9,2655z"/>
	<path id="XMLID_161_" class="st24" d="M639.6,2655h21.1c1.9,0,3.5-1.6,3.5-3.5v-3.5c0-1.9-1.6-3.5-3.5-3.5h-21.1
		c-1.9,0-3.5,1.6-3.5,3.5v3.5C636.1,2653.4,637.7,2655,639.6,2655z"/>
	<path id="XMLID_157_" class="st25" d="M678.4,2655h21.1c1.9,0,3.5-1.6,3.5-3.5v-3.5c0-1.9-1.6-3.5-3.5-3.5h-21.1
		c-1.9,0-3.5,1.6-3.5,3.5v3.5C674.9,2653.4,676.5,2655,678.4,2655z"/>
	<g id="XMLID_225_">
		<path id="XMLID_156_" class="st22" d="M544.5,2697.3v28.2c0,1.9-1.6,3.5-3.5,3.5h81c1.9,0,3.5-1.6,3.5-3.5v-28.2
			c0-1.9-1.6-3.5-3.5-3.5h-81C542.9,2693.7,544.5,2695.3,544.5,2697.3z"/>
		<path id="XMLID_151_" class="st22" d="M646.7,2697.3v28.2c0,1.9-1.6,3.5-3.5,3.5h56.4c1.9,0,3.5-1.6,3.5-3.5v-28.2
			c0-1.9-1.6-3.5-3.5-3.5h-56.4C645.1,2693.7,646.7,2695.3,646.7,2697.3z"/>
	</g>
	<path id="XMLID_150_" class="st26" d="M537.5,2729h3.5c1.9,0,3.5-1.6,3.5-3.5v-28.2c0-1.9-1.6-3.5-3.5-3.5h-3.5
		c-1.9,0-3.5,1.6-3.5,3.5v28.2C533.9,2727.4,535.5,2729,537.5,2729z"/>
	<path id="XMLID_145_" class="st27" d="M639.6,2729h3.5c1.9,0,3.5-1.6,3.5-3.5v-28.2c0-1.9-1.6-3.5-3.5-3.5h-3.5
		c-1.9,0-3.5,1.6-3.5,3.5v28.2C636.1,2727.4,637.7,2729,639.6,2729z"/>
	<g id="XMLID_153_">
		<path id="XMLID_134_" class="st13" d="M411,2939.2h-54.6c-5.3,0-9.5,4.3-9.5,9.5v110.9c0,5.3,4.3,9.5,9.5,9.5H411
			c5.3,0,9.5-4.3,9.5-9.5v-110.9C420.6,2943.5,416.3,2939.2,411,2939.2z"/>
		<rect id="XMLID_67_" x="351.3" y="2956.5" class="st0" width="65" height="82.3"/>
		<g id="XMLID_262_">
			<path id="XMLID_273_" class="st14" d="M411,2939.2h-54.6c-5.3,0-9.5,4.3-9.5,9.5v110.9c0,5.3,4.3,9.5,9.5,9.5H411
				c5.3,0,9.5-4.3,9.5-9.5v-110.9C420.6,2943.5,416.3,2939.2,411,2939.2z M351.3,2956.5h65v82.3h-65V2956.5z M356.5,2943.5H411
				c2.9,0,5.2,2.3,5.2,5.2v3.5h-65v-3.5C351.3,2945.9,353.6,2943.5,356.5,2943.5z M411,3064.8h-54.6c-2.9,0-5.2-2.3-5.2-5.2v-16.5
				h65v16.5C416.2,3062.5,413.9,3064.8,411,3064.8z"/>
			<path id="XMLID_270_" class="st0" d="M383.8,3058.8c-2.6,0-4.8-2.1-4.8-4.8c0-2.6,2.1-4.8,4.8-4.8c2.6,0,4.8,2.1,4.8,4.8
				C388.5,3056.6,386.4,3058.8,383.8,3058.8z"/>
			<path id="XMLID_253_" class="st14" d="M375.1,2950h8.7c1.2,0,2.2-1,2.2-2.2s-1-2.2-2.2-2.2h-8.7c-1.2,0-2.2,1-2.2,2.2
				S373.9,2950,375.1,2950z"/>
			<path id="XMLID_251_" class="st14" d="M390.2,2950h2.2c1.2,0,2.2-1,2.2-2.2s-1-2.2-2.2-2.2h-2.2c-1.2,0-2.2,1-2.2,2.2
				S389.1,2950,390.2,2950z"/>
		</g>
		<g id="XMLID_389_">
			<path id="XMLID_392_" class="st13" d="M380.5,2989v4.1h-4.9v-4.1H380.5z M380.3,2995.3v15h-4.6v-15H380.3z"/>
			<path id="XMLID_390_" class="st13" d="M382,2999v-3.6h2.4v-0.8c0-1.1,0.2-2,0.5-2.8c0.4-0.8,0.8-1.4,1.4-1.9
				c0.6-0.5,1.2-0.9,2-1.1c0.7-0.2,1.5-0.4,2.3-0.4c0.8,0,1.6,0.1,2.5,0.4c0.8,0.2,1.6,0.6,2.3,1.2l-1,1.5l-1,1.5
				c-0.3-0.2-0.7-0.4-1.1-0.5s-0.8-0.2-1.2-0.2c-0.6,0-1.2,0.2-1.5,0.6c-0.4,0.4-0.6,1-0.6,1.7v0.8h3.6v3.6H389v11.4h-4.6V2999H382z
				"/>
		</g>
	</g>
	<g id="XMLID_154_">
		<path id="XMLID_136_" class="st13" d="M421.9,3106.7H290.8c-1.2,0-2.1,0.9-2.1,2.1v27.1v101.7c0,1.2,0.9,2.1,2.1,2.1h131.1
			c1.2,0,2.1-0.9,2.1-2.1V3136v-27.1C424,3107.7,423.1,3106.7,421.9,3106.7z"/>
		<g id="XMLID_222_">
			<g id="XMLID_184_">
				<g id="XMLID_185_">
					<path id="XMLID_186_" class="st14" d="M421.9,3106.7H290.8c-1.2,0-2.1,0.9-2.1,2.1v27.1v101.7c0,1.2,0.9,2.1,2.1,2.1h131.1
						c1.2,0,2.1-0.9,2.1-2.1V3136v-27.1C424,3107.7,423.1,3106.7,421.9,3106.7z M419.8,3235.5H292.9v-97.5h126.8L419.8,3235.5
						L419.8,3235.5z M419.8,3133.8H292.9V3111h126.8L419.8,3133.8L419.8,3133.8z"/>
				</g>
			</g>
			<g id="XMLID_181_">
				<g id="XMLID_182_">
					<path id="XMLID_141_" class="st14" d="M401.6,3115.8h-24.9c-1.2,0-2.1,0.9-2.1,2.1c0,1.2,0.9,2.1,2.1,2.1h24.9
						c1.2,0,2.1-0.9,2.1-2.1S402.7,3115.8,401.6,3115.8z"/>
				</g>
			</g>
			<g id="XMLID_178_">
				<g id="XMLID_179_">
					<path id="XMLID_140_" class="st14" d="M412.9,3115.8h-4.5c-1.2,0-2.1,0.9-2.1,2.1c0,1.2,0.9,2.1,2.1,2.1h4.5
						c1.2,0,2.1-0.9,2.1-2.1C415,3116.7,414,3115.8,412.9,3115.8z"/>
				</g>
			</g>
			<g id="XMLID_173_">
				<g id="XMLID_174_">
					<path id="XMLID_175_" class="st14" d="M322.8,3124.7c-1.9,0-3.5-1.6-3.5-3.5c0-1.9,1.6-3.5,3.5-3.5c1.9,0,3.5,1.6,3.5,3.5
						C326.3,3123.2,324.7,3124.7,322.8,3124.7z"/>
				</g>
			</g>
			<g id="XMLID_168_">
				<g id="XMLID_169_">
					<path id="XMLID_170_" class="st14" d="M312,3124.7c-1.9,0-3.5-1.6-3.5-3.5c0-1.9,1.6-3.5,3.5-3.5c1.9,0,3.5,1.6,3.5,3.5
						C315.5,3123.2,313.9,3124.7,312,3124.7z"/>
				</g>
			</g>
			<g id="XMLID_163_">
				<g id="XMLID_164_">
					<path id="XMLID_165_" class="st14" d="M301.2,3124.7c-1.9,0-3.5-1.6-3.5-3.5c0-1.9,1.6-3.5,3.5-3.5s3.5,1.6,3.5,3.5
						C304.7,3123.2,303.1,3124.7,301.2,3124.7z"/>
				</g>
			</g>
		</g>
		<polygon id="XMLID_79_" class="st0" points="419.8,3235.5 292.9,3235.5 292.9,3138.1 419.8,3138.1 419.8,3235.5 		"/>
		<g id="XMLID_126_">
			<path id="XMLID_130_" class="st13" d="M350.5,3169.6v6.2h-7.4v-6.2H350.5z M350.3,3179.1v22.4h-6.9v-22.4H350.3z"/>
			<path id="XMLID_127_" class="st13" d="M352.7,3184.5v-5.4h3.6v-1.1c0-1.6,0.3-3,0.8-4.1c0.5-1.1,1.2-2.1,2.1-2.8
				c0.9-0.7,1.8-1.3,2.9-1.7c1.1-0.4,2.2-0.6,3.4-0.6c1.2,0,2.4,0.2,3.7,0.5c1.2,0.4,2.4,1,3.4,1.8l-1.5,2.2l-1.5,2.2
				c-0.5-0.4-1-0.6-1.6-0.8c-0.6-0.2-1.2-0.3-1.8-0.3c-1,0-1.7,0.3-2.3,0.9c-0.6,0.6-0.9,1.5-0.9,2.6v1.2h5.3v5.4h-5.3v17h-6.8v-17
				H352.7z"/>
		</g>
	</g>
	<circle id="XMLID_493_" class="st4" cx="583.9" cy="3760.7" r="22.7"/>
	<circle id="XMLID_374_" class="st4" cx="412.3" cy="3672.1" r="15.2"/>
	<circle id="XMLID_373_" class="st0" cx="449.1" cy="3580" r="32.3"/>
	<path id="XMLID_381_" class="st28" d="M423.5,3618c-12.2-8.2-20.2-22.2-20.2-38c0-25.3,20.5-45.8,45.8-45.8
		c17.2,0,32.2,9.5,40,23.5"/>
	<circle id="XMLID_376_" class="st29" cx="731.6" cy="3856" r="116.4"/>
	<circle id="XMLID_492_" class="st6" cx="469.1" cy="3733.7" r="27.1"/>
	<circle id="XMLID_377_" class="st0" cx="475.3" cy="3822.5" r="9"/>
	<circle id="XMLID_378_" class="st0" cx="505" cy="3822.5" r="12.9"/>
	<circle id="XMLID_375_" class="st6" cx="530" cy="3864.2" r="15.2"/>
	<circle id="XMLID_491_" class="st7" cx="412.3" cy="3630" r="6.2"/>
	<circle id="XMLID_490_" class="st14" cx="469.1" cy="3789.2" r="6.2"/>
	<circle id="XMLID_489_" class="st8" cx="571.5" cy="3933.2" r="6.2"/>
	<circle id="XMLID_488_" class="st30" cx="492.3" cy="3629" r="15.7"/>
	<path id="XMLID_485_" class="st10" d="M583.3,3636c13.6-3.9,28-5.9,42.9-5.9c21.7,0,42.4,4.4,61.2,12.4s35.8,19.5,50,33.7
		c14.2,14.2,25.7,31.2,33.7,50s12.4,39.5,12.4,61.2c0,21.7-4.4,42.4-12.4,61.2s-19.5,35.8-33.7,50c-14.2,14.2-31.2,25.7-50,33.7"/>
	<path id="XMLID_484_" class="st10" d="M565,3642.4c2.8-1.2,5.7-2.3,8.7-3.4c0.2-0.1,0.4-0.2,0.6-0.2"/>
	<circle id="XMLID_483_" class="st10" cx="626.2" cy="3787.3" r="125.6"/>
	<circle id="XMLID_481_" class="st10" cx="626.2" cy="3787.3" r="92.1"/>
	<circle id="XMLID_480_" class="st10" cx="626.2" cy="3787.3" r="53.6"/>
	<circle id="XMLID_479_" class="st10" cx="492.3" cy="3629" r="38.9"/>
	<path id="XMLID_478_" class="st28" d="M549.4,3653.2c-3.1,7.4-7.7,14.1-13.3,19.7c-5.6,5.6-12.3,10.1-19.7,13.3
		c-7.4,3.1-15.6,4.9-24.1,4.9"/>
	<path id="XMLID_477_" class="st28" d="M448.4,3672.9c-5.6-5.6-10.1-12.3-13.3-19.7c-3.1-7.4-4.9-15.6-4.9-24.1
		c0-8.6,1.7-16.7,4.9-24.1c3.1-7.4,7.7-14.1,13.3-19.7c5.6-5.6,12.3-10.1,19.7-13.3c7.4-3.1,15.6-4.9,24.1-4.9s16.7,1.7,24.1,4.9
		c7.4,3.1,14.1,7.7,19.7,13.3c5.6,5.6,10.1,12.3,13.3,19.7c3.1,7.4,4.9,15.6,4.9,24.1"/>
	<path id="XMLID_476_" class="st28" d="M468.1,3686.2c-3.8-1.6-7.5-3.6-10.9-5.9c0,0,0,0,0,0"/>
	<g id="XMLID_348_">
		<polygon id="XMLID_347_" class="st3" points="2700.6,2773.4 2650.6,2686.8 2700.6,2600.2 2800.6,2600.2 2850.6,2686.8
			2800.6,2773.4 		"/>
		<circle id="XMLID_346_" class="st31" cx="2310.5" cy="2497.2" r="33.6"/>
		<circle id="XMLID_345_" class="st6" cx="2549.4" cy="3067.2" r="33.6"/>
		<circle id="XMLID_344_" class="st32" cx="2310.5" cy="2676.4" r="13.7"/>
		<circle id="XMLID_343_" class="st6" cx="2402.5" cy="2696.3" r="13.7"/>
		<circle id="XMLID_342_" class="st8" cx="2629" cy="3014.9" r="13.7"/>
		<circle id="XMLID_341_" class="st33" cx="2399.5" cy="2599.6" r="49.8"/>
		<circle id="XMLID_340_" class="st5" cx="2750.1" cy="2692.1" r="305.9"/>
		<circle id="XMLID_339_" class="st9" cx="2750.1" cy="2692.1" r="305.9"/>
		<path id="XMLID_338_" class="st10" d="M2655.2,2357.3c30.2-8.5,62-13.1,95-13.1c48,0,93.8,9.7,135.4,27.3
			c41.6,17.6,79.1,43.1,110.6,74.6s57,69,74.6,110.6s27.3,87.4,27.3,135.4s-9.7,93.8-27.3,135.4s-43.1,79.1-74.6,110.6
			s-69,57-110.6,74.6"/>
		<path id="XMLID_337_" class="st10" d="M2614.7,2371.5c6.3-2.7,12.7-5.1,19.1-7.4c0.5-0.2,0.9-0.3,1.4-0.5"/>
		<circle id="XMLID_336_" class="st11" cx="2750.1" cy="2692.1" r="278"/>
		<circle id="XMLID_335_" class="st11" cx="2750.1" cy="2692.1" r="228.5"/>
		<circle id="XMLID_334_" class="st11" cx="2750.1" cy="2692.1" r="188.6"/>
		<circle id="XMLID_333_" class="st11" cx="2750.1" cy="2692.1" r="148.8"/>
		<circle id="XMLID_332_" class="st12" cx="2453.8" cy="2341.9" r="117.3"/>
		<path id="XMLID_331_" class="st10" d="M2580.2,2395.3c-6.9,16.4-17,31.2-29.4,43.6c-12.4,12.4-27.2,22.5-43.6,29.4
			c-16.4,6.9-34.5,10.8-53.4,10.8"/>
		<path id="XMLID_330_" class="st10" d="M2356.9,2438.9c-12.4-12.4-22.5-27.2-29.4-43.6c-6.9-16.4-10.8-34.5-10.8-53.4
			s3.8-37,10.8-53.4c6.9-16.4,17-31.2,29.4-43.6c12.4-12.4,27.2-22.5,43.6-29.4c16.4-6.9,34.5-10.8,53.4-10.8
			c18.9,0,37,3.8,53.4,10.8c16.4,6.9,31.2,17,43.6,29.4c12.4,12.4,22.5,27.2,29.4,43.6c6.9,16.4,10.8,34.5,10.8,53.4"/>
		<path id="XMLID_329_" class="st10" d="M2400.5,2468.3c-8.5-3.6-16.5-8-24-13.1c0,0,0,0,0,0"/>
		<g id="XMLID_128_">
			<path id="XMLID_328_" class="st0" d="M2870.8,2634.1v-47.4c0-10.2-8.3-18.5-18.5-18.5H2648c-10.2,0-18.5,8.3-18.5,18.5v47.4
				c0,5.9,2.8,11.1,7.1,14.5c-4.3,3.4-7.1,8.6-7.1,14.5v47.4c0,5.9,2.8,11.1,7.1,14.5c-4.3,3.4-7.1,8.6-7.1,14.5v47.4
				c0,10.2,8.3,18.5,18.5,18.5h204.3c10.2,0,18.5-8.3,18.5-18.5v-47.4c0-5.9-2.8-11.1-7.1-14.5c4.3-3.4,7.2-8.6,7.2-14.5v-47.4
				c0-5.9-2.8-11.1-7.1-14.5C2868,2645.2,2870.8,2640,2870.8,2634.1z"/>
			<g id="XMLID_146_">
				<path id="XMLID_326_" class="st13" d="M2671.7,2620.5c-5.5,0-10.1-4.5-10.1-10.1c0-5.5,4.5-10.1,10.1-10.1s10.1,4.5,10.1,10.1
					C2681.7,2615.9,2677.2,2620.5,2671.7,2620.5z"/>
				<circle id="XMLID_325_" class="st5" cx="2830.6" cy="2604.4" r="4"/>
				<circle id="XMLID_324_" class="st5" cx="2814.5" cy="2604.4" r="4"/>
				<circle id="XMLID_323_" class="st5" cx="2838.6" cy="2616.4" r="4"/>
				<circle id="XMLID_322_" class="st5" cx="2822.5" cy="2616.4" r="4"/>
				<circle id="XMLID_321_" class="st5" cx="2798.4" cy="2604.4" r="4"/>
				<circle id="XMLID_320_" class="st5" cx="2806.4" cy="2616.4" r="4"/>
				<circle id="XMLID_319_" class="st5" cx="2782.3" cy="2604.4" r="4"/>
				<circle id="XMLID_318_" class="st5" cx="2790.3" cy="2616.4" r="4"/>
				<circle id="XMLID_317_" class="st5" cx="2766.2" cy="2604.4" r="4"/>
				<circle id="XMLID_316_" class="st5" cx="2774.3" cy="2616.4" r="4"/>
				<path id="XMLID_311_" class="st14" d="M2870.8,2634.1v-47.4c0-10.2-8.3-18.5-18.5-18.5H2648c-10.2,0-18.5,8.3-18.5,18.5v47.4
					c0,5.9,2.8,11.1,7.1,14.5c-4.3,3.4-7.1,8.6-7.1,14.5v47.4c0,5.9,2.8,11.1,7.1,14.5c-4.3,3.4-7.1,8.6-7.1,14.5v47.4
					c0,10.2,8.3,18.5,18.5,18.5h204.3c10.2,0,18.5-8.3,18.5-18.5v-47.4c0-5.9-2.8-11.1-7.1-14.5c4.3-3.4,7.2-8.6,7.2-14.5v-47.4
					c0-5.9-2.8-11.1-7.1-14.5C2868,2645.2,2870.8,2640,2870.8,2634.1z M2862.8,2739.6v47.4c0,5.8-4.7,10.5-10.5,10.5H2648
					c-5.8,0-10.5-4.7-10.5-10.5v-47.4c0-5.8,4.7-10.5,10.5-10.5h204.3C2858.1,2729.1,2862.8,2733.8,2862.8,2739.6z M2862.8,2663.1
					v47.4c0,5.8-4.7,10.5-10.5,10.5H2648c-5.8,0-10.5-4.7-10.5-10.5v-47.4c0-5.8,4.7-10.5,10.5-10.5h204.3
					C2858.1,2652.6,2862.8,2657.3,2862.8,2663.1z M2648,2644.6c-5.8,0-10.5-4.7-10.5-10.5v-47.4c0-5.8,4.7-10.5,10.5-10.5h204.3
					c5.8,0,10.5,4.7,10.5,10.5v47.4c0,5.8-4.7,10.5-10.5,10.5L2648,2644.6L2648,2644.6z"/>
				<path id="XMLID_248_" class="st13" d="M2671.7,2676.8c5.5,0,10.1,4.5,10.1,10.1c0,5.5-4.5,10.1-10.1,10.1s-10.1-4.5-10.1-10.1
					C2661.6,2681.3,2666.1,2676.8,2671.7,2676.8z"/>
				<circle id="XMLID_247_" class="st5" cx="2830.6" cy="2680.8" r="4"/>
				<circle id="XMLID_246_" class="st5" cx="2814.5" cy="2680.8" r="4"/>
				<circle id="XMLID_245_" class="st5" cx="2838.6" cy="2692.9" r="4"/>
				<circle id="XMLID_243_" class="st5" cx="2822.5" cy="2692.9" r="4"/>
				<circle id="XMLID_242_" class="st5" cx="2798.4" cy="2680.8" r="4"/>
				<circle id="XMLID_241_" class="st5" cx="2806.4" cy="2692.9" r="4"/>
				<circle id="XMLID_240_" class="st5" cx="2782.3" cy="2680.8" r="4"/>
				<circle id="XMLID_239_" class="st5" cx="2790.3" cy="2692.9" r="4"/>
				<circle id="XMLID_238_" class="st5" cx="2766.2" cy="2680.8" r="4"/>
				<circle id="XMLID_236_" class="st5" cx="2774.3" cy="2692.9" r="4"/>
				<path id="XMLID_234_" class="st13" d="M2671.7,2753.2c5.5,0,10.1,4.5,10.1,10.1c0,5.5-4.5,10.1-10.1,10.1s-10.1-4.5-10.1-10.1
					C2661.6,2757.7,2666.1,2753.2,2671.7,2753.2z"/>
				<circle id="XMLID_233_" class="st5" cx="2830.6" cy="2757.2" r="4"/>
				<circle id="XMLID_231_" class="st5" cx="2814.5" cy="2757.2" r="4"/>
				<circle id="XMLID_230_" class="st5" cx="2838.6" cy="2769.3" r="4"/>
				<circle id="XMLID_229_" class="st5" cx="2822.5" cy="2769.3" r="4"/>
				<circle id="XMLID_228_" class="st5" cx="2798.4" cy="2757.2" r="4"/>
				<circle id="XMLID_227_" class="st5" cx="2806.4" cy="2769.3" r="4"/>
				<circle id="XMLID_226_" class="st5" cx="2782.3" cy="2757.2" r="4"/>
				<circle id="XMLID_224_" class="st5" cx="2790.3" cy="2769.3" r="4"/>
				<circle id="XMLID_223_" class="st5" cx="2766.2" cy="2757.2" r="4"/>
				<circle id="XMLID_152_" class="st5" cx="2774.3" cy="2769.3" r="4"/>
			</g>
		</g>
		<g id="XMLID_104_">
			<path id="XMLID_125_" class="st13" d="M2569.3,2356.1h-120.7c-11.6,0-21.1,9.5-21.1,21.1v245.3c0,11.6,9.5,21.1,21.1,21.1h120.7
				c11.6,0,21.1-9.5,21.1-21.1v-245.3C2590.4,2365.6,2580.9,2356.1,2569.3,2356.1z"/>
			<rect id="XMLID_123_" x="2437" y="2394.5" class="st0" width="143.8" height="182.1"/>
			<g id="XMLID_112_">
				<path id="XMLID_117_" class="st14" d="M2569.3,2356.1h-120.7c-11.6,0-21.1,9.5-21.1,21.1v245.3c0,11.6,9.5,21.1,21.1,21.1h120.7
					c11.6,0,21.1-9.5,21.1-21.1v-245.3C2590.4,2365.6,2580.9,2356.1,2569.3,2356.1z M2437,2394.5h143.8v182.1H2437V2394.5z
					 M2448.5,2365.7h120.7c6.4,0,11.5,5.2,11.5,11.5v7.6H2437v-7.6C2437,2370.9,2442.2,2365.7,2448.5,2365.7z M2569.3,2634.1h-120.7
					c-6.4,0-11.5-5.2-11.5-11.5v-36.4h143.8v36.4C2580.8,2628.9,2575.6,2634.1,2569.3,2634.1z"/>
				<path id="XMLID_115_" class="st0" d="M2508.9,2620.7c-5.8,0-10.5-4.7-10.5-10.5c0-5.8,4.7-10.5,10.5-10.5
					c5.8,0,10.5,4.7,10.5,10.5C2519.5,2616,2514.7,2620.7,2508.9,2620.7z"/>
				<path id="XMLID_114_" class="st14" d="M2489.7,2380.1h19.2c2.7,0,4.8-2.1,4.8-4.8c0-2.7-2.1-4.8-4.8-4.8h-19.2
					c-2.7,0-4.8,2.1-4.8,4.8C2484.9,2377.9,2487.1,2380.1,2489.7,2380.1z"/>
				<path id="XMLID_113_" class="st14" d="M2523.3,2380.1h4.8c2.7,0,4.8-2.1,4.8-4.8c0-2.7-2.1-4.8-4.8-4.8h-4.8
					c-2.7,0-4.8,2.1-4.8,4.8C2518.5,2377.9,2520.6,2380.1,2523.3,2380.1z"/>
			</g>
			<g id="XMLID_105_">
				<path id="XMLID_109_" class="st13" d="M2501.7,2466.3v9.2h-10.9v-9.2H2501.7z M2501.3,2480.4v33.3h-10.2v-33.3H2501.3z"/>
				<path id="XMLID_106_" class="st13" d="M2505,2488.4v-8h5.4v-1.7c0-2.4,0.4-4.4,1.2-6.1c0.8-1.7,1.8-3.1,3.1-4.2
					c1.3-1.1,2.7-1.9,4.4-2.5c1.6-0.5,3.3-0.8,5-0.8c1.8,0,3.6,0.3,5.5,0.8c1.8,0.5,3.5,1.4,5,2.7l-2.2,3.2l-2.2,3.2
					c-0.7-0.5-1.5-0.9-2.3-1.2c-0.9-0.3-1.7-0.4-2.6-0.4c-1.4,0-2.6,0.5-3.4,1.4c-0.9,0.9-1.3,2.2-1.3,3.8v1.8h7.9v8h-7.9v25.3
					h-10.1v-25.3H2505z"/>
			</g>
		</g>
		<g id="XMLID_14_">
			<path id="XMLID_103_" class="st13" d="M2593.3,2726.7h-290c-2.6,0-4.7,2.1-4.7,4.7v60v225c0,2.6,2.1,4.7,4.7,4.7h290
				c2.6,0,4.7-2.1,4.7-4.7v-225v-60C2598,2728.8,2595.9,2726.7,2593.3,2726.7z"/>
			<g id="XMLID_24_">
				<g id="XMLID_96_">
					<g id="XMLID_98_">
						<path id="XMLID_99_" class="st14" d="M2593.3,2726.7h-290c-2.6,0-4.7,2.1-4.7,4.7v60v225c0,2.6,2.1,4.7,4.7,4.7h290
							c2.6,0,4.7-2.1,4.7-4.7v-225v-60C2598,2728.8,2595.9,2726.7,2593.3,2726.7z M2588.6,3011.8H2308v-215.6h280.6L2588.6,3011.8
							L2588.6,3011.8z M2588.6,2786.7H2308v-50.6h280.6L2588.6,2786.7L2588.6,2786.7z"/>
					</g>
				</g>
				<g id="XMLID_40_">
					<g id="XMLID_41_">
						<path id="XMLID_42_" class="st14" d="M2548.3,2746.7h-55c-2.6,0-4.7,2.1-4.7,4.7c0,2.6,2.1,4.7,4.7,4.7h55
							c2.6,0,4.7-2.1,4.7-4.7C2553,2748.8,2550.9,2746.7,2548.3,2746.7z"/>
					</g>
				</g>
				<g id="XMLID_37_">
					<g id="XMLID_38_">
						<path id="XMLID_39_" class="st14" d="M2573.3,2746.7h-10c-2.6,0-4.7,2.1-4.7,4.7c0,2.6,2.1,4.7,4.7,4.7h10
							c2.6,0,4.7-2.1,4.7-4.7C2578,2748.8,2575.9,2746.7,2573.3,2746.7z"/>
					</g>
				</g>
				<g id="XMLID_33_">
					<g id="XMLID_34_">
						<path id="XMLID_35_" class="st14" d="M2374,2766.6c-4.3,0-7.8-3.5-7.8-7.8s3.5-7.8,7.8-7.8s7.8,3.5,7.8,7.8
							S2378.3,2766.6,2374,2766.6z"/>
					</g>
				</g>
				<g id="XMLID_29_">
					<g id="XMLID_30_">
						<path id="XMLID_31_" class="st14" d="M2350.1,2766.6c-4.3,0-7.8-3.5-7.8-7.8s3.5-7.8,7.8-7.8c4.3,0,7.8,3.5,7.8,7.8
							S2354.4,2766.6,2350.1,2766.6z"/>
					</g>
				</g>
				<g id="XMLID_25_">
					<g id="XMLID_26_">
						<path id="XMLID_27_" class="st14" d="M2326.2,2766.6c-4.3,0-7.8-3.5-7.8-7.8s3.5-7.8,7.8-7.8s7.8,3.5,7.8,7.8
							S2330.5,2766.6,2326.2,2766.6z"/>
					</g>
				</g>
			</g>
			<polygon id="XMLID_23_" class="st0" points="2588.6,3011.8 2308,3011.8 2308,2796.1 2588.6,2796.1 2588.6,3011.8 			"/>
			<g id="XMLID_17_">
				<path id="XMLID_20_" class="st13" d="M2435.4,2865.9v13.7H2419v-13.7H2435.4z M2434.8,2886.8v49.6h-15.2v-49.6H2434.8z"/>
				<path id="XMLID_18_" class="st13" d="M2440.2,2898.8v-12h8v-2.5c0-3.5,0.6-6.6,1.7-9.1c1.2-2.5,2.7-4.6,4.6-6.3
					c1.9-1.7,4.1-2.9,6.5-3.7c2.4-0.8,4.9-1.2,7.5-1.2c2.7,0,5.4,0.4,8.1,1.2c2.8,0.8,5.3,2.1,7.5,4l-3.2,4.8l-3.2,4.8
					c-1.1-0.8-2.2-1.4-3.5-1.8s-2.6-0.6-3.9-0.6c-2.1,0-3.8,0.7-5.1,2c-1.3,1.3-1.9,3.2-1.9,5.7v2.7h11.8v12h-11.8v37.7h-15.1v-37.7
					H2440.2z"/>
			</g>
		</g>
	</g>
	<g id="XMLID_413_">
		<circle id="XMLID_412_" class="st0" cx="2685" cy="4458.6" r="137.9"/>
		<circle id="XMLID_411_" class="st34" cx="2431.2" cy="4616.5" r="79.5"/>
		<circle id="XMLID_410_" class="st34" cx="2788" cy="4241.5" r="75.2"/>
		<circle id="XMLID_409_" class="st4" cx="2620.6" cy="4418.7" r="34"/>
		<circle id="XMLID_408_" class="st4" cx="2363.9" cy="4286.1" r="22.7"/>
		<circle id="XMLID_407_" class="st0" cx="2419" cy="4148.4" r="48.3"/>
		<path id="XMLID_406_" class="st28" d="M2380.7,4205.2c-18.2-12.3-30.2-33.2-30.2-56.8c0-37.8,30.7-68.5,68.5-68.5
			c25.7,0,48.2,14.2,59.9,35.2"/>
		<circle id="XMLID_405_" class="st35" cx="2841.7" cy="4561.3" r="174.2"/>
		<circle id="XMLID_415_" class="st29" cx="2711.8" cy="4177.7" r="74.4"/>
		<circle id="XMLID_414_" class="st36" cx="2654.6" cy="4142.5" r="29.3"/>
		<circle id="XMLID_404_" class="st6" cx="2448.9" cy="4378.3" r="40.5"/>
		<circle id="XMLID_403_" class="st0" cx="2458.1" cy="4511.2" r="13.5"/>
		<circle id="XMLID_402_" class="st0" cx="2502.6" cy="4511.2" r="19.2"/>
		<circle id="XMLID_401_" class="st6" cx="2540" cy="4573.6" r="22.7"/>
		<circle id="XMLID_400_" class="st7" cx="2363.9" cy="4223.2" r="9.3"/>
		<circle id="XMLID_399_" class="st14" cx="2448.9" cy="4461.3" r="9.3"/>
		<circle id="XMLID_398_" class="st8" cx="2602.1" cy="4676.8" r="9.3"/>
		<circle id="XMLID_397_" class="st30" cx="2483.6" cy="4221.7" r="23.5"/>
		<path id="XMLID_396_" class="st10" d="M2619.7,4232c20.4-5.8,42-8.9,64.2-8.9c32.5,0,63.4,6.6,91.6,18.5
			c28.2,11.9,53.5,29.1,74.8,50.4c21.3,21.3,38.5,46.6,50.4,74.8c11.9,28.2,18.5,59.1,18.5,91.6s-6.6,63.4-18.5,91.6
			c-11.9,28.2-29.1,53.5-50.4,74.8s-46.6,38.5-74.8,50.4"/>
		<path id="XMLID_395_" class="st10" d="M2592.4,4241.7c4.3-1.8,8.6-3.5,12.9-5c0.3-0.1,0.6-0.2,1-0.3"/>
		<circle id="XMLID_388_" class="st10" cx="2683.9" cy="4458.5" r="188"/>
		<circle id="XMLID_387_" class="st10" cx="2683.9" cy="4458.5" r="137.8"/>
		<circle id="XMLID_386_" class="st10" cx="2683.9" cy="4458.5" r="80.2"/>
		<circle id="XMLID_385_" class="st10" cx="2483.6" cy="4221.7" r="58.2"/>
		<path id="XMLID_384_" class="st28" d="M2569.1,4257.8c-4.7,11.1-11.5,21.1-19.9,29.5s-18.4,15.2-29.5,19.9
			c-11.1,4.7-23.3,7.3-36.1,7.3"/>
		<path id="XMLID_383_" class="st28" d="M2418,4287.3c-8.4-8.4-15.2-18.4-19.9-29.5c-4.7-11.1-7.3-23.3-7.3-36.1
			c0-12.8,2.6-25,7.3-36.1c4.7-11.1,11.5-21.1,19.9-29.5c8.4-8.4,18.4-15.2,29.5-19.9c11.1-4.7,23.3-7.3,36.1-7.3
			c12.8,0,25,2.6,36.1,7.3c11.1,4.7,21.1,11.5,29.5,19.9c8.4,8.4,15.2,18.4,19.9,29.5c4.7,11.1,7.3,23.3,7.3,36.1"/>
		<path id="XMLID_367_" class="st28" d="M2447.5,4307.2c-5.7-2.4-11.2-5.4-16.3-8.9c0,0,0,0,0,0"/>
	</g>
	<g id="XMLID_55_">
		<path id="XMLID_421_" class="st13" d="M118.2-282.2c-30.1,0-54.6,24.5-54.6,54.6c0,12.4,4.2,23.8,11.1,33l-11.1,11.1
			c-0.1,0.1-0.1,0.1-0.2,0.2c-0.9-0.2-1.8-0.3-2.8-0.3c-3.6,0-7,1.4-9.6,4l-32.9,32.9c-2.6,2.6-4,6-4,9.6c0,3.6,1.4,7,4,9.6
			c2.6,2.6,6,4,9.6,4s7-1.4,9.6-4l32.9-32.9c2.6-2.6,4-6,4-9.6c0-0.9-0.1-1.9-0.3-2.8c0.1-0.1,0.1-0.1,0.2-0.2L85.2-184
			c9.2,7,20.6,11.1,33,11.1c30.1,0,54.6-24.5,54.6-54.6S148.3-282.2,118.2-282.2z M33.7-131.1c-1.6,1.6-3.7,2.5-5.9,2.5
			s-4.3-0.9-5.9-2.5c-1.6-1.6-2.5-3.7-2.5-5.9c0-2.2,0.9-4.3,2.5-5.9l29.7-29.7l11.9,11.9L33.7-131.1z M67-164.5l-11.8-11.8
			c1.6-1.3,3.5-2,5.5-2c2.1,0,4.3,0.8,5.9,2.5c1.6,1.6,2.5,3.7,2.5,5.9C69-167.9,68.3-166,67-164.5z M71.7-177.8
			c-0.4-0.6-0.9-1.2-1.5-1.7c-0.5-0.5-1.1-1-1.7-1.5l9.5-9.5c1,1.1,2.1,2.2,3.2,3.2L71.7-177.8z M118.2-178
			c-27.3,0-49.5-22.2-49.5-49.5S90.9-277,118.2-277s49.5,22.2,49.5,49.5S145.5-178,118.2-178z"/>
		<path id="XMLID_418_" class="st13" d="M118.2-271.2c-24.1,0-43.7,19.6-43.7,43.7s19.6,43.7,43.7,43.7s43.7-19.6,43.7-43.7
			S142.3-271.2,118.2-271.2z M118.2-189c-21.3,0-38.5-17.3-38.5-38.5s17.3-38.5,38.5-38.5s38.5,17.3,38.5,38.5S139.5-189,118.2-189z
			"/>
		<path id="XMLID_417_" class="st13" d="M136-255c-1.2-0.8-2.8-0.4-3.6,0.7c-0.8,1.2-0.4,2.8,0.7,3.6c7.9,5.1,12.5,13.8,12.5,23.1
			c0,6.4-2.2,12.6-6.3,17.6c-0.9,1.1-0.7,2.7,0.3,3.6c0.5,0.4,1.1,0.6,1.6,0.6c0.7,0,1.5-0.3,2-0.9c4.8-5.8,7.5-13.2,7.5-20.8
			C150.9-238.6,145.4-248.9,136-255z"/>
		<path id="XMLID_416_" class="st13" d="M124.1-259.7c-1.9-0.4-3.9-0.5-5.9-0.5c-1.4,0-2.6,1.2-2.6,2.6c0,1.4,1.2,2.6,2.6,2.6
			c1.7,0,3.4,0.2,5,0.5c0.2,0,0.3,0,0.5,0c1.2,0,2.3-0.9,2.5-2.1C126.5-258.1,125.5-259.4,124.1-259.7z"/>
	</g>
	<g id="XMLID_427_">
		<g id="XMLID_428_">
			<path id="XMLID_429_" d="M5281.7,1691.4c-1.1-2.1-3.2-3.5-5.5-3.8c-2.3-0.3-4.7,0.4-6.4,2.1l-66.2,66.2l-27.4-27.4l66.2-66.2
				c1.7-1.7,2.4-4,2.1-6.4c-0.3-2.3-1.8-4.4-3.8-5.5c-19.1-10.4-41.5-14.5-63.1-11.6c-22.4,3-42.6,13.1-58.6,29.1
				c-19.4,19.4-30.1,45.2-30.1,72.6c0,7.6,0.8,15.1,2.4,22.3l-156.6,156.6c-21.5,21.5-21.5,56.4,0,77.9
				c10.4,10.4,24.2,16.1,38.9,16.1s28.5-5.7,38.9-16.1l156.7-156.7c7.3,1.6,14.8,2.4,22.3,2.4c26.3,0,52.6-10,72.6-30
				c16-16,26.1-36.3,29.1-58.6C5296.2,1732.8,5292.1,1710.4,5281.7,1691.4z M5002,1986.7c-7.6,7.6-17.6,11.7-28.3,11.7
				c-10.7,0-20.8-4.2-28.3-11.7c-15.6-15.6-15.6-41.1,0-56.7l151-151c2.1,5.1,4.6,10.1,7.4,14.8l-144.9,144.9
				c-9.5,9.5-9.5,25,0,34.5c4.8,4.7,11,7.1,17.2,7.1c6.2,0,12.5-2.4,17.2-7.1l94.7-94.7c2.9-2.9,2.9-7.7,0-10.6
				c-2.9-2.9-7.7-2.9-10.6,0l-94.7,94.7c-3.7,3.7-9.6,3.7-13.3,0c-3.7-3.7-3.7-9.6,0-13.3l143.2-143.2c2,2.4,4.1,4.7,6.3,6.9
				c10.1,10.1,21.7,17.6,34.1,22.6L5002,1986.7z M5253.5,1802.5c-34.2,34.2-89.8,34.2-124,0c-16.6-16.6-25.7-38.6-25.7-62
				c0-23.4,9.1-45.4,25.7-62c16.8-16.8,39.4-25.6,62.2-25.6c11,0,22.1,2.1,32.6,6.3l-64,64c-2.9,2.9-2.9,7.7,0,10.6l38,38
				c1.4,1.4,3.3,2.2,5.3,2.2s3.9-0.8,5.3-2.2l64-64C5285.8,1739.9,5278.4,1777.6,5253.5,1802.5z"/>
		</g>
	</g>
	<g id="XMLID_436_">
		<g id="XMLID_437_">
			<path id="XMLID_438_" class="st37" d="M4839.5,1029.6h-22v-29.3c0-56.5-46-102.6-102.6-102.6c-56.5,0-102.6,46-102.6,102.6v29.3
				h-22c-4,0-7.3,3.3-7.3,7.3v183.1c0,16.2,13.1,29.3,29.3,29.3h205.1c16.2,0,29.3-13.1,29.3-29.3v-183.1
				C4846.9,1032.9,4843.6,1029.6,4839.5,1029.6z M4736.9,1182.6c0.2,2.1-0.4,4.1-1.8,5.7c-1.4,1.6-3.4,2.4-5.5,2.4h-29.3
				c-2.1,0-4.1-0.9-5.5-2.4c-1.4-1.6-2.1-3.6-1.8-5.7l4.6-41.6c-7.5-5.5-12-14.1-12-23.6c0-16.2,13.1-29.3,29.3-29.3
				c16.2,0,29.3,13.1,29.3,29.3c0,9.5-4.5,18.1-12,23.6L4736.9,1182.6z M4773.6,1029.6h-117.2v-29.3c0-32.3,26.3-58.6,58.6-58.6
				s58.6,26.3,58.6,58.6V1029.6z"/>
		</g>
	</g>
	<g id="XMLID_447_">
		<g id="XMLID_448_">
			<path id="XMLID_449_" d="M5313.7,964l-110.4-32.6c-8.6-2.5-17.6-2.5-26.2,0L5066.6,964c-8.2,2.4-13.8,10-13.8,18.5v91.4
				c0,42.3,12.6,83.1,36.4,117.9c23.3,34,55.7,60.1,93.6,75.5c2.4,1,4.8,1.4,7.3,1.4c2.5,0,4.9-0.5,7.3-1.4
				c38-15.5,70.4-41.6,93.6-75.5c23.8-34.8,36.4-75.5,36.4-117.9v-91.4C5327.5,974,5321.9,966.4,5313.7,964z M5312.1,1074
				c0,39.2-11.7,76.9-33.7,109.1c-21.6,31.5-51.5,55.6-86.7,70c-1,0.4-2,0.4-3,0c-35.2-14.3-65.2-38.5-86.7-70
				c-22.1-32.2-33.7-69.9-33.7-109.1v-91.4c0-1.7,1.1-3.2,2.8-3.7l110.4-32.6c2.9-0.8,5.8-1.3,8.7-1.3c2.9,0,5.9,0.4,8.7,1.3
				l110.4,32.6c1.6,0.5,2.8,2,2.8,3.7V1074L5312.1,1074z"/>
		</g>
	</g>
	<g id="XMLID_442_">
		<g id="XMLID_443_">
			<path id="XMLID_444_" d="M5275.7,998.1l-82.3-24.3c-2.1-0.6-4.4-0.6-6.6,0l-82.3,24.3c-4.9,1.4-8.3,6-8.3,11.1v64.7
				c0,34.2,10.3,67,29.9,94.8c15.2,21.6,35.4,39.4,58.6,51.6c1.7,0.9,3.5,1.3,5.4,1.3c1.8,0,3.7-0.4,5.4-1.3
				c23.2-12.1,43.4-30,58.6-51.6c19.6-27.9,29.9-60.6,29.9-94.8v-64.7C5284.1,1004.2,5280.6,999.6,5275.7,998.1z M5268.6,1074
				c0,31-9.4,60.7-27.1,86c-13.4,19-31.1,34.8-51.3,45.8c-20.3-11-38-26.8-51.3-45.8c-17.7-25.2-27.1-55-27.1-86v-61.8l78.4-23.1
				l78.4,23.1V1074z"/>
		</g>
	</g>
	<g id="XMLID_54_">
		<g id="XMLID_460_">
			<g id="XMLID_461_">
				<path id="XMLID_462_" d="M4231.2,1152.1l-78.6-153.3V844h7.2c12,0,21.7-9.8,21.7-21.7c0-12-9.8-21.7-21.7-21.7h-145
					c-12,0-21.7,9.8-21.7,21.7c0,12,9.8,21.7,21.7,21.7h7.2v154.8l-78.6,153.3c-2.8,5.4-2.6,11.8,0.6,17c3.2,5.2,8.7,8.3,14.9,8.3
					h256.7c6.1,0,11.7-3.1,14.9-8.3C4233.7,1163.9,4233.9,1157.6,4231.2,1152.1z M4014.8,829.5c-4,0-7.2-3.3-7.2-7.2
					s3.3-7.2,7.2-7.2h145c4,0,7.2,3.3,7.2,7.2s-3.3,7.2-7.2,7.2h-14.5h-116H4014.8z M4218.2,1161.6c-0.3,0.5-1.1,1.4-2.5,1.4H3959
					c-1.4,0-2.2-0.9-2.5-1.4c-0.3-0.5-0.8-1.6-0.1-2.8l79.4-154.8c0.5-1,0.8-2.2,0.8-3.3V844h101.5v14.5h-21.7c-4,0-7.2,3.2-7.2,7.2
					c0,4,3.2,7.2,7.2,7.2h21.7v127.6c0,1.2,0.3,2.3,0.8,3.3l79.4,154.8C4218.9,1160,4218.5,1161.1,4218.2,1161.6z"/>
			</g>
		</g>
		<g id="XMLID_455_">
			<g id="XMLID_456_">
				<path id="XMLID_457_" d="M4180.8,1138l-57.2-116.4V989c0-4-3.2-7.2-7.2-7.2h-58c-4,0-7.2,3.2-7.2,7.2v32.6l-57.2,116.4
					c-1.1,2.2-1,4.9,0.4,7c1.3,2.1,3.7,3.4,6.2,3.4h174c2.5,0,4.8-1.3,6.2-3.4C4181.8,1142.9,4181.9,1140.3,4180.8,1138z M4012,1134
					l52.9-107.5c0.5-1,0.7-2.1,0.7-3.2v-27.1h43.5v27.1c0,1.1,0.3,2.2,0.7,3.2l52.9,107.5H4012L4012,1134z"/>
			</g>
		</g>
		<g id="XMLID_452_">
			<g id="XMLID_453_">
				<path id="XMLID_454_" d="M4101.7,864.4c-0.1-0.5-0.2-0.9-0.4-1.4c-0.2-0.4-0.4-0.9-0.7-1.3c-0.3-0.4-0.6-0.8-0.9-1.1
					s-0.7-0.6-1.1-0.9c-0.4-0.3-0.8-0.5-1.3-0.7c-0.4-0.2-0.9-0.3-1.4-0.4c-0.9-0.2-1.9-0.2-2.8,0c-0.5,0.1-0.9,0.2-1.4,0.4
					c-0.4,0.2-0.9,0.4-1.3,0.7c-0.4,0.3-0.8,0.6-1.1,0.9s-0.6,0.7-0.9,1.1c-0.3,0.4-0.5,0.8-0.7,1.3c-0.2,0.4-0.3,0.9-0.4,1.4
					c-0.1,0.5-0.1,0.9-0.1,1.4c0,0.5,0.1,0.9,0.1,1.4c0.1,0.5,0.2,0.9,0.4,1.4c0.2,0.4,0.4,0.9,0.7,1.3c0.3,0.4,0.6,0.8,0.9,1.1
					s0.7,0.6,1.1,0.9c0.4,0.3,0.8,0.5,1.3,0.7c0.4,0.2,0.9,0.3,1.4,0.4c0.5,0.1,0.9,0.1,1.4,0.1s0.9-0.1,1.4-0.1
					c0.5-0.1,0.9-0.2,1.4-0.4c0.4-0.2,0.9-0.4,1.3-0.7c0.4-0.3,0.8-0.6,1.1-0.9s0.6-0.7,0.9-1.1c0.3-0.4,0.5-0.8,0.7-1.3
					c0.2-0.4,0.3-0.9,0.4-1.4c0.1-0.5,0.1-0.9,0.1-1.4C4101.8,865.3,4101.8,864.8,4101.7,864.4z"/>
			</g>
		</g>
	</g>
	<g id="XMLID_469_">
		<path id="XMLID_473_" class="st13" d="M453.7-232.4l-42.5-42.5c-1.4-1.4-3.2-2.1-5.2-2.1c-2,0-3.8,0.8-5.2,2.1
			c-1.4,1.4-2.1,3.2-2.1,5.2c0,1.7,0.6,3.3,1.6,4.6l-88.1,88.1c-12,12-12,31.6,0,43.6c5.8,5.8,13.6,9,21.8,9c8.2,0,16-3.2,21.8-9
			l88.1-88.1c1.3,1,2.9,1.6,4.6,1.6c2,0,3.8-0.8,5.2-2.1C456.5-224.9,456.5-229.6,453.7-232.4L453.7-232.4z M450.2-225.5
			c-0.5,0.5-1.1,0.7-1.7,0.7c-0.7,0-1.3-0.3-1.7-0.7l-0.8-0.8c-0.1-0.2-0.2-0.3-0.3-0.4s-0.3-0.2-0.4-0.3l-26-26c-1-1-2.5-1-3.4,0
			c-1,1-1,2.5,0,3.4l24.7,24.7l-88,88c-4.9,4.9-11.4,7.6-18.4,7.6c-6.9,0-13.5-2.7-18.4-7.6c-10.1-10.1-10.1-26.6,0-36.7l88.1-88.1
			l5.2,5.1c1,0.9,2.5,0.9,3.4,0c0.9-1,0.9-2.5,0-3.4l-6.6-6.5c-0.1-0.1-0.2-0.3-0.3-0.4c-0.1-0.1-0.3-0.2-0.4-0.3l-0.8-0.8
			c-0.5-0.5-0.7-1.1-0.7-1.7c0-0.7,0.3-1.3,0.7-1.7c0.5-0.5,1.1-0.7,1.7-0.7c0.7,0,1.3,0.3,1.7,0.7l42.5,42.5
			C451.2-228,451.2-226.5,450.2-225.5L450.2-225.5z"/>
		<path id="XMLID_435_" class="st13" d="M393.4-188.3c-2.2-2.2-4.2-2.6-5.7-2.8c-1.3-0.2-2-0.4-3.2-1.5c-1.1-1.1-1.2-1.9-1.5-3.2
			c-0.3-1.5-0.6-3.5-2.8-5.7c-2.2-2.2-4.2-2.6-5.7-2.8c-1.3-0.2-2-0.4-3.2-1.5c-1.1-1.1-1.2-1.9-1.5-3.2c-0.3-1.5-0.6-3.5-2.8-5.7
			c-0.5-0.5-1.1-0.7-1.7-0.7s-1.3,0.3-1.7,0.7l-18.8,18.8c-1,1-1,2.5,0,3.4c1,1,2.5,1,3.4,0l16.6-16.6c0.1,0.3,0.1,0.6,0.2,1
			c0.3,1.5,0.6,3.5,2.8,5.7c2.2,2.2,4.2,2.6,5.7,2.8c1.3,0.2,2,0.4,3.2,1.5c1.1,1.1,1.2,1.9,1.5,3.2c0.3,1.5,0.6,3.5,2.8,5.7
			c2.2,2.2,4.2,2.6,5.7,2.8c0.4,0.1,0.7,0.1,1,0.2l-42.3,42.3c-3.1,3.1-7.1,4.7-11.5,4.7c-4.3,0-8.4-1.7-11.5-4.7
			c-6.3-6.3-6.3-16.6,0-23l18.8-18.8c1-1,1-2.5,0-3.4c-1-1-2.5-1-3.4,0l-18.8,18.8c-8.2,8.2-8.2,21.6,0,29.8c4,4,9.3,6.2,14.9,6.2
			c5.6,0,10.9-2.2,14.9-6.2l44.3-44.3C394.7-186.1,394.1-187.6,393.4-188.3C393.5-188.2,393.5-188.2,393.4-188.3L393.4-188.3z"/>
		<path id="XMLID_434_" class="st13" d="M413.2-224.7c-1,1-1,2.5,0,3.4c0.9,0.9,0.9,2.5,0,3.4c-0.5,0.5-1.1,0.7-1.7,0.7
			c-0.7,0-1.3-0.3-1.7-0.7c-0.9-0.9-0.9-2.5,0-3.4c1-1,1-2.5,0-3.4c-1-1-2.5-1-3.4,0c-2.8,2.8-2.8,7.5,0,10.3
			c1.4,1.4,3.2,2.1,5.2,2.1s3.8-0.8,5.2-2.1c2.8-2.8,2.8-7.5,0-10.3C415.7-225.6,414.2-225.6,413.2-224.7L413.2-224.7z"/>
		<path id="XMLID_433_" class="st13" d="M384.6-211.6c2,0,3.8-0.8,5.2-2.1c1.4-1.4,2.1-3.2,2.1-5.2c0-2-0.8-3.8-2.1-5.2
			c-1-1-2.5-1-3.4,0c-1,1-1,2.5,0,3.4c0.5,0.5,0.7,1.1,0.7,1.7s-0.3,1.3-0.7,1.7c-0.5,0.5-1.1,0.7-1.7,0.7c-0.7,0-1.3-0.3-1.7-0.7
			c-0.5-0.5-0.7-1.1-0.7-1.7c0-0.7,0.3-1.3,0.7-1.7c1-1,1-2.5,0-3.4c-1-1-2.5-1-3.4,0c-2.8,2.8-2.8,7.5,0,10.3
			C380.8-212.4,382.6-211.6,384.6-211.6L384.6-211.6z"/>
	</g>
	<g id="XMLID_494_">
		<path id="XMLID_497_" class="st13" d="M738.9-256.3l-18.6-18.6c-2-2-4.6-3-7.3-3c-2.8,0-5.4,1.1-7.3,3l-39.4,39.4
			c-2.5,2.5-4.2,5.7-5,9.3c-0.5,2.6-1.8,4.9-3.6,6.7l-10.1,10.1c-2.9-1.4-6.5-0.9-8.9,1.5c-3,3-3,7.9,0,10.9l5.7,5.7l-59.2,59.2
			c-0.5,0.5-0.7,1.1-0.7,1.7v7.4c0,1.4,1.1,2.5,2.5,2.5h7.4c0.7,0,1.3-0.3,1.7-0.7l59.2-59.2l5.7,5.7c1.5,1.5,3.5,2.3,5.5,2.3
			s4-0.8,5.5-2.3c2.4-2.4,2.9-6,1.5-8.9l10.1-10.1c1.8-1.8,4.2-3.1,6.7-3.6c0,0,0,0,0,0c3.5-0.7,6.7-2.4,9.2-4.9l39.4-39.4
			c2-2,3-4.6,3-7.3C741.9-251.7,740.8-254.3,738.9-256.3z M705.7-267.7c1.1,1.1,1.1,2.9,0,3.9L675.9-234c-0.5,0.5-1.2,0.8-2,0.8
			c-0.8,0-1.5-0.3-2-0.8c0,0-0.1-0.1-0.1-0.1l33.7-33.7C705.6-267.7,705.6-267.7,705.7-267.7z M593.4-125.4h-3.9v-3.9l5-5l3.9,3.9
			L593.4-125.4z M601.9-133.9l-3.9-3.9l50-50l3.9,3.9L601.9-133.9z M698.1-207.8c0,0-0.1-0.1-0.1-0.1c-1.1-1.1-1.1-2.9,0-3.9
			l29.7-29.7c1.1-1.1,2.9-1.1,3.9,0c0,0,0.1,0.1,0.1,0.1L698.1-207.8z M735.4-245.1l-0.1,0.1c0,0-0.1-0.1-0.1-0.1c-3-3-7.9-3-10.9,0
			l-29.7,29.7c-3,3-3,7.9,0,10.9c0,0,0,0,0,0c-1.6,1.2-3.3,1.9-5.3,2.3c0,0,0,0,0,0c-3.5,0.7-6.7,2.4-9.2,4.9l-9.8,9.8l-0.1-0.1
			c-1-1-2.5-1-3.5,0c-1,1-1,2.5,0,3.5l1.9,1.9c1.1,1.1,1.1,2.9,0,3.9c-1.1,1.1-2.9,1.1-3.9,0l-7.4-7.4l-7.4-7.4l-7.4-7.4
			c-1.1-1.1-1.1-2.9,0-3.9s2.9-1.1,3.9,0l13,13c1,1,2.5,1,3.5,0c1-1,1-2.5,0-3.5l-11.3-11.3l9.8-9.8c2.5-2.5,4.2-5.7,5-9.3
			c0.4-1.9,1.2-3.7,2.3-5.3c0,0,0,0,0,0c1.5,1.5,3.5,2.3,5.5,2.3c2,0,4-0.8,5.5-2.3l29.7-29.7c3-3,3-7.9,0-10.9c0,0-0.1-0.1-0.1-0.1
			l0.1-0.1c2.1-2.1,5.6-2.1,7.7,0l18.6,18.6c1,1,1.6,2.4,1.6,3.8C737-247.5,736.4-246.2,735.4-245.1z"/>
		<path id="XMLID_470_" class="st13" d="M716.7-260.4c-2.1,0-4,0.8-5.5,2.3l-29.7,29.7c-1.5,1.5-2.3,3.4-2.3,5.5
			c0,2.1,0.8,4,2.3,5.5c1.5,1.5,3.5,2.3,5.5,2.3c2,0,4-0.8,5.5-2.3l13-13c1-1,1-2.5,0-3.5c-1-1-2.5-1-3.5,0l-13,13
			c-1.1,1.1-2.9,1.1-3.9,0c-0.5-0.5-0.8-1.2-0.8-2s0.3-1.5,0.8-2l29.7-29.7c0.5-0.5,1.2-0.8,2-0.8c0.8,0,1.5,0.3,2,0.8
			c1.1,1.1,1.1,2.9,0,3.9l-1.9,1.9c-1,1-1,2.5,0,3.5c1,1,2.5,1,3.5,0l1.9-1.9c3-3,3-7.9,0-10.9C720.7-259.6,718.8-260.4,716.7-260.4
			z"/>
		<path id="XMLID_468_" class="st13" d="M711.2-243.3l-3.7,3.7c-1,1-1,2.5,0,3.5c0.5,0.5,1.1,0.7,1.7,0.7c0.6,0,1.3-0.2,1.7-0.7
			l3.7-3.7c1-1,1-2.5,0-3.5C713.8-244.2,712.2-244.2,711.2-243.3z"/>
	</g>
	<g id="XMLID_513_">
		<path id="XMLID_519_" class="st5" d="M118.2,20.5c-30.1,0-54.6,24.5-54.6,54.6c0,12.4,4.2,23.8,11.1,33l-11.1,11.1
			c-0.1,0.1-0.1,0.1-0.2,0.2c-0.9-0.2-1.8-0.3-2.8-0.3c-3.6,0-7,1.4-9.6,4L18.2,156c-2.6,2.6-4,6-4,9.6c0,3.6,1.4,7,4,9.6
			c2.6,2.6,6,4,9.6,4s7-1.4,9.6-4l32.9-32.9c2.6-2.6,4-6,4-9.6c0-0.9-0.1-1.9-0.3-2.8c0.1-0.1,0.1-0.1,0.2-0.2l11.1-11.1
			c9.2,7,20.6,11.1,33,11.1c30.1,0,54.6-24.5,54.6-54.6S148.3,20.5,118.2,20.5z M33.7,171.5c-1.6,1.6-3.7,2.5-5.9,2.5
			s-4.3-0.9-5.9-2.5c-1.6-1.6-2.5-3.7-2.5-5.9c0-2.2,0.9-4.3,2.5-5.9l29.7-29.7l11.9,11.9L33.7,171.5z M67,138.1l-11.8-11.8
			c1.6-1.3,3.5-2,5.5-2c2.1,0,4.3,0.8,5.9,2.5c1.6,1.6,2.5,3.7,2.5,5.9C69,134.7,68.3,136.6,67,138.1z M71.7,124.8
			c-0.4-0.6-0.9-1.2-1.5-1.7c-0.5-0.5-1.1-1-1.7-1.5l9.5-9.5c1,1.1,2.1,2.2,3.2,3.2L71.7,124.8z M118.2,124.6
			c-27.3,0-49.5-22.2-49.5-49.5s22.2-49.5,49.5-49.5s49.5,22.2,49.5,49.5S145.5,124.6,118.2,124.6z"/>
		<path id="XMLID_516_" class="st5" d="M118.2,31.4c-24.1,0-43.7,19.6-43.7,43.7s19.6,43.7,43.7,43.7s43.7-19.6,43.7-43.7
			S142.3,31.4,118.2,31.4z M118.2,113.7c-21.3,0-38.5-17.3-38.5-38.5s17.3-38.5,38.5-38.5s38.5,17.3,38.5,38.5
			S139.5,113.7,118.2,113.7z"/>
		<path id="XMLID_515_" class="st5" d="M136,47.7c-1.2-0.8-2.8-0.4-3.6,0.7c-0.8,1.2-0.4,2.8,0.7,3.6c7.9,5.1,12.5,13.8,12.5,23.1
			c0,6.4-2.2,12.6-6.3,17.6c-0.9,1.1-0.7,2.7,0.3,3.6c0.5,0.4,1.1,0.6,1.6,0.6c0.7,0,1.5-0.3,2-0.9c4.8-5.8,7.5-13.2,7.5-20.8
			C150.9,64,145.4,53.8,136,47.7z"/>
		<path id="XMLID_514_" class="st5" d="M124.1,42.9c-1.9-0.4-3.9-0.5-5.9-0.5c-1.4,0-2.6,1.2-2.6,2.6c0,1.4,1.2,2.6,2.6,2.6
			c1.7,0,3.4,0.2,5,0.5c0.2,0,0.3,0,0.5,0c1.2,0,2.3-0.9,2.5-2.1C126.5,44.5,125.5,43.2,124.1,42.9z"/>
	</g>
	<g id="XMLID_506_">
		<path id="XMLID_510_" class="st5" d="M453.7,70.2l-42.5-42.5c-1.4-1.4-3.2-2.1-5.2-2.1c-2,0-3.8,0.8-5.2,2.1
			c-1.4,1.4-2.1,3.2-2.1,5.2c0,1.7,0.6,3.3,1.6,4.6l-88.1,88.1c-12,12-12,31.6,0,43.6c5.8,5.8,13.6,9,21.8,9c8.2,0,16-3.2,21.8-9
			L444,81.1c1.3,1,2.9,1.6,4.6,1.6c2,0,3.8-0.8,5.2-2.1C456.5,77.7,456.5,73.1,453.7,70.2L453.7,70.2z M450.2,77.1
			c-0.5,0.5-1.1,0.7-1.7,0.7c-0.7,0-1.3-0.3-1.7-0.7l-0.8-0.8c-0.1-0.2-0.2-0.3-0.3-0.4c-0.1-0.1-0.3-0.2-0.4-0.3l-26-26
			c-1-1-2.5-1-3.4,0c-1,1-1,2.5,0,3.4l24.7,24.7l-88,88c-4.9,4.9-11.4,7.6-18.4,7.6c-6.9,0-13.5-2.7-18.4-7.6
			c-10.1-10.1-10.1-26.6,0-36.7l88.1-88.1l5.2,5.1c1,0.9,2.5,0.9,3.4,0c0.9-1,0.9-2.5,0-3.4l-6.6-6.5c-0.1-0.1-0.2-0.3-0.3-0.4
			c-0.1-0.1-0.3-0.2-0.4-0.3l-0.8-0.8c-0.5-0.5-0.7-1.1-0.7-1.7c0-0.7,0.3-1.3,0.7-1.7c0.5-0.5,1.1-0.7,1.7-0.7
			c0.7,0,1.3,0.3,1.7,0.7l42.5,42.5C451.2,74.6,451.2,76.1,450.2,77.1L450.2,77.1z"/>
		<path id="XMLID_509_" class="st5" d="M393.4,114.4c-2.2-2.2-4.2-2.6-5.7-2.8c-1.3-0.2-2-0.4-3.2-1.5c-1.1-1.1-1.2-1.9-1.5-3.2
			c-0.3-1.5-0.6-3.5-2.8-5.7c-2.2-2.2-4.2-2.6-5.7-2.8c-1.3-0.2-2-0.4-3.2-1.5c-1.1-1.1-1.2-1.9-1.5-3.2c-0.3-1.5-0.6-3.5-2.8-5.7
			c-0.5-0.5-1.1-0.7-1.7-0.7s-1.3,0.3-1.7,0.7l-18.8,18.8c-1,1-1,2.5,0,3.4c1,1,2.5,1,3.4,0l16.6-16.6c0.1,0.3,0.1,0.6,0.2,1
			c0.3,1.5,0.6,3.5,2.8,5.7c2.2,2.2,4.2,2.6,5.7,2.8c1.3,0.2,2,0.4,3.2,1.5c1.1,1.1,1.2,1.9,1.5,3.2c0.3,1.5,0.6,3.5,2.8,5.7
			c2.2,2.2,4.2,2.6,5.7,2.8c0.4,0.1,0.7,0.1,1,0.2l-42.3,42.3c-3.1,3.1-7.1,4.7-11.5,4.7c-4.3,0-8.4-1.7-11.5-4.7
			c-6.3-6.3-6.3-16.6,0-23l18.8-18.8c1-1,1-2.5,0-3.4c-1-1-2.5-1-3.4,0l-18.8,18.8c-8.2,8.2-8.2,21.6,0,29.8c4,4,9.3,6.2,14.9,6.2
			c5.6,0,10.9-2.2,14.9-6.2l44.3-44.3C394.7,116.6,394.1,115.1,393.4,114.4C393.5,114.4,393.5,114.4,393.4,114.4L393.4,114.4z"/>
		<path id="XMLID_508_" class="st5" d="M413.2,77.9c-1,1-1,2.5,0,3.4c0.9,0.9,0.9,2.5,0,3.4c-0.5,0.5-1.1,0.7-1.7,0.7
			c-0.7,0-1.3-0.3-1.7-0.7c-0.9-0.9-0.9-2.5,0-3.4c1-1,1-2.5,0-3.4c-1-1-2.5-1-3.4,0c-2.8,2.8-2.8,7.5,0,10.3
			c1.4,1.4,3.2,2.1,5.2,2.1s3.8-0.8,5.2-2.1c2.8-2.8,2.8-7.5,0-10.3C415.7,77,414.2,77,413.2,77.9L413.2,77.9z"/>
		<path id="XMLID_507_" class="st5" d="M384.6,91c2,0,3.8-0.8,5.2-2.1c1.4-1.4,2.1-3.2,2.1-5.2c0-2-0.8-3.8-2.1-5.2
			c-1-1-2.5-1-3.4,0c-1,1-1,2.5,0,3.4c0.5,0.5,0.7,1.1,0.7,1.7c0,0.7-0.3,1.3-0.7,1.7c-0.5,0.5-1.1,0.7-1.7,0.7
			c-0.7,0-1.3-0.3-1.7-0.7c-0.5-0.5-0.7-1.1-0.7-1.7c0-0.7,0.3-1.3,0.7-1.7c1-1,1-2.5,0-3.4c-1-1-2.5-1-3.4,0
			c-2.8,2.8-2.8,7.5,0,10.3C380.8,90.2,382.6,91,384.6,91L384.6,91z"/>
	</g>
	<g id="XMLID_495_">
		<path id="XMLID_499_" class="st5" d="M738.9,46.4l-18.6-18.6c-2-2-4.6-3-7.3-3c-2.8,0-5.4,1.1-7.3,3l-39.4,39.4
			c-2.5,2.5-4.2,5.7-5,9.3c-0.5,2.6-1.8,4.9-3.6,6.7l-10.1,10.1c-2.9-1.4-6.5-0.9-8.9,1.5c-3,3-3,7.9,0,10.9l5.7,5.7l-59.2,59.2
			c-0.5,0.5-0.7,1.1-0.7,1.7v7.4c0,1.4,1.1,2.5,2.5,2.5h7.4c0.7,0,1.3-0.3,1.7-0.7l59.2-59.2l5.7,5.7c1.5,1.5,3.5,2.3,5.5,2.3
			s4-0.8,5.5-2.3c2.4-2.4,2.9-6,1.5-8.9l10.1-10.1c1.8-1.8,4.2-3.1,6.7-3.6c0,0,0,0,0,0c3.5-0.7,6.7-2.4,9.2-4.9L738.9,61
			c2-2,3-4.6,3-7.3C741.9,50.9,740.8,48.3,738.9,46.4z M705.7,35c1.1,1.1,1.1,2.9,0,3.9l-29.7,29.7c-0.5,0.5-1.2,0.8-2,0.8
			c-0.8,0-1.5-0.3-2-0.8c0,0-0.1-0.1-0.1-0.1l33.7-33.7C705.6,34.9,705.6,34.9,705.7,35z M593.4,177.2h-3.9v-3.9l5-5l3.9,3.9
			L593.4,177.2z M601.9,168.7l-3.9-3.9l50-50l3.9,3.9L601.9,168.7z M698.1,94.8c0,0-0.1-0.1-0.1-0.1c-1.1-1.1-1.1-2.9,0-3.9
			L727.7,61c1.1-1.1,2.9-1.1,3.9,0c0,0,0.1,0.1,0.1,0.1L698.1,94.8z M735.4,57.5l-0.1,0.1c0,0-0.1-0.1-0.1-0.1c-3-3-7.9-3-10.9,0
			l-29.7,29.7c-3,3-3,7.9,0,10.9c0,0,0,0,0,0c-1.6,1.2-3.3,1.9-5.3,2.3c0,0,0,0,0,0c-3.5,0.7-6.7,2.4-9.2,4.9l-9.8,9.8l-0.1-0.1
			c-1-1-2.5-1-3.5,0c-1,1-1,2.5,0,3.5l1.9,1.9c1.1,1.1,1.1,2.9,0,3.9c-1.1,1.1-2.9,1.1-3.9,0l-7.4-7.4l-7.4-7.4l-7.4-7.4
			c-1.1-1.1-1.1-2.9,0-3.9s2.9-1.1,3.9,0l13,13c1,1,2.5,1,3.5,0c1-1,1-2.5,0-3.5l-11.3-11.3l9.8-9.8c2.5-2.5,4.2-5.7,5-9.3
			c0.4-1.9,1.2-3.7,2.3-5.3c0,0,0,0,0,0c1.5,1.5,3.5,2.3,5.5,2.3c2,0,4-0.8,5.5-2.3l29.7-29.7c3-3,3-7.9,0-10.9c0,0-0.1-0.1-0.1-0.1
			l0.1-0.1c2.1-2.1,5.6-2.1,7.7,0l18.6,18.6c1,1,1.6,2.4,1.6,3.8C737,55.1,736.4,56.5,735.4,57.5z"/>
		<path id="XMLID_498_" class="st5" d="M716.7,42.2c-2.1,0-4,0.8-5.5,2.3l-29.7,29.7c-1.5,1.5-2.3,3.4-2.3,5.5c0,2.1,0.8,4,2.3,5.5
			c1.5,1.5,3.5,2.3,5.5,2.3c2,0,4-0.8,5.5-2.3l13-13c1-1,1-2.5,0-3.5c-1-1-2.5-1-3.5,0l-13,13c-1.1,1.1-2.9,1.1-3.9,0
			c-0.5-0.5-0.8-1.2-0.8-2s0.3-1.5,0.8-2L714.7,48c0.5-0.5,1.2-0.8,2-0.8c0.8,0,1.5,0.3,2,0.8c1.1,1.1,1.1,2.9,0,3.9l-1.9,1.9
			c-1,1-1,2.5,0,3.5c1,1,2.5,1,3.5,0l1.9-1.9c3-3,3-7.9,0-10.9C720.7,43,718.8,42.2,716.7,42.2z"/>
		<path id="XMLID_496_" class="st5" d="M711.2,59.4l-3.7,3.7c-1,1-1,2.5,0,3.5c0.5,0.5,1.1,0.7,1.7,0.7c0.6,0,1.3-0.2,1.7-0.7
			l3.7-3.7c1-1,1-2.5,0-3.5C713.8,58.4,712.2,58.4,711.2,59.4z"/>
	</g>
</g>
</svg>
