<svg xmlns="http://www.w3.org/2000/svg" viewBox="0 0 49 49"><defs><style>.a{fill:#fbcd00;}</style></defs><title>support-y</title><path class="a" d="M3.27,40.83V37.89l7.46-8.22a2.4,2.4,0,0,0,3.15-.07l5.78,4.32a2.45,2.45,0,0,0,4.84-.44,2.3,2.3,0,0,0-.05-.45l6.4-7.11a2.49,2.49,0,0,0,1,.21,2.46,2.46,0,0,0,1.58-.58l6,5.31a2.41,2.41,0,0,0-.21,1,2.45,2.45,0,1,0,2.45-2.45,2.37,2.37,0,0,0-1.11.28L34.3,24.1a2.94,2.94,0,0,0,0-.42,2.45,2.45,0,1,0-4.9,0,2.37,2.37,0,0,0,.28,1.11l-6.11,6.78A2.54,2.54,0,0,0,22.05,31,2.48,2.48,0,0,0,20,32.15l-5.3-4a2.29,2.29,0,0,0,0-.37,2.45,2.45,0,0,0-4.9,0,2.3,2.3,0,0,0,0,.45L3.27,35.45v-9l7.88-7.16a2.4,2.4,0,0,0,3.55-2.16,2.4,2.4,0,0,0,0-.46L20.82,9.8h.41A2.48,2.48,0,0,0,23,9.07l6.53,2.17a2.45,2.45,0,0,0,4.79-1L40,6.7a2.45,2.45,0,1,0-.82-1.8,1.93,1.93,0,0,0,0,.34L33.48,8.82A2.45,2.45,0,0,0,30,9a2.56,2.56,0,0,0-.4.59l-5.94-2a.81.81,0,0,0,0-.22,2.45,2.45,0,1,0-4.9,0,2.5,2.5,0,0,0,.59,1.61l-5.61,6.31a2.39,2.39,0,0,0-1.51-.54A2.45,2.45,0,0,0,9.8,17.15a2.5,2.5,0,0,0,.22,1L3.27,24.29V0H1.63V1.63H0V3.27H1.63v8.16H0v1.64H1.63v8.16H0v1.64H1.63V31H0v1.64H1.63v9a.82.82,0,0,0,.82.82h9V44.1h1.64V42.47h8.16V44.1h1.64V42.47H31V44.1h1.64V42.47h8.16V44.1h1.64V42.47H49V40.83ZM41.65,31a.82.82,0,1,1-.82.82A.82.82,0,0,1,41.65,31Zm-9.8-8.16a.82.82,0,0,1,.82.81.82.82,0,0,1-1.64,0A.82.82,0,0,1,31.85,22.87Zm-9.8,9.8a.82.82,0,0,1,.82.81.82.82,0,1,1-1.64,0A.82.82,0,0,1,22.05,32.67ZM12.25,27a.82.82,0,0,1,.82.82.82.82,0,0,1-1.64,0A.82.82,0,0,1,12.25,27ZM41.65,4.08a.82.82,0,1,1-.82.82A.82.82,0,0,1,41.65,4.08ZM31.85,9.8a.82.82,0,0,1,.82.82.82.82,0,0,1-1.64,0A.82.82,0,0,1,31.85,9.8ZM21.23,6.53a.82.82,0,1,1,0,1.64.82.82,0,0,1,0-1.64Zm-9,9.8a.82.82,0,1,1-.82.82A.82.82,0,0,1,12.25,16.33Z"/><rect class="a" x="15.52" y="47.37" width="1.63" height="1.63"/><rect class="a" x="18.78" y="47.37" width="1.63" height="1.63"/><rect class="a" x="22.05" y="47.37" width="1.63" height="1.63"/><rect class="a" x="25.32" y="47.37" width="1.63" height="1.63"/><rect class="a" x="28.58" y="47.37" width="1.63" height="1.63"/><rect class="a" x="31.85" y="47.37" width="1.63" height="1.63"/></svg>